<?xml version="1.0" encoding="utf-8"?>
<!-- Generator: Adobe Illustrator 17.0.0, SVG Export Plug-In . SVG Version: 6.00 Build 0)  -->
<!DOCTYPE svg PUBLIC "-//W3C//DTD SVG 1.1//EN" "http://www.w3.org/Graphics/SVG/1.1/DTD/svg11.dtd">
<svg version="1.1" id="Слой_1" xmlns="http://www.w3.org/2000/svg" xmlns:xlink="http://www.w3.org/1999/xlink" x="0px" y="0px"
	 width="17px" height="12px" viewBox="0 0 17 12" enable-background="new 0 0 17 12" xml:space="preserve">
<g>
	<polygon fill-rule="evenodd" clip-rule="evenodd" fill="#00A651" points="2.859,8.072 17,8.072 17,11.99 2.859,11.99 2.859,8.072 	
		"/>
	<polygon fill-rule="evenodd" clip-rule="evenodd" fill="#ED1C24" points="2.859,0 17,0 17,8.068 2.859,8.068 2.859,0 	"/>
	<polygon fill-rule="evenodd" clip-rule="evenodd" fill="#FFFFFF" points="0,0.01 2.865,0.01 2.865,12 0,12 0,0.01 	"/>
	<polygon fill-rule="evenodd" clip-rule="evenodd" fill="#EF4123" points="0.907,2.238 0.812,2.238 0.812,2.058 0.716,2.058 
		0.716,1.879 0.605,1.879 0.605,2.058 0.493,2.058 0.493,2.238 0.414,2.238 0.414,2.492 0.493,2.492 0.493,2.671 0.605,2.671 
		0.605,2.851 0.716,2.851 0.716,2.671 0.812,2.671 0.812,2.492 0.907,2.492 0.907,2.238 	"/>
	<polygon fill-rule="evenodd" clip-rule="evenodd" fill="#EF4123" points="2.435,2.238 2.355,2.238 2.355,2.058 2.244,2.058 
		2.244,1.879 2.133,1.879 2.133,2.058 2.021,2.058 2.021,2.238 1.942,2.238 1.942,2.492 2.021,2.492 2.021,2.671 2.133,2.671 
		2.133,2.851 2.244,2.851 2.244,2.671 2.355,2.671 2.355,2.492 2.435,2.492 2.435,2.238 	"/>
	<polygon fill-rule="evenodd" clip-rule="evenodd" fill="#EF4123" points="1.91,2.238 1.814,2.238 1.814,2.058 1.703,2.058 
		1.703,1.879 1.592,1.879 1.592,2.058 1.496,2.058 1.496,2.238 1.464,2.238 1.401,2.238 1.385,2.238 1.385,2.058 1.273,2.058 
		1.273,1.879 1.162,1.879 1.162,2.058 1.05,2.058 1.05,2.238 0.971,2.238 0.971,2.492 1.05,2.492 1.05,2.671 1.162,2.671 
		1.162,2.851 1.273,2.851 1.273,2.671 1.385,2.671 1.385,2.492 1.401,2.492 1.464,2.492 1.496,2.492 1.496,2.671 1.592,2.671 
		1.592,2.851 1.703,2.851 1.703,2.671 1.814,2.671 1.814,2.492 1.91,2.492 1.91,2.238 	"/>
	<polygon fill-rule="evenodd" clip-rule="evenodd" fill="#EF4123" points="2.435,0.862 2.324,0.862 2.324,0.653 2.244,0.653 
		2.244,0.444 2.133,0.444 2.133,0.264 2.037,0.264 2.037,0.07 1.767,0.07 1.767,0.264 1.671,0.264 1.671,0.444 1.56,0.444 
		1.56,0.653 1.48,0.653 1.48,0.862 1.464,0.862 1.369,0.862 1.353,0.862 1.353,0.653 1.273,0.653 1.273,0.444 1.162,0.444 
		1.162,0.264 1.082,0.264 1.082,0.07 0.796,0.07 0.796,0.264 0.716,0.264 0.716,0.444 0.605,0.444 0.605,0.653 0.525,0.653 
		0.525,0.862 0.414,0.862 0.414,1.131 0.525,1.131 0.525,1.281 0.605,1.281 0.605,1.49 0.716,1.49 0.716,1.67 0.796,1.67 
		0.796,1.864 0.859,1.864 0.859,2.028 1.019,2.028 1.019,1.864 1.082,1.864 1.082,1.67 1.162,1.67 1.162,1.49 1.273,1.49 
		1.273,1.281 1.353,1.281 1.353,1.131 1.369,1.131 1.464,1.131 1.48,1.131 1.48,1.281 1.56,1.281 1.56,1.49 1.671,1.49 1.671,1.67 
		1.767,1.67 1.767,1.864 1.83,1.864 1.83,2.028 1.989,2.028 1.989,1.864 2.037,1.864 2.037,1.67 2.133,1.67 2.133,1.49 2.244,1.49 
		2.244,1.281 2.324,1.281 2.324,1.131 2.435,1.131 2.435,0.862 	"/>
	<polygon fill-rule="evenodd" clip-rule="evenodd" fill="#EF4123" points="0.907,9.698 0.812,9.698 0.812,9.877 0.716,9.877 
		0.716,10.057 0.605,10.057 0.605,9.877 0.493,9.877 0.493,9.698 0.414,9.698 0.414,9.444 0.493,9.444 0.493,9.279 0.605,9.279 
		0.605,9.1 0.716,9.1 0.716,9.279 0.812,9.279 0.812,9.444 0.907,9.444 0.907,9.698 	"/>
	<polygon fill-rule="evenodd" clip-rule="evenodd" fill="#EF4123" points="2.435,9.698 2.355,9.698 2.355,9.877 2.244,9.877 
		2.244,10.057 2.133,10.057 2.133,9.877 2.021,9.877 2.021,9.698 1.942,9.698 1.942,9.444 2.021,9.444 2.021,9.279 2.133,9.279 
		2.133,9.1 2.244,9.1 2.244,9.279 2.355,9.279 2.355,9.444 2.435,9.444 2.435,9.698 	"/>
	<polygon fill-rule="evenodd" clip-rule="evenodd" fill="#EF4123" points="1.91,9.698 1.814,9.698 1.814,9.877 1.703,9.877 
		1.703,10.057 1.592,10.057 1.592,9.877 1.496,9.877 1.496,9.698 1.464,9.698 1.401,9.698 1.385,9.698 1.385,9.877 1.273,9.877 
		1.273,10.057 1.162,10.057 1.162,9.877 1.05,9.877 1.05,9.698 0.971,9.698 0.971,9.444 1.05,9.444 1.05,9.279 1.162,9.279 
		1.162,9.1 1.273,9.1 1.273,9.279 1.385,9.279 1.385,9.444 1.401,9.444 1.464,9.444 1.496,9.444 1.496,9.279 1.592,9.279 1.592,9.1 
		1.703,9.1 1.703,9.279 1.814,9.279 1.814,9.444 1.91,9.444 1.91,9.698 	"/>
	<polygon fill-rule="evenodd" clip-rule="evenodd" fill="#EF4123" points="2.435,11.073 2.324,11.073 2.324,11.282 2.244,11.282 
		2.244,11.492 2.133,11.492 2.133,11.671 2.037,11.671 2.037,11.865 1.767,11.865 1.767,11.671 1.671,11.671 1.671,11.492 
		1.56,11.492 1.56,11.282 1.48,11.282 1.48,11.073 1.464,11.073 1.369,11.073 1.353,11.073 1.353,11.282 1.273,11.282 1.273,11.492 
		1.162,11.492 1.162,11.671 1.082,11.671 1.082,11.865 0.796,11.865 0.796,11.671 0.716,11.671 0.716,11.492 0.605,11.492 
		0.605,11.282 0.525,11.282 0.525,11.073 0.414,11.073 0.414,10.804 0.525,10.804 0.525,10.655 0.605,10.655 0.605,10.445 
		0.716,10.445 0.716,10.266 0.796,10.266 0.796,10.071 0.859,10.071 0.859,9.907 1.019,9.907 1.019,10.071 1.082,10.071 
		1.082,10.266 1.162,10.266 1.162,10.445 1.273,10.445 1.273,10.655 1.353,10.655 1.353,10.804 1.369,10.804 1.464,10.804 
		1.48,10.804 1.48,10.655 1.56,10.655 1.56,10.445 1.671,10.445 1.671,10.266 1.767,10.266 1.767,10.071 1.83,10.071 1.83,9.907 
		1.989,9.907 1.989,10.071 2.037,10.071 2.037,10.266 2.133,10.266 2.133,10.445 2.244,10.445 2.244,10.655 2.324,10.655 
		2.324,10.804 2.435,10.804 2.435,11.073 	"/>
	<polygon fill-rule="evenodd" clip-rule="evenodd" fill="#EF4123" points="2.228,4.645 2.228,4.45 2.324,4.45 2.324,4.241 
		2.387,4.241 2.387,4.062 2.451,4.062 2.451,3.718 2.371,3.718 2.371,3.508 2.308,3.508 2.308,3.344 2.244,3.344 2.244,3.15 
		2.164,3.15 2.164,2.97 2.069,2.97 2.069,2.851 1.989,2.851 1.989,2.671 1.862,2.671 1.862,2.851 1.767,2.851 1.767,2.97 
		1.687,2.97 1.687,3.15 1.607,3.15 1.607,3.344 1.528,3.344 1.528,3.508 1.464,3.508 1.464,3.628 1.385,3.628 1.385,3.508 
		1.321,3.508 1.321,3.344 1.257,3.344 1.257,3.15 1.178,3.15 1.178,2.97 1.098,2.97 1.098,2.851 1.003,2.851 1.003,2.671 
		0.875,2.671 0.875,2.851 0.78,2.851 0.78,2.97 0.7,2.97 0.7,3.15 0.621,3.15 0.621,3.344 0.557,3.344 0.557,3.508 0.493,3.508 
		0.493,3.718 0.398,3.718 0.398,4.062 0.462,4.062 0.462,4.241 0.541,4.241 0.541,4.45 0.637,4.45 0.637,4.645 0.764,4.645 
		0.764,4.45 0.859,4.45 0.859,4.241 0.939,4.241 0.939,4.047 0.812,4.047 0.812,3.867 1.019,3.867 1.019,4.017 1.146,4.017 
		1.146,4.226 1.257,4.226 1.257,4.45 1.162,4.45 1.162,4.63 1.098,4.63 1.098,4.809 1.034,4.809 1.034,4.988 0.939,4.988 
		0.939,5.153 0.875,5.153 0.875,5.287 0.78,5.287 0.78,5.482 0.653,5.482 0.653,5.273 0.573,5.273 0.573,5.108 0.493,5.108 
		0.493,4.974 0.414,4.974 0.414,5.407 0.493,5.407 0.493,5.586 0.557,5.586 0.557,5.706 0.637,5.706 0.637,5.9 0.716,5.9 
		0.716,6.035 0.637,6.035 0.637,6.229 0.557,6.229 0.557,6.349 0.493,6.349 0.493,6.528 0.414,6.528 0.414,6.962 0.493,6.962 
		0.493,6.827 0.573,6.827 0.573,6.663 0.653,6.663 0.653,6.454 0.78,6.454 0.78,6.648 0.875,6.648 0.875,6.782 0.939,6.782 
		0.939,6.947 1.034,6.947 1.034,7.126 1.098,7.126 1.098,7.306 1.162,7.306 1.162,7.485 1.257,7.485 1.257,7.709 1.146,7.709 
		1.146,7.919 1.019,7.919 1.019,8.068 0.812,8.068 0.812,7.889 0.939,7.889 0.939,7.694 0.859,7.694 0.859,7.485 0.764,7.485 
		0.764,7.291 0.637,7.291 0.637,7.485 0.541,7.485 0.541,7.694 0.462,7.694 0.462,7.874 0.398,7.874 0.398,8.218 0.493,8.218 
		0.493,8.427 0.557,8.427 0.557,8.591 0.621,8.591 0.621,8.786 0.7,8.786 0.7,8.965 0.78,8.965 0.78,9.1 0.875,9.1 0.875,9.264 
		1.003,9.264 1.003,9.1 1.098,9.1 1.098,8.965 1.178,8.965 1.178,8.786 1.257,8.786 1.257,8.591 1.321,8.591 1.321,8.427 
		1.385,8.427 1.385,8.307 1.464,8.307 1.464,8.427 1.528,8.427 1.528,8.591 1.607,8.591 1.607,8.786 1.687,8.786 1.687,8.965 
		1.767,8.965 1.767,9.1 1.862,9.1 1.862,9.264 1.989,9.264 1.989,9.1 2.069,9.1 2.069,8.965 2.164,8.965 2.164,8.786 2.244,8.786 
		2.244,8.591 2.308,8.591 2.308,8.427 2.371,8.427 2.371,8.218 2.451,8.218 2.451,7.874 2.387,7.874 2.387,7.694 2.324,7.694 
		2.324,7.485 2.228,7.485 2.228,7.291 2.085,7.291 2.085,7.485 1.989,7.485 1.989,7.694 1.926,7.694 1.926,7.889 2.037,7.889 
		2.037,8.068 1.83,8.068 1.83,7.919 1.719,7.919 1.719,7.709 1.592,7.709 1.592,7.485 1.687,7.485 1.687,7.306 1.751,7.306 
		1.751,7.126 1.814,7.126 1.814,6.947 1.91,6.947 1.91,6.782 1.989,6.782 1.989,6.648 2.085,6.648 2.085,6.454 2.212,6.454 
		2.212,6.663 2.292,6.663 2.292,6.827 2.355,6.827 2.355,6.962 2.435,6.962 2.435,6.528 2.371,6.528 2.371,6.349 2.292,6.349 
		2.292,6.229 2.212,6.229 2.212,6.035 2.133,6.035 2.133,5.9 2.212,5.9 2.212,5.706 2.292,5.706 2.292,5.586 2.371,5.586 
		2.371,5.407 2.435,5.407 2.435,4.974 2.355,4.974 2.355,5.108 2.292,5.108 2.292,5.273 2.212,5.273 2.212,5.482 2.085,5.482 
		2.085,5.287 1.989,5.287 1.989,5.153 1.91,5.153 1.91,4.988 1.814,4.988 1.814,4.809 1.751,4.809 1.751,4.63 1.687,4.63 
		1.687,4.45 1.592,4.45 1.592,4.226 1.719,4.226 1.719,4.017 1.83,4.017 1.83,3.867 2.037,3.867 2.037,4.047 1.926,4.047 
		1.926,4.241 1.989,4.241 1.989,4.45 2.085,4.45 2.085,4.645 2.228,4.645 	"/>
	<polygon fill-rule="evenodd" clip-rule="evenodd" fill="#EF4123" points="1.385,2.836 1.48,2.836 1.48,3.209 1.385,3.209 
		1.385,2.836 	"/>
	<polygon fill-rule="evenodd" clip-rule="evenodd" fill="#EF4123" points="1.385,11.357 1.48,11.357 1.48,11.806 1.385,11.806 
		1.385,11.357 	"/>
	<polygon fill-rule="evenodd" clip-rule="evenodd" fill="#EF4123" points="1.385,10.042 1.48,10.042 1.48,10.415 1.385,10.415 
		1.385,10.042 	"/>
	<polygon fill-rule="evenodd" clip-rule="evenodd" fill="#EF4123" points="1.385,8.696 1.48,8.696 1.48,9.07 1.385,9.07 
		1.385,8.696 	"/>
	<polygon fill-rule="evenodd" clip-rule="evenodd" fill="#EF4123" points="0.398,4.435 0.477,4.435 0.477,4.689 0.398,4.689 
		0.398,4.435 	"/>
	<polygon fill-rule="evenodd" clip-rule="evenodd" fill="#EF4123" points="2.371,4.435 2.467,4.435 2.467,4.689 2.371,4.689 
		2.371,4.435 	"/>
	<polygon fill-rule="evenodd" clip-rule="evenodd" fill="#EF4123" points="0.398,2.91 0.477,2.91 0.477,3.165 0.398,3.165 
		0.398,2.91 	"/>
	<polygon fill-rule="evenodd" clip-rule="evenodd" fill="#EF4123" points="2.371,2.91 2.467,2.91 2.467,3.165 2.371,3.165 
		2.371,2.91 	"/>
	<polygon fill-rule="evenodd" clip-rule="evenodd" fill="#EF4123" points="0.398,1.475 0.477,1.475 0.477,1.729 0.398,1.729 
		0.398,1.475 	"/>
	<polygon fill-rule="evenodd" clip-rule="evenodd" fill="#EF4123" points="2.371,1.475 2.467,1.475 2.467,1.729 2.371,1.729 
		2.371,1.475 	"/>
	<polygon fill-rule="evenodd" clip-rule="evenodd" fill="#EF4123" points="0.398,0.16 0.477,0.16 0.477,0.414 0.398,0.414 
		0.398,0.16 	"/>
	<polygon fill-rule="evenodd" clip-rule="evenodd" fill="#EF4123" points="2.371,0.16 2.467,0.16 2.467,0.414 2.371,0.414 
		2.371,0.16 	"/>
	<polygon fill-rule="evenodd" clip-rule="evenodd" fill="#EF4123" points="0.398,7.246 0.477,7.246 0.477,7.5 0.398,7.5 
		0.398,7.246 	"/>
	<polygon fill-rule="evenodd" clip-rule="evenodd" fill="#EF4123" points="2.371,7.246 2.467,7.246 2.467,7.5 2.371,7.5 
		2.371,7.246 	"/>
	<polygon fill-rule="evenodd" clip-rule="evenodd" fill="#EF4123" points="0.398,8.771 0.477,8.771 0.477,9.025 0.398,9.025 
		0.398,8.771 	"/>
	<polygon fill-rule="evenodd" clip-rule="evenodd" fill="#EF4123" points="2.371,8.771 2.467,8.771 2.467,9.025 2.371,9.025 
		2.371,8.771 	"/>
	<polygon fill-rule="evenodd" clip-rule="evenodd" fill="#EF4123" points="0.398,10.206 0.477,10.206 0.477,10.46 0.398,10.46 
		0.398,10.206 	"/>
	<polygon fill-rule="evenodd" clip-rule="evenodd" fill="#EF4123" points="2.371,10.206 2.467,10.206 2.467,10.46 2.371,10.46 
		2.371,10.206 	"/>
	<polygon fill-rule="evenodd" clip-rule="evenodd" fill="#EF4123" points="0.398,11.537 0.477,11.537 0.477,11.776 0.398,11.776 
		0.398,11.537 	"/>
	<polygon fill-rule="evenodd" clip-rule="evenodd" fill="#EF4123" points="2.371,11.537 2.467,11.537 2.467,11.776 2.371,11.776 
		2.371,11.537 	"/>
	<polygon fill-rule="evenodd" clip-rule="evenodd" fill="#FFFFFF" points="1.13,0.877 1.05,0.877 1.05,0.653 0.971,0.653 
		0.971,0.503 0.907,0.503 0.907,0.653 0.828,0.653 0.828,0.877 0.748,0.877 0.748,1.116 0.828,1.116 0.828,1.281 0.907,1.281 
		0.907,1.46 0.971,1.46 0.971,1.281 1.05,1.281 1.05,1.116 1.13,1.116 1.13,0.877 	"/>
	<polygon fill-rule="evenodd" clip-rule="evenodd" fill="#FFFFFF" points="0.621,2.268 0.684,2.268 0.684,2.477 0.621,2.477 
		0.621,2.268 	"/>
	<polygon fill-rule="evenodd" clip-rule="evenodd" fill="#FFFFFF" points="1.178,2.268 1.241,2.268 1.241,2.477 1.178,2.477 
		1.178,2.268 	"/>
	<polygon fill-rule="evenodd" clip-rule="evenodd" fill="#FFFFFF" points="1.607,2.268 1.671,2.268 1.671,2.477 1.607,2.477 
		1.607,2.268 	"/>
	<polygon fill-rule="evenodd" clip-rule="evenodd" fill="#FFFFFF" points="2.164,2.268 2.212,2.268 2.212,2.477 2.164,2.477 
		2.164,2.268 	"/>
	<polygon fill-rule="evenodd" clip-rule="evenodd" fill="#FFFFFF" points="2.085,0.877 2.021,0.877 2.021,0.653 1.942,0.653 
		1.942,0.503 1.862,0.503 1.862,0.653 1.783,0.653 1.783,0.877 1.719,0.877 1.719,1.116 1.783,1.116 1.783,1.281 1.862,1.281 
		1.862,1.46 1.942,1.46 1.942,1.281 2.021,1.281 2.021,1.116 2.085,1.116 2.085,0.877 	"/>
	<polygon fill-rule="evenodd" clip-rule="evenodd" fill="#FFFFFF" points="0.621,9.458 0.684,9.458 0.684,9.668 0.621,9.668 
		0.621,9.458 	"/>
	<polygon fill-rule="evenodd" clip-rule="evenodd" fill="#FFFFFF" points="1.178,9.458 1.241,9.458 1.241,9.668 1.178,9.668 
		1.178,9.458 	"/>
	<polygon fill-rule="evenodd" clip-rule="evenodd" fill="#FFFFFF" points="1.607,9.458 1.671,9.458 1.671,9.668 1.607,9.668 
		1.607,9.458 	"/>
	<polygon fill-rule="evenodd" clip-rule="evenodd" fill="#FFFFFF" points="2.164,9.458 2.212,9.458 2.212,9.668 2.164,9.668 
		2.164,9.458 	"/>
	<polygon fill-rule="evenodd" clip-rule="evenodd" fill="#FFFFFF" points="1.607,5.048 1.607,5.228 1.671,5.228 1.671,5.362 
		1.735,5.362 1.735,5.497 1.83,5.497 1.83,5.646 1.973,5.646 1.973,6.289 1.83,6.289 1.83,6.439 1.735,6.439 1.735,6.573 
		1.671,6.573 1.671,6.708 1.607,6.708 1.607,6.887 1.544,6.887 1.544,7.067 1.496,7.067 1.496,7.246 1.353,7.246 1.353,7.067 
		1.321,7.067 1.321,6.887 1.241,6.887 1.241,6.708 1.178,6.708 1.178,6.573 1.114,6.573 1.114,6.439 1.019,6.439 1.019,6.289 
		0.891,6.289 0.891,5.646 1.019,5.646 1.019,5.497 1.114,5.497 1.114,5.362 1.178,5.362 1.178,5.228 1.241,5.228 1.241,5.048 
		1.321,5.048 1.321,4.869 1.353,4.869 1.353,4.689 1.496,4.689 1.496,4.869 1.544,4.869 1.544,5.048 1.607,5.048 	"/>
	<polygon fill-rule="evenodd" clip-rule="evenodd" fill="#EF4123" points="1.385,0.1 1.48,0.1 1.48,0.533 1.385,0.533 1.385,0.1 	
		"/>
	<polygon fill-rule="evenodd" clip-rule="evenodd" fill="#EF4123" points="1.385,1.49 1.48,1.49 1.48,1.864 1.385,1.864 1.385,1.49 
			"/>
	<polygon fill-rule="evenodd" clip-rule="evenodd" fill="#EF4123" points="0.891,0.862 0.987,0.862 0.987,1.101 0.891,1.101 
		0.891,0.862 	"/>
	<polygon fill-rule="evenodd" clip-rule="evenodd" fill="#EF4123" points="1.862,0.862 1.942,0.862 1.942,1.101 1.862,1.101 
		1.862,0.862 	"/>
	<polygon fill-rule="evenodd" clip-rule="evenodd" fill="#EF4123" points="1.56,5.9 1.56,5.781 1.655,5.781 1.655,5.407 
		1.544,5.407 1.544,5.557 1.48,5.557 1.48,5.736 1.385,5.736 1.385,5.557 1.305,5.557 1.305,5.407 1.21,5.407 1.21,5.781 
		1.289,5.781 1.289,5.9 1.337,5.9 1.337,6.05 1.289,6.05 1.289,6.17 1.21,6.17 1.21,6.528 1.305,6.528 1.305,6.394 1.385,6.394 
		1.385,6.199 1.48,6.199 1.48,6.394 1.544,6.394 1.544,6.528 1.655,6.528 1.655,6.17 1.56,6.17 1.56,6.05 1.528,6.05 1.528,5.9 
		1.56,5.9 	"/>
	<polygon fill-rule="evenodd" clip-rule="evenodd" fill="#EF4123" points="1.034,5.841 1.13,5.841 1.13,6.095 1.034,6.095 
		1.034,5.841 	"/>
	<polygon fill-rule="evenodd" clip-rule="evenodd" fill="#EF4123" points="1.385,5.063 1.48,5.063 1.48,5.317 1.385,5.317 
		1.385,5.063 	"/>
	<polygon fill-rule="evenodd" clip-rule="evenodd" fill="#EF4123" points="1.735,5.841 1.83,5.841 1.83,6.095 1.735,6.095 
		1.735,5.841 	"/>
	<polygon fill-rule="evenodd" clip-rule="evenodd" fill="#EF4123" points="1.385,6.633 1.48,6.633 1.48,6.887 1.385,6.887 
		1.385,6.633 	"/>
	<polygon fill-rule="evenodd" clip-rule="evenodd" fill="#FFFFFF" points="1.13,11.043 1.05,11.043 1.05,11.282 0.971,11.282 
		0.971,11.432 0.907,11.432 0.907,11.282 0.828,11.282 0.828,11.043 0.748,11.043 0.748,10.804 0.828,10.804 0.828,10.655 
		0.907,10.655 0.907,10.475 0.971,10.475 0.971,10.655 1.05,10.655 1.05,10.804 1.13,10.804 1.13,11.043 	"/>
	<polygon fill-rule="evenodd" clip-rule="evenodd" fill="#FFFFFF" points="2.085,11.043 2.021,11.043 2.021,11.282 1.942,11.282 
		1.942,11.432 1.862,11.432 1.862,11.282 1.783,11.282 1.783,11.043 1.719,11.043 1.719,10.804 1.783,10.804 1.783,10.655 
		1.862,10.655 1.862,10.475 1.942,10.475 1.942,10.655 2.021,10.655 2.021,10.804 2.085,10.804 2.085,11.043 	"/>
	<polygon fill-rule="evenodd" clip-rule="evenodd" fill="#EF4123" points="0.891,10.834 0.987,10.834 0.987,11.073 0.891,11.073 
		0.891,10.834 	"/>
	<polygon fill-rule="evenodd" clip-rule="evenodd" fill="#EF4123" points="1.862,10.834 1.942,10.834 1.942,11.073 1.862,11.073 
		1.862,10.834 	"/>
</g>
</svg>
