<?xml version="1.0" encoding="utf-8"?>
<!-- Generator: Adobe Illustrator 17.0.0, SVG Export Plug-In . SVG Version: 6.00 Build 0)  -->
<!DOCTYPE svg PUBLIC "-//W3C//DTD SVG 1.1//EN" "http://www.w3.org/Graphics/SVG/1.1/DTD/svg11.dtd">
<svg version="1.1" id="Слой_1" xmlns="http://www.w3.org/2000/svg" xmlns:xlink="http://www.w3.org/1999/xlink" x="0px" y="0px"
	 width="17px" height="12px" viewBox="232.445 164.078 17 12" enable-background="new 232.445 164.078 17 12" xml:space="preserve">
<rect x="232.445" y="164.078" fill="#FF0000" width="17" height="12"/>
<rect x="235.874" y="164.078" fill="#FFFFFF" width="10.142" height="12"/>
<path fill="#FF0000" d="M240.945,165.958l-0.692,1.291c-0.079,0.14-0.219,0.127-0.36,0.049l-0.501-0.259l0.373,1.982
	c0.079,0.362-0.173,0.362-0.298,0.206l-0.874-0.979l-0.142,0.497c-0.016,0.065-0.088,0.134-0.196,0.118l-1.106-0.232l0.29,1.056
	c0.062,0.235,0.111,0.332-0.063,0.394l-0.394,0.185l1.903,1.546c0.075,0.058,0.113,0.164,0.087,0.259l-0.167,0.547
	c0.655-0.076,1.242-0.189,1.898-0.259c0.058-0.006,0.155,0.089,0.154,0.156l-0.087,2.003h0.319l-0.05-1.998
	c0-0.067,0.087-0.167,0.145-0.161c0.656,0.07,1.243,0.184,1.898,0.259l-0.167-0.547c-0.027-0.095,0.011-0.2,0.087-0.259l1.903-1.546
	l-0.394-0.185c-0.173-0.062-0.125-0.159-0.063-0.394l0.29-1.056l-1.106,0.232c-0.108,0.016-0.18-0.052-0.196-0.118l-0.142-0.497
	l-0.874,0.979c-0.124,0.157-0.376,0.157-0.298-0.206l0.373-1.982l-0.501,0.259c-0.141,0.078-0.281,0.091-0.36-0.049"/>
</svg>
