<?xml version="1.0" encoding="utf-8"?>
<!-- Generator: Adobe Illustrator 17.0.0, SVG Export Plug-In . SVG Version: 6.00 Build 0)  -->
<!DOCTYPE svg PUBLIC "-//W3C//DTD SVG 1.1//EN" "http://www.w3.org/Graphics/SVG/1.1/DTD/svg11.dtd">
<svg version="1.1"
	 id="svg2" xmlns:rdf="http://www.w3.org/1999/02/22-rdf-syntax-ns#" xmlns:dc="http://purl.org/dc/elements/1.1/" xmlns:svg="http://www.w3.org/2000/svg" xmlns:cc="http://creativecommons.org/ns#"
	 xmlns="http://www.w3.org/2000/svg" xmlns:xlink="http://www.w3.org/1999/xlink" x="0px" y="0px" width="17px" height="12px"
	 viewBox="232.445 164.078 17 12" enable-background="new 232.445 164.078 17 12" xml:space="preserve">
<rect x="232.445" y="164.078" fill="#FFFFFF" width="17" height="12"/>
<path id="branch" fill="#4E5B31" d="M240.658,174.044c-0.003-0.002-0.004-0.002-0.007-0.005l-0.002-0.002
	c-0.006-0.006-0.016-0.016-0.03-0.033c-0.025-0.03-0.059-0.075-0.089-0.114c-0.059-0.078-0.107-0.145-0.117-0.157l-0.015-0.021
	l-0.147-0.048l-0.107-0.053l0.057-0.068l0.197,0.089l0.147,0.032l0.271,0.211l0,0c-0.001,0.001-0.039,0.035-0.078,0.072
	c-0.017,0.017-0.039,0.038-0.054,0.056c-0.007,0.008-0.013,0.016-0.018,0.023c-0.003,0.004-0.004,0.008-0.005,0.009l0.017-0.011
	l0.018,0.015l-0.037,0.004L240.658,174.044L240.658,174.044z M239.65,173.723c-0.128,0-0.254-0.037-0.376-0.111l0,0l0,0
	c0,0,0.016-0.032,0.054-0.062c0.037-0.029,0.103-0.063,0.21-0.063h0.002c0.127,0,0.281,0.046,0.46,0.135
	C239.995,173.626,239.855,173.723,239.65,173.723L239.65,173.723L239.65,173.723z M239.096,173.593c-0.024,0-0.045-0.009-0.06-0.027
	c-0.012-0.014-0.021-0.033-0.027-0.058c-0.01-0.04-0.007-0.081-0.007-0.084c0.01-0.004,0.02-0.007,0.029-0.007l0.002,0
	c0.047,0,0.085,0.044,0.101,0.087c0.009,0.025,0.011,0.045,0.005,0.061C239.134,173.581,239.116,173.593,239.096,173.593
	L239.096,173.593z M240.072,173.473c-0.328-0.05-0.467-0.175-0.526-0.272c-0.063-0.103-0.05-0.198-0.05-0.199l0,0l0,0
	c0,0,0.02-0.006,0.05-0.006C239.634,172.996,239.857,173.042,240.072,173.473L240.072,173.473L240.072,173.473L240.072,173.473z
	 M239.4,173.404c-0.14,0-0.247-0.026-0.317-0.076c-0.04-0.029-0.06-0.061-0.07-0.083c-0.009-0.02-0.011-0.037-0.011-0.04
	c0.004-0.002,0.061-0.029,0.147-0.033c0.007,0,0.015-0.001,0.022-0.001c0.108,0,0.273,0.037,0.447,0.216l0,0l0,0
	C239.538,173.398,239.465,173.404,239.4,173.404L239.4,173.404z M238.721,173.377c-0.148,0-0.351-0.048-0.477-0.182l0,0l0,0
	c0.001,0,0.139-0.037,0.293-0.041c0.009,0,0.018,0,0.028,0c0.139,0,0.245,0.028,0.315,0.084c0.025,0.02,0.038,0.038,0.041,0.056
	c0.003,0.015-0.005,0.031-0.02,0.043c-0.032,0.025-0.089,0.039-0.169,0.04L238.721,173.377L238.721,173.377z M238.243,173.117
	c-0.018,0-0.035-0.009-0.047-0.023c-0.01-0.012-0.016-0.028-0.021-0.05c-0.008-0.037-0.006-0.073-0.006-0.073l0,0
	c0.007-0.003,0.015-0.005,0.023-0.005h0c0.022,0,0.039,0.013,0.049,0.023c0.014,0.014,0.025,0.033,0.032,0.053
	c0.007,0.021,0.008,0.038,0.003,0.053C238.273,173.104,238.26,173.117,238.243,173.117L238.243,173.117L238.243,173.117z
	 M239.348,173.09c-0.024,0-0.045-0.009-0.06-0.027c-0.012-0.014-0.021-0.033-0.027-0.058c-0.01-0.04-0.007-0.081-0.007-0.084
	c0.01-0.004,0.02-0.007,0.029-0.007l0.002,0c0.047,0,0.085,0.044,0.101,0.087c0.009,0.025,0.011,0.045,0.005,0.061
	C239.387,173.079,239.369,173.09,239.348,173.09L239.348,173.09z M238.81,173.067c-0.297-0.011-0.452-0.101-0.529-0.174
	c-0.043-0.041-0.068-0.082-0.08-0.109c-0.012-0.025-0.016-0.045-0.017-0.049l0,0c0,0,0.028-0.011,0.073-0.012l0.007,0
	C238.365,172.724,238.569,172.768,238.81,173.067L238.81,173.067L238.81,173.067z M239.133,173.035
	c-0.239-0.039-0.375-0.147-0.446-0.232c-0.075-0.089-0.097-0.171-0.098-0.175c0,0,0.03-0.008,0.074-0.009c0.003,0,0.007,0,0.01,0
	c0.003,0,0.007,0,0.01,0C238.802,172.622,239.021,172.68,239.133,173.035L239.133,173.035L239.133,173.035z M237.905,172.913
	c-0.078,0-0.154-0.01-0.226-0.029c-0.125-0.033-0.179-0.084-0.202-0.12c-0.013-0.021-0.018-0.039-0.019-0.051
	c-0.002-0.011-0.001-0.02-0.001-0.021l0.001,0c0,0,0.083-0.025,0.198-0.027c0.005,0,0.009,0,0.014,0c0.055,0,0.11,0.006,0.162,0.017
	c0.199,0.042,0.302,0.201,0.303,0.203l0,0l0,0C238.133,172.885,238.038,172.913,237.905,172.913L237.905,172.913z M238.46,172.7
	c-0.024,0-0.045-0.009-0.06-0.026c-0.012-0.014-0.021-0.033-0.027-0.058c-0.01-0.04-0.007-0.08-0.007-0.084
	c0.01-0.004,0.02-0.007,0.029-0.007l0.002,0c0.047,0,0.085,0.044,0.101,0.087c0.009,0.024,0.01,0.044,0.005,0.061
	C238.498,172.689,238.481,172.7,238.46,172.7L238.46,172.7z M238.043,172.639c-0.002,0-0.113-0.031-0.226-0.105
	c-0.105-0.068-0.233-0.189-0.248-0.377v0l0,0c0,0,0.01-0.003,0.024-0.003c0.002,0,0.004,0,0.006,0c0.031,0,0.095,0.009,0.173,0.072
	C237.87,172.306,237.961,172.445,238.043,172.639L238.043,172.639z M238.315,172.628c-0.001,0-0.08-0.034-0.179-0.122
	c-0.092-0.082-0.222-0.229-0.316-0.467c0,0,0.022-0.012,0.055-0.014c0.002,0,0.004,0,0.006,0c0.003,0,0.006,0,0.009,0
	c0.046,0.001,0.115,0.021,0.192,0.109C238.17,172.236,238.249,172.402,238.315,172.628L238.315,172.628L238.315,172.628
	L238.315,172.628z M237.609,172.607c-0.091,0-0.122-0.052-0.131-0.075c-0.015-0.037-0.011-0.074-0.01-0.074l0,0
	c0.015-0.004,0.03-0.006,0.045-0.006l0.003,0c0.072,0,0.128,0.039,0.153,0.077c0.005,0.008,0.02,0.034,0.007,0.054
	C237.666,172.598,237.643,172.607,237.609,172.607L237.609,172.607z M237.407,172.337c-0.051,0-0.129-0.003-0.21-0.019
	c-0.081-0.016-0.127-0.089-0.151-0.147c-0.026-0.064-0.034-0.124-0.034-0.125h0c0.251,0.008,0.369,0.085,0.425,0.149
	c0.057,0.066,0.06,0.134,0.061,0.138l0,0C237.496,172.334,237.461,172.337,237.407,172.337L237.407,172.337z M237.668,172.061
	c0,0-0.029-0.038-0.057-0.085c-0.03-0.049-0.057-0.1-0.057-0.142c0-0.04-0.009-0.125-0.014-0.172
	c-0.007-0.06-0.014-0.111-0.014-0.115l0,0c0.006,0.002,0.157,0.062,0.157,0.212C237.683,171.909,237.669,172.059,237.668,172.061
	L237.668,172.061L237.668,172.061L237.668,172.061z M237.473,172.047c-0.002,0-0.003,0-0.005,0
	c-0.045-0.008-0.123-0.044-0.209-0.096c-0.096-0.058-0.174-0.121-0.219-0.176c-0.042-0.05-0.066-0.129-0.073-0.235
	c-0.005-0.075,0.001-0.137,0.002-0.143c0.008-0.003,0.016-0.004,0.025-0.004c0.033,0.001,0.069,0.016,0.117,0.051
	c0.037,0.027,0.079,0.064,0.123,0.11c0.076,0.079,0.135,0.159,0.136,0.159l0.001,0.001c0.005,0.009,0.048,0.091,0.081,0.171
	c0.021,0.051,0.033,0.087,0.038,0.115c0.003,0.016,0.004,0.026,0,0.036c-0.002,0.004-0.004,0.008-0.007,0.009
	C237.479,172.046,237.476,172.047,237.473,172.047L237.473,172.047z"/>
<g id="use7" transform="matrix(-1,0,0,1,842.178,0)">
	<path id="branch_1_" fill="#4E5B31" d="M602.468,174.044c0.003-0.002,0.004-0.002,0.007-0.005l0.002-0.002
		c0.006-0.006,0.016-0.016,0.03-0.033c0.025-0.03,0.059-0.075,0.089-0.114c0.059-0.078,0.107-0.145,0.117-0.157l0.015-0.021
		l0.147-0.048l0.107-0.053l-0.057-0.068l-0.197,0.089l-0.147,0.032l-0.271,0.211l0,0c0.001,0.001,0.039,0.035,0.078,0.072
		c0.017,0.017,0.039,0.038,0.054,0.056c0.007,0.008,0.013,0.016,0.018,0.023c0.003,0.004,0.004,0.008,0.005,0.009l-0.017-0.011
		l-0.018,0.015l0.037,0.004L602.468,174.044L602.468,174.044z M603.475,173.723c0.128,0,0.254-0.037,0.376-0.111l0,0l0,0
		c0,0-0.016-0.032-0.054-0.062c-0.037-0.029-0.103-0.063-0.21-0.063h-0.002c-0.127,0-0.281,0.046-0.46,0.135
		C603.131,173.626,603.271,173.723,603.475,173.723L603.475,173.723L603.475,173.723z M604.03,173.593
		c0.024,0,0.045-0.009,0.06-0.027c0.012-0.014,0.021-0.033,0.027-0.058c0.01-0.04,0.007-0.081,0.007-0.084
		c-0.01-0.004-0.02-0.007-0.029-0.007l-0.002,0c-0.047,0-0.085,0.044-0.101,0.087c-0.009,0.025-0.011,0.045-0.005,0.061
		C603.991,173.581,604.009,173.593,604.03,173.593L604.03,173.593z M603.054,173.473c0.328-0.05,0.467-0.175,0.526-0.272
		c0.063-0.103,0.05-0.198,0.05-0.199l0,0l0,0c0,0-0.02-0.006-0.05-0.006C603.492,172.996,603.268,173.042,603.054,173.473
		L603.054,173.473L603.054,173.473L603.054,173.473z M603.726,173.404c0.14,0,0.247-0.026,0.317-0.076
		c0.04-0.029,0.06-0.061,0.07-0.083c0.009-0.02,0.011-0.037,0.011-0.04c-0.004-0.002-0.061-0.029-0.147-0.033
		c-0.007,0-0.015-0.001-0.022-0.001c-0.108,0-0.273,0.037-0.447,0.216l0,0l0,0C603.588,173.398,603.661,173.404,603.726,173.404
		L603.726,173.404z M604.404,173.377c0.148,0,0.351-0.048,0.477-0.182l0,0l0,0c-0.001,0-0.139-0.037-0.293-0.041
		c-0.009,0-0.018,0-0.028,0c-0.138,0-0.245,0.028-0.315,0.084c-0.025,0.02-0.038,0.038-0.041,0.056
		c-0.003,0.015,0.005,0.031,0.02,0.043c0.032,0.025,0.089,0.039,0.169,0.04L604.404,173.377L604.404,173.377z M604.883,173.117
		c0.018,0,0.035-0.009,0.047-0.023c0.01-0.012,0.016-0.028,0.021-0.05c0.008-0.037,0.005-0.073,0.005-0.073v0
		c-0.007-0.003-0.015-0.005-0.023-0.005h0c-0.022,0-0.039,0.013-0.049,0.023c-0.014,0.014-0.025,0.033-0.032,0.053
		c-0.007,0.021-0.008,0.038-0.003,0.053C604.853,173.104,604.865,173.117,604.883,173.117L604.883,173.117L604.883,173.117z
		 M603.777,173.09c0.024,0,0.045-0.009,0.06-0.027c0.012-0.014,0.021-0.033,0.027-0.058c0.01-0.04,0.007-0.081,0.007-0.084
		c-0.01-0.004-0.02-0.007-0.029-0.007l-0.002,0c-0.047,0-0.085,0.044-0.101,0.087c-0.009,0.025-0.011,0.045-0.005,0.061
		C603.739,173.079,603.757,173.09,603.777,173.09L603.777,173.09z M604.316,173.067c0.297-0.011,0.452-0.101,0.529-0.174
		c0.043-0.041,0.068-0.082,0.08-0.109c0.012-0.025,0.016-0.045,0.017-0.049l0,0c0,0-0.028-0.011-0.073-0.012l-0.007,0
		C604.761,172.724,604.557,172.768,604.316,173.067L604.316,173.067L604.316,173.067z M603.993,173.035
		c0.239-0.039,0.375-0.147,0.446-0.232c0.075-0.089,0.097-0.171,0.098-0.175c0,0-0.03-0.008-0.074-0.009c-0.003,0-0.007,0-0.01,0
		c-0.003,0-0.007,0-0.01,0C604.323,172.622,604.105,172.68,603.993,173.035L603.993,173.035L603.993,173.035z M605.221,172.913
		c0.078,0,0.154-0.01,0.226-0.029c0.125-0.033,0.179-0.084,0.202-0.12c0.013-0.021,0.018-0.039,0.019-0.051
		c0.002-0.011,0.001-0.02,0.001-0.021l-0.001,0c0,0-0.083-0.025-0.198-0.027c-0.005,0-0.009,0-0.014,0
		c-0.055,0-0.11,0.006-0.162,0.017c-0.199,0.042-0.302,0.201-0.303,0.203l0,0l0,0C604.993,172.885,605.088,172.913,605.221,172.913
		L605.221,172.913z M604.666,172.7c0.024,0,0.045-0.009,0.06-0.026c0.012-0.014,0.021-0.033,0.027-0.058
		c0.01-0.04,0.007-0.08,0.007-0.084c-0.01-0.004-0.02-0.007-0.029-0.007l-0.002,0c-0.047,0-0.085,0.044-0.101,0.087
		c-0.009,0.024-0.01,0.044-0.005,0.061C604.628,172.689,604.645,172.7,604.666,172.7L604.666,172.7z M605.083,172.639
		c0.002,0,0.113-0.031,0.226-0.105c0.105-0.068,0.233-0.189,0.248-0.377v0l0,0c0,0-0.01-0.003-0.024-0.003c-0.002,0-0.004,0-0.006,0
		c-0.031,0-0.095,0.009-0.173,0.072C605.255,172.306,605.164,172.445,605.083,172.639L605.083,172.639z M604.811,172.628
		c0.001,0,0.08-0.034,0.179-0.122c0.092-0.082,0.222-0.229,0.316-0.467c0,0-0.022-0.012-0.055-0.014c-0.002,0-0.004,0-0.006,0
		c-0.003,0-0.006,0-0.009,0c-0.046,0.001-0.115,0.021-0.192,0.109C604.956,172.236,604.877,172.402,604.811,172.628L604.811,172.628
		L604.811,172.628L604.811,172.628z M605.517,172.607c0.091,0,0.122-0.052,0.131-0.075c0.015-0.037,0.011-0.074,0.01-0.074l0,0
		c-0.015-0.004-0.03-0.006-0.045-0.006l-0.003,0c-0.072,0-0.128,0.039-0.153,0.077c-0.005,0.008-0.02,0.034-0.007,0.054
		C605.46,172.598,605.482,172.607,605.517,172.607L605.517,172.607z M605.719,172.337c0.051,0,0.129-0.003,0.21-0.019
		c0.081-0.016,0.127-0.089,0.151-0.147c0.026-0.064,0.034-0.124,0.034-0.125h0c-0.251,0.008-0.369,0.085-0.425,0.149
		c-0.057,0.066-0.06,0.134-0.061,0.138l0,0C605.629,172.334,605.665,172.337,605.719,172.337L605.719,172.337z M605.457,172.061
		c0,0,0.029-0.038,0.057-0.085c0.03-0.049,0.057-0.1,0.057-0.142c0-0.04,0.009-0.125,0.014-0.172
		c0.007-0.06,0.014-0.111,0.014-0.115l0,0c-0.006,0.002-0.157,0.062-0.157,0.212C605.443,171.909,605.457,172.059,605.457,172.061
		L605.457,172.061L605.457,172.061L605.457,172.061z M605.652,172.047c0.002,0,0.003,0,0.005,0c0.045-0.008,0.123-0.044,0.209-0.096
		c0.096-0.058,0.174-0.121,0.219-0.176c0.042-0.05,0.066-0.129,0.073-0.235c0.005-0.075-0.001-0.137-0.002-0.143
		c-0.008-0.003-0.016-0.004-0.025-0.004c-0.033,0.001-0.069,0.016-0.117,0.051c-0.037,0.027-0.079,0.064-0.123,0.11
		c-0.076,0.079-0.135,0.159-0.136,0.159l-0.001,0.001c-0.005,0.009-0.048,0.091-0.081,0.171c-0.021,0.051-0.033,0.087-0.038,0.115
		c-0.003,0.016-0.004,0.026,0,0.036c0.002,0.004,0.004,0.008,0.007,0.009C605.647,172.046,605.65,172.047,605.652,172.047
		L605.652,172.047z"/>
</g>
<path id="path9" fill="#D57800" d="M245.645,165.988l-0.044,0.019l-0.017,0.007l-0.054-0.003l-0.05,0.026l-0.09,0.065l-0.004,0.003
	l-0.033,0.009l-0.031-0.014l-0.018,0.008l-0.006,0.038l-0.017,0.028l-0.021,0.015l-0.071,0.008l-0.06,0.033l-0.078-0.022
	l-0.036,0.015l-0.077,0.074l-0.04,0.02l-0.014-0.001l-0.052-0.003l-0.022,0.008l-0.033,0.034l-0.063,0.005l-0.02,0.014l-0.031,0.065
	l-0.033,0.036l-0.019,0.004l-0.021-0.008l-0.015,0.003l-0.007,0.042l-0.015,0.017l-0.042,0.015l-0.033,0.03l-0.029,0.016
	l-0.039-0.001h-0.009l-0.039,0.023l-0.074,0.007l-0.031,0.031l-0.007,0.007l-0.014,0.009l-0.023,0.015l-0.006,0.004l-0.028-0.005
	l-0.033,0.014l-0.013-0.022l-0.023,0.015l-0.03,0.001l-0.038-0.018l-0.029-0.014l-0.021,0.003l-0.007,0.039l-0.001,0.004
	l-0.022,0.031l-0.041,0.026l-0.006,0.008l-0.047,0.064l-0.089,0.099l-0.075,0.041L243.623,167l-0.055,0.048l-0.144,0.075
	l-0.227,0.119l-0.046,0.016l-0.067,0.011l-0.119,0.046l-0.105,0.033l-0.006,0.002l-0.021,0.007l-0.148,0.047l-0.069-0.008
	l-0.041,0.016l-0.106-0.012l-0.074,0.002l-0.047,0.01l-0.088,0.044l-0.148,0.075l-0.049,0.047l-0.076,0.042l-0.089,0.03l0-0.04
	l-0.001-0.002l-0.031,0.01l-0.022,0.007l-0.072,0.012h-0.04l-0.025-0.008l-0.004,0.001l-0.148,0.052l-0.165,0.017l-0.082,0.028
	l-0.062-0.001l-0.038,0.012l-0.075,0.01l-0.027-0.008l-0.006-0.002l-0.222,0.01l-0.101-0.012l-0.048,0.012l-0.081-0.029
	l-0.118-0.015l-0.028-0.009l-0.062-0.02l-0.028,0.017l-0.021,0.002l-0.05-0.019l-0.018,0l-0.042,0.016l-0.024-0.006l-0.022-0.019
	l-0.052-0.008l-0.032-0.028l-0.178,0.025l-0.048-0.015l-0.162-0.05l-0.026,0.001l-0.032,0.025l-0.048,0.019l-0.042,0.012
	l-0.057,0.002l-0.066-0.018l-0.068-0.035l-0.025-0.006l-0.056,0.006l-0.017,0.002l-0.103-0.059l-0.133-0.088l-0.09-0.046
	l-0.034-0.006l-0.005,0.017l0.017,0.056l0.006,0.055l-0.002,0.051l-0.001,0.032l0.008,0.029l0.033,0.038l0.014,0.038l0.01,0.106
	l0,0.107l-0.016,0.171l-0.005,0.026l-0.019,0.089l-0.017,0.081l-0.067,0.217l-0.018,0.027l-0.045,0.033l-0.102,0.074l-0.075,0.046
	l-0.024,0.01l-0.061,0.005l-0.038-0.002l-0.047-0.027l-0.047-0.013l-0.061-0.046l-0.068-0.015l-0.074-0.046l-0.019-0.025
	l-0.041-0.004l-0.056-0.018l0,0l-0.021-0.007l-0.014-0.004v0l-0.072-0.002l-0.067-0.033l-0.035-0.009l-0.048-0.003l-0.05,0.025l0,0
	l-0.026,0.013l-0.032-0.014l-0.023,0.002l-0.026,0.042l-0.004,0.007l-0.018,0.01l-0.023,0l-0.018-0.001l-0.019,0.009l-0.026,0.012v0
	l-0.023,0.011l-0.011,0.005l0,0l-0.007,0.001l-0.012,0.002l-0.015,0.003l-0.027-0.016l-0.014-0.009l-0.024-0.005l-0.013,0.01
	l-0.003,0.046l-0.012,0.028l-0.037,0.035l-0.038,0.035l-0.026,0.041l-0.069,0.168l-0.043,0.068l-0.014,0.016l-0.045,0.053
	l-0.04,0.033l-0.093,0.076l-0.088,0.035l-0.076,0.016l-0.037,0l-0.07-0.01l-0.063-0.02l-0.069-0.046l-0.076-0.064l-0.109-0.114
	l-0.015-0.01l-0.003-0.002l-0.034-0.023l-0.026,0.001l-0.01,0.017l-0.005,0.025l-0.005,0.022l-0.013,0.127l0.001,0.007l0.007,0.052
	l0.083,0.123l0.026,0.065l0.004,0.007l0.017,0.031l0.013,0.023l0.001,0.002l0.028,0.09l-0.02,0.051l0.01,0.034l-0.025,0.021
	l-0.005,0.029l0.075,0.099l0.016,0.044l-0.018,0.061l-0.029,0.033l-0.008,0.009l0.004,0.026l0.034,0.033l0.058,0.055l0.031,0.082
	l0.024,0.022l0.028-0.006l0.015,0.012l0.023,0l0.023,0.024l0.015,0.008l0.023,0.012l0.018,0.025l0.004,0.078l0.034,0.097
	l0.001,0.053l0,0.007l0.021,0.039l0.007,0.031l-0.011,0.081l0.027,0.026l0.03-0.006l0.019,0.003l0.031,0.027l0.037,0.06l0.036-0.006
	l0.023,0.012l0.111,0.107l0.025,0.014l0.001,0.001l0.018,0.01l0.023,0.024l0.035-0.025l0.004,0l0.038-0.004l0.017,0.012l0.032,0.023
	l0.042-0.001l0.092,0.03l0.04,0.011l0.08,0.053l0.034,0.022l0.02,0.017l0.027,0.023l0.054,0.024l0.046,0.012l0.025,0.006
	l0.019,0.008l0-0.001l0,0l0,0.001l0.1,0.04l0.054,0.013l0.05,0.02l0.036,0.014l0.027,0l0.038-0.034l0.037-0.002l0.03,0.008
	l0.03-0.005l0.047-0.031l0.009-0.014l0.033-0.017l0.112-0.015l0.033,0.011l0.084-0.039l0.056,0.017l0.05-0.019l0.109,0.026
	l0.029,0.022l0.032,0.039l0.004,0l0.036,0.001l-0.015,0.027l0.048,0.053l0.043,0.069l0.003,0.009l0.031,0.097l0.023,0.034
	l0.016,0.048l0.001,0.031l-0.025,0.02l-0.004,0.012l-0.001,0.004l0.005,0.013l0.01-0.005l0.018-0.011l0.022-0.004l0.039,0.004
	l0.026,0.003l0.041-0.021l0.027-0.014l0.043,0.02l0.048-0.001l0.02,0.009l0.057,0.027l0.029,0.003l0.011-0.007l0.007-0.017
	l-0.003-0.02l-0.022-0.026l-0.048-0.059l-0.02-0.03l-0.015-0.044l-0.005-0.056l-0.003-0.038l0.006-0.05l0.013-0.018l0.009-0.039h0
	l0.002-0.01l0.027-0.037l0.07-0.048l0.076-0.072l0.06-0.042l0.062-0.028l0.002-0.008l0.007,0.003l0.157-0.056l0.003,0l0.07-0.013
	l0.471,0.035l0.017-0.006l0,0l0.016-0.047l0.008-0.009l0.006-0.006l0.052-0.024l0.024-0.004l0.067,0.018l0.028,0.007l0.044-0.026
	l0.031,0.001l0.065-0.037l0.04,0.001l0.015-0.006l0.078-0.059l0.075-0.023l0.019-0.011l0.007-0.004l0.077-0.043l0.049-0.04
	l0.042-0.024l0.046-0.013l0.12-0.009l0.024-0.043l0.052-0.007l0.031-0.037l0.036-0.015l0.026-0.039l0.022-0.033l0.03-0.018
	l0.096-0.006l0.114,0.015l0.015-0.01l0.026-0.098l0.027-0.018l0.073-0.112l0-0.041l0-0.034l0.012-0.049l-0.008-0.088l0.01-0.089
	l0.045-0.113l0.04-0.046l0.064-0.046l0.033-0.015l0.046-0.008v0l0.007-0.001l0.012-0.002l0.159-0.002
	c0.002-0.002,0.058-0.001,0.058-0.001l0.053-0.001l0.134,0.025l0.01,0.002l0.045,0.016l0.052,0.043l0.055,0.057l0.01,0.011
	l0.036,0.016l0.011,0.005l0.03-0.005l0.042-0.023l0.032-0.029l0.043-0.025l0.001-0.002l0.024-0.039l0.001-0.001l0.001,0l0,0l0,0
	l0.01-0.015l0.084-0.035l0.099-0.006l0.011-0.006l0.006-0.003l0.026-0.032l0.024,0l0.059,0.023l0.042-0.009l0.033,0.014l0.026-0.003
	l0.048-0.006l0.052,0.039l0.03,0.004l0.107,0.066l0.006,0.001l0.003,0.001l0.006,0.001l0.013-0.004l0.019-0.006l0.003-0.001
	l0.002,0.003l0.012,0.018l0.017,0.003l0.02-0.028l-0.008-0.013l-0.003-0.005l-0.038-0.008l-0.034-0.062l0.033-0.037l-0.051-0.067
	l-0.008-0.011l-0.003-0.005l-0.018-0.028l-0.09-0.145l-0.117-0.099l0,0l-0.041-0.035l0,0l-0.014-0.012l-0.062-0.067l-0.045-0.063
	l-0.006-0.013l-0.009-0.021l-0.027-0.062l-0.046-0.038l-0.038-0.044l-0.002-0.003l-0.078-0.113l-0.013-0.019l-0.018-0.011l-0.039,0
	l-0.004-0.004l-0.002-0.002l0.001-0.001l0.019-0.02l0.021-0.006l0.009-0.022l-0.04-0.122l0-0.004l-0.003-0.039l0.032-0.177
	l0.004-0.022l0.055-0.119l0.034-0.03l0.037-0.078l0.032-0.05l0.031-0.032l0.005-0.003l0.055-0.036l0.047-0.007l0.044-0.007
	l0.077,0.025l0.074-0.002l0.014-0.002l0.033-0.004l0.055-0.018l0.026-0.017l0.013-0.022l0.028-0.1l0.009-0.032l0.017-0.034
	l0.1-0.122l0.076-0.074l0.17-0.132l0.083-0.053l0.043-0.027l0.38-0.179l0.099-0.106l0.051-0.055l0.091-0.065l0.107-0.046
	l0.092-0.077l0.02-0.027l0.025-0.086l0.021-0.005l0.019-0.044l0.005-0.012l0.075-0.056l0.008-0.004l0.291-0.154l0.042,0.006
	l0.023-0.036l0.085-0.015l0.016-0.003l0.021-0.011l0.018-0.032v-0.006l0.002-0.085l0.018-0.023l0.01-0.056l0.009-0.013l0.01-0.014
	l0.024-0.018L245.645,165.988L245.645,165.988z"/>
</svg>
