<?xml version="1.0" encoding="utf-8"?>
<!-- Generator: Adobe Illustrator 17.0.0, SVG Export Plug-In . SVG Version: 6.00 Build 0)  -->
<!DOCTYPE svg PUBLIC "-//W3C//DTD SVG 1.1//EN" "http://www.w3.org/Graphics/SVG/1.1/DTD/svg11.dtd">
<svg version="1.1" id="Слой_1" xmlns="http://www.w3.org/2000/svg" xmlns:xlink="http://www.w3.org/1999/xlink" x="0px" y="0px"
	 width="17px" height="12px" viewBox="232.445 164.078 17 12" enable-background="new 232.445 164.078 17 12" xml:space="preserve">
<rect x="232.445" y="164.078" fill-rule="evenodd" clip-rule="evenodd" fill="#B82025" width="17" height="12"/>
<g>
	<path fill-rule="evenodd" clip-rule="evenodd" fill="#FDD042" d="M241.125,167.765c0.023-0.102,0.051-0.317,0.036-0.403
		c-0.018-0.11-0.045-0.309,0.05-0.487c0.095-0.177,0.168-0.311,0.168-0.311s-0.008,0.342,0.055,0.506
		c0.061,0.16,0.08,0.482,0.02,0.718l0.047,0.009c0.039-0.099,0.098-0.302,0.098-0.387c-0.001-0.112,0.005-0.312,0.126-0.473
		c0.121-0.161,0.215-0.281,0.215-0.281s-0.061,0.337-0.025,0.508c0.035,0.166,0.004,0.484-0.091,0.707l0.052,0.017
		c0.054-0.093,0.142-0.279,0.154-0.362c0.017-0.11,0.054-0.308,0.199-0.448c0.145-0.14,0.257-0.244,0.257-0.244
		s-0.113,0.323-0.105,0.498c0.008,0.169-0.072,0.476-0.2,0.682l0.049,0.024c0.068-0.085,0.181-0.251,0.206-0.33
		c0.034-0.106,0.101-0.296,0.267-0.411c0.165-0.115,0.292-0.201,0.292-0.201s-0.163,0.302-0.182,0.476
		c-0.018,0.167-0.144,0.456-0.302,0.639l0.037,0.027c0.081-0.074,0.218-0.219,0.255-0.293c0.05-0.1,0.147-0.276,0.328-0.365
		c0.181-0.088,0.32-0.153,0.32-0.153s-0.208,0.272-0.255,0.441c-0.044,0.162-0.214,0.427-0.398,0.584l0.032,0.031
		c0.091-0.06,0.249-0.183,0.298-0.25c0.065-0.091,0.188-0.25,0.381-0.309c0.193-0.059,0.34-0.102,0.34-0.102
		s-0.249,0.237-0.321,0.396c-0.069,0.153-0.278,0.389-0.485,0.515l0.028,0.042c0.097-0.043,0.284-0.144,0.344-0.205
		c0.079-0.079,0.225-0.218,0.425-0.246c0.2-0.028,0.352-0.048,0.352-0.048s-0.283,0.195-0.379,0.341
		c-0.094,0.143-0.344,0.348-0.572,0.438l0.023,0.044c0.1-0.025,0.31-0.099,0.382-0.152c0.09-0.066,0.257-0.18,0.459-0.177
		c0.202,0.003,0.355,0.008,0.355,0.008s-0.31,0.149-0.428,0.278c-0.118,0.129-0.404,0.295-0.645,0.346l0.019,0.045
		c0.098-0.007,0.328-0.049,0.41-0.091c0.099-0.051,0.282-0.138,0.481-0.103c0.199,0.035,0.35,0.063,0.35,0.063
		s-0.33,0.099-0.467,0.208c-0.137,0.11-0.449,0.23-0.696,0.242l0.004,0.049c0.086,0.01,0.341,0.006,0.433-0.025
		c0.106-0.035,0.3-0.092,0.491-0.027c0.191,0.065,0.336,0.117,0.336,0.117s-0.341,0.046-0.494,0.133
		c-0.153,0.087-0.48,0.157-0.726,0.13l-0.021,0.056c0.09,0.023,0.332,0.057,0.425,0.041c0.111-0.018,0.311-0.044,0.489,0.05
		c0.178,0.094,0.313,0.168,0.313,0.168s-0.344-0.008-0.509,0.054c-0.165,0.062-0.499,0.081-0.737,0.016l-0.014,0.036
		c0.1,0.038,0.301,0.097,0.387,0.096c0.112-0.001,0.314,0.004,0.475,0.125c0.161,0.121,0.283,0.214,0.283,0.214
		s-0.339-0.061-0.511-0.025c-0.168,0.035-0.49,0.004-0.715-0.092l-0.023,0.06c0.097,0.054,0.271,0.134,0.351,0.146
		c0.111,0.017,0.309,0.053,0.45,0.198c0.14,0.144,0.246,0.256,0.246,0.256s-0.325-0.113-0.501-0.105
		c-0.167,0.008-0.469-0.069-0.675-0.192l-0.022,0.041c0.09,0.068,0.235,0.164,0.307,0.186c0.107,0.034,0.297,0.101,0.413,0.265
		c0.116,0.164,0.203,0.291,0.203,0.291s-0.303-0.162-0.478-0.181c-0.164-0.018-0.436-0.139-0.621-0.29l-0.027,0.035
		c0.072,0.079,0.23,0.223,0.307,0.261c0.1,0.05,0.278,0.146,0.366,0.326c0.089,0.18,0.154,0.318,0.154,0.318
		s-0.274-0.207-0.444-0.253c-0.167-0.045-0.442-0.22-0.598-0.409l-0.04,0.046c0.049,0.081,0.19,0.272,0.266,0.326
		c0.091,0.065,0.251,0.187,0.311,0.379c0.059,0.192,0.102,0.339,0.102,0.339s-0.238-0.247-0.398-0.319
		c-0.16-0.072-0.414-0.31-0.536-0.523l-0.043,0.03c0.038,0.091,0.154,0.295,0.219,0.359c0.08,0.078,0.219,0.224,0.247,0.423
		c0.028,0.199,0.048,0.35,0.048,0.35s-0.196-0.281-0.343-0.377c-0.147-0.096-0.359-0.354-0.446-0.584l-0.048,0.018
		c0.024,0.097,0.098,0.312,0.152,0.384c0.067,0.09,0.181,0.255,0.178,0.456c-0.003,0.201-0.008,0.353-0.008,0.353
		s-0.149-0.308-0.28-0.426c-0.13-0.118-0.299-0.406-0.349-0.646l-0.037,0.007c0.007,0.097,0.045,0.327,0.088,0.408
		c0.052,0.099,0.139,0.28,0.104,0.478c-0.035,0.198-0.063,0.348-0.063,0.348s-0.099-0.328-0.209-0.464
		c-0.11-0.137-0.231-0.447-0.243-0.693l-0.037-0.002c-0.008,0.095-0.007,0.333,0.022,0.421c0.035,0.106,0.093,0.299,0.027,0.488
		c-0.065,0.19-0.117,0.334-0.117,0.334s-0.046-0.339-0.134-0.491c-0.087-0.152-0.158-0.478-0.131-0.722l-0.042-0.011
		c-0.023,0.09-0.061,0.33-0.045,0.423c0.018,0.11,0.045,0.309-0.05,0.487c-0.095,0.177-0.168,0.311-0.168,0.311
		s0.008-0.342-0.055-0.506c-0.062-0.164-0.081-0.496-0.016-0.733l-0.045-0.02c-0.037,0.085-0.112,0.318-0.111,0.412
		c0.001,0.112-0.005,0.312-0.126,0.473c-0.121,0.161-0.215,0.281-0.215,0.281s0.061-0.337,0.025-0.508
		c-0.036-0.171-0.002-0.503,0.1-0.727l-0.039-0.031c-0.049,0.074-0.163,0.3-0.177,0.394c-0.017,0.11-0.054,0.308-0.199,0.448
		c-0.145,0.14-0.257,0.244-0.257,0.244s0.114-0.323,0.105-0.498c-0.008-0.175,0.077-0.497,0.213-0.702l-0.032-0.039
		c-0.059,0.064-0.21,0.272-0.239,0.364c-0.034,0.106-0.101,0.296-0.267,0.411c-0.165,0.115-0.292,0.201-0.292,0.201
		s0.163-0.302,0.182-0.476c0.019-0.174,0.154-0.479,0.321-0.66l-0.021-0.048c-0.067,0.052-0.251,0.237-0.295,0.324
		c-0.05,0.1-0.147,0.276-0.328,0.365c-0.181,0.088-0.32,0.153-0.32,0.153s0.208-0.272,0.255-0.441
		c0.046-0.169,0.228-0.449,0.421-0.603l-0.004-0.037c-0.074,0.041-0.285,0.196-0.342,0.275c-0.065,0.091-0.188,0.25-0.381,0.309
		c-0.193,0.059-0.34,0.102-0.34,0.102s0.249-0.237,0.321-0.396c0.072-0.16,0.295-0.408,0.51-0.53l-0.005-0.034
		c-0.086,0.034-0.307,0.149-0.373,0.216c-0.079,0.08-0.225,0.218-0.425,0.246c-0.2,0.028-0.352,0.048-0.352,0.048
		s0.283-0.195,0.379-0.341c0.096-0.146,0.353-0.355,0.583-0.442l0.004-0.037c-0.09,0.02-0.327,0.1-0.403,0.156
		c-0.09,0.066-0.257,0.18-0.459,0.177c-0.202-0.003-0.355-0.008-0.355-0.008s0.31-0.149,0.428-0.278
		c0.118-0.13,0.408-0.297,0.65-0.347l0.016-0.036c-0.083,0.003-0.345,0.047-0.432,0.092c-0.1,0.051-0.282,0.138-0.481,0.103
		c-0.199-0.035-0.35-0.063-0.35-0.063s0.33-0.099,0.467-0.208c0.137-0.11,0.449-0.23,0.696-0.242l0.017-0.033
		c-0.086-0.01-0.346-0.006-0.438,0.025c-0.106,0.035-0.3,0.092-0.491,0.027s-0.336-0.117-0.336-0.117s0.341-0.046,0.494-0.133
		c0.153-0.087,0.48-0.157,0.726-0.13l0.023-0.035c-0.073-0.023-0.344-0.062-0.443-0.046c-0.111,0.018-0.311,0.044-0.489-0.05
		c-0.178-0.094-0.313-0.167-0.313-0.167s0.344,0.007,0.509-0.054c0.165-0.062,0.499-0.081,0.737-0.016l0.023-0.034
		c-0.076-0.035-0.327-0.112-0.425-0.111c-0.112,0.001-0.314-0.005-0.475-0.125c-0.161-0.121-0.283-0.214-0.283-0.214
		s0.339,0.061,0.511,0.025c0.172-0.036,0.506-0.002,0.731,0.099l0.024-0.033c-0.072-0.048-0.303-0.158-0.398-0.173
		c-0.111-0.017-0.309-0.053-0.45-0.198c-0.14-0.144-0.246-0.255-0.246-0.255s0.325,0.113,0.501,0.104
		c0.176-0.008,0.5,0.077,0.706,0.212l0.028-0.029c-0.065-0.059-0.273-0.204-0.365-0.233c-0.107-0.034-0.297-0.101-0.413-0.265
		c-0.116-0.164-0.202-0.291-0.202-0.291s0.303,0.162,0.478,0.181c0.175,0.019,0.481,0.153,0.664,0.319l0.03-0.027
		c-0.058-0.07-0.236-0.242-0.321-0.284c-0.1-0.05-0.278-0.146-0.366-0.326c-0.089-0.18-0.154-0.319-0.154-0.319
		s0.274,0.207,0.444,0.253c0.17,0.046,0.451,0.226,0.606,0.418l0.03-0.027c-0.048-0.081-0.195-0.273-0.271-0.327
		c-0.091-0.065-0.251-0.187-0.311-0.379c-0.059-0.192-0.102-0.339-0.102-0.339s0.238,0.247,0.398,0.319
		c0.16,0.072,0.41,0.294,0.532,0.507l0.042-0.033c-0.035-0.087-0.149-0.3-0.216-0.365c-0.08-0.078-0.219-0.224-0.247-0.423
		c-0.028-0.199-0.048-0.35-0.048-0.35s0.196,0.281,0.343,0.377c0.147,0.096,0.359,0.354,0.446,0.584l0.046-0.025
		c-0.021-0.092-0.1-0.319-0.156-0.393c-0.067-0.09-0.181-0.255-0.178-0.456c0.003-0.201,0.008-0.353,0.008-0.353
		s0.149,0.308,0.28,0.426c0.13,0.118,0.299,0.406,0.349,0.646l0.036-0.01c-0.004-0.087-0.046-0.337-0.091-0.422
		c-0.052-0.099-0.139-0.28-0.104-0.478c0.035-0.198,0.063-0.348,0.063-0.348s0.099,0.328,0.209,0.464
		c0.11,0.136,0.231,0.445,0.243,0.69l0.044,0.001c0.011-0.079,0.007-0.344-0.024-0.438c-0.035-0.106-0.093-0.299-0.027-0.488
		c0.066-0.19,0.117-0.334,0.117-0.334s0.046,0.339,0.134,0.491c0.087,0.152,0.158,0.478,0.131,0.722L241.125,167.765z"/>
	<path fill="#B82025" d="M242.323,169.02c0,0-0.093,0.011-0.241,0.061c-1.032,0.353-1.596,1.422-1.833,2.418l-0.115-0.027
		c0.248-1.039,0.838-2.135,1.91-2.502c0.163-0.056,0.266-0.067,0.266-0.067L242.323,169.02z"/>
	<path fill="#B82025" d="M241.036,169.308c0.033-0.025,0.067-0.049,0.101-0.073c-0.036-0.022-0.072-0.042-0.109-0.063
		c-0.034,0.02-0.068,0.041-0.102,0.063C240.963,169.258,240.999,169.283,241.036,169.308z M240.854,169.457
		c0.028-0.025,0.057-0.05,0.087-0.074c-0.039-0.027-0.078-0.053-0.119-0.077c-0.028,0.02-0.055,0.04-0.083,0.06
		C240.777,169.394,240.816,169.424,240.854,169.457z M242.249,168.903c0,0-0.107,0.012-0.276,0.062
		c-0.223,0.066-0.43,0.158-0.62,0.271c0.489,0.332,0.984,0.865,1.226,1.709l-0.113,0.032c-0.207-0.722-0.64-1.29-1.22-1.673
		c-0.038,0.025-0.075,0.051-0.111,0.077c0.463,0.356,0.942,0.938,1.209,1.887l-0.114,0.032c-0.208-0.74-0.606-1.403-1.19-1.846
		c-0.033,0.026-0.065,0.053-0.097,0.081c0.406,0.375,0.824,0.987,1.062,1.985l-0.115,0.027c-0.167-0.7-0.495-1.436-1.033-1.934
		c-0.454,0.431-0.77,1.007-0.948,1.64l-0.114-0.032c0.183-0.65,0.508-1.242,0.973-1.686c-0.04-0.033-0.081-0.066-0.122-0.096
		c-0.456,0.373-0.796,0.876-0.973,1.492l-0.114-0.032c0.18-0.627,0.525-1.144,0.986-1.529c-0.15-0.098-0.313-0.18-0.489-0.24
		c-0.148-0.051-0.241-0.061-0.241-0.061l0.013-0.117c0.007,0.001,0.37,0.043,0.81,0.343l0.071-0.053
		c-0.169-0.094-0.351-0.17-0.545-0.228c-0.169-0.05-0.276-0.062-0.276-0.062l0.013-0.117c0.004,0,0.415,0.046,0.913,0.334
		c0.03-0.02,0.06-0.039,0.091-0.058c-0.184-0.091-0.378-0.166-0.582-0.224c-0.185-0.052-0.302-0.068-0.302-0.068l0.015-0.117
		c0.004,0,0.455,0.059,0.988,0.338c0.235-0.132,0.489-0.237,0.758-0.314c0.195-0.055,0.319-0.071,0.319-0.071l0.015,0.117
		c0,0-0.117,0.015-0.302,0.068c-0.236,0.067-0.46,0.157-0.669,0.268c0.032,0.019,0.065,0.038,0.098,0.059
		c0.211-0.132,0.443-0.238,0.695-0.313c0.182-0.054,0.297-0.066,0.297-0.066L242.249,168.903z"/>
	<path fill="#B82025" d="M239.464,170.116c0,0.888,0.724,1.608,1.616,1.608c0.893,0,1.616-0.72,1.616-1.608
		s-0.724-1.608-1.616-1.608C240.187,168.508,239.464,169.228,239.464,170.116z M239.082,170.227c0-1.098,0.894-1.987,1.998-1.987
		c1.103,0,1.998,0.89,1.998,1.987c0,1.098-0.894,1.987-1.998,1.987C239.977,172.214,239.082,171.325,239.082,170.227z"/>
</g>
</svg>
