<?xml version="1.0" encoding="utf-8"?>
<!-- Generator: Adobe Illustrator 17.0.0, SVG Export Plug-In . SVG Version: 6.00 Build 0)  -->
<!DOCTYPE svg PUBLIC "-//W3C//DTD SVG 1.1//EN" "http://www.w3.org/Graphics/SVG/1.1/DTD/svg11.dtd">
<svg version="1.1" id="Слой_1" xmlns="http://www.w3.org/2000/svg" xmlns:xlink="http://www.w3.org/1999/xlink" x="0px" y="0px"
	 width="17px" height="12px" viewBox="232.445 164.078 17 12" enable-background="new 232.445 164.078 17 12" xml:space="preserve">
<g>
	<polygon fill-rule="evenodd" clip-rule="evenodd" fill="#00ADEE" points="249.494,176.078 249.494,164.078 232.494,164.078 
		232.494,176.078 249.494,176.078 	"/>
	<path fill-rule="evenodd" clip-rule="evenodd" fill="#FFF100" d="M233.437,166.607c-0.13,0.087-0.307-0.056-0.307-0.056
		c-0.088-0.107-0.042-0.27-0.042-0.27s0.054-0.087,0.119-0.198c0.041-0.069-0.069-0.175-0.069-0.175
		c0.061,0.024,0.138,0.071,0.161,0.135c0.023,0.064-0.031,0.159-0.031,0.159s0.054,0.008,0.1,0.032
		c0.046,0.024,0.05,0.052,0.065,0.091c0.015,0.04,0.012,0.119-0.073,0.147c-0.073,0.024-0.107-0.032-0.13-0.087
		c-0.023-0.056,0.061,0.056,0.092-0.008c0.015-0.032-0.008-0.063-0.008-0.063c-0.023-0.024-0.077-0.04-0.123,0.048
		c-0.046,0.087,0.069,0.194,0.169,0.175c0.201-0.04,0.131-0.246,0.131-0.246s-0.146-0.262-0.154-0.365
		c-0.008-0.103,0.061-0.119,0.131-0.103c0.09,0.021,0.093,0.095,0.093,0.095v0.111c0,0-0.016-0.111-0.054-0.119
		c-0.038-0.008-0.1,0.016-0.077,0.087c0.023,0.071,0.107,0.238,0.131,0.294C233.583,166.345,233.603,166.496,233.437,166.607
		L233.437,166.607z"/>
	<path fill-rule="evenodd" clip-rule="evenodd" fill="#FFF100" d="M233.684,166.607c0.131,0.087,0.307-0.056,0.307-0.056
		c0.088-0.107,0.042-0.27,0.042-0.27s-0.054-0.087-0.119-0.198c-0.041-0.069,0.069-0.175,0.069-0.175
		c-0.061,0.024-0.138,0.071-0.161,0.135c-0.023,0.064,0.031,0.159,0.031,0.159s-0.054,0.008-0.1,0.032
		c-0.046,0.024-0.05,0.052-0.065,0.091c-0.015,0.04-0.012,0.119,0.073,0.147c0.073,0.024,0.107-0.032,0.13-0.087
		c0.023-0.056-0.061,0.056-0.092-0.008c-0.015-0.032,0.008-0.063,0.008-0.063c0.023-0.024,0.077-0.04,0.123,0.048
		c0.046,0.087-0.069,0.194-0.169,0.175c-0.201-0.04-0.13-0.246-0.13-0.246s0.146-0.262,0.154-0.365
		c0.008-0.103-0.061-0.119-0.13-0.103c-0.09,0.021-0.093,0.095-0.093,0.095v0.111c0,0,0.016-0.111,0.054-0.119
		c0.038-0.008,0.1,0.016,0.077,0.087c-0.023,0.071-0.107,0.238-0.13,0.294C233.538,166.345,233.518,166.496,233.684,166.607
		L233.684,166.607z"/>
	<path fill-rule="evenodd" clip-rule="evenodd" fill="#FFF100" d="M233.437,173.578c-0.13-0.087-0.307,0.056-0.307,0.056
		c-0.088,0.107-0.042,0.27-0.042,0.27s0.054,0.087,0.119,0.198c0.041,0.069-0.069,0.175-0.069,0.175
		c0.061-0.024,0.138-0.071,0.161-0.135c0.023-0.064-0.031-0.159-0.031-0.159s0.054-0.008,0.1-0.032
		c0.046-0.024,0.05-0.052,0.065-0.091c0.015-0.04,0.012-0.119-0.073-0.147c-0.073-0.024-0.107,0.032-0.13,0.087
		c-0.023,0.056,0.061-0.056,0.092,0.008c0.015,0.032-0.008,0.063-0.008,0.063c-0.023,0.024-0.077,0.04-0.123-0.048
		c-0.046-0.087,0.069-0.194,0.169-0.175c0.201,0.04,0.131,0.246,0.131,0.246s-0.146,0.262-0.154,0.365
		c-0.008,0.103,0.061,0.119,0.131,0.103c0.09-0.021,0.093-0.095,0.093-0.095v-0.111c0,0-0.016,0.111-0.054,0.119
		c-0.038,0.008-0.1-0.016-0.077-0.087c0.023-0.071,0.107-0.238,0.131-0.294C233.583,173.84,233.603,173.689,233.437,173.578
		L233.437,173.578z"/>
	<path fill-rule="evenodd" clip-rule="evenodd" fill="#FFF100" d="M233.684,173.578c0.131-0.087,0.307,0.056,0.307,0.056
		c0.088,0.107,0.042,0.27,0.042,0.27s-0.054,0.087-0.119,0.198c-0.041,0.069,0.069,0.175,0.069,0.175
		c-0.061-0.024-0.138-0.071-0.161-0.135c-0.023-0.064,0.031-0.159,0.031-0.159s-0.054-0.008-0.1-0.032
		c-0.046-0.024-0.05-0.052-0.065-0.091c-0.015-0.04-0.012-0.119,0.073-0.147c0.073-0.024,0.107,0.032,0.13,0.087
		c0.023,0.056-0.061-0.056-0.092,0.008c-0.015,0.032,0.008,0.063,0.008,0.063c0.023,0.024,0.077,0.04,0.123-0.048
		c0.046-0.087-0.069-0.194-0.169-0.175c-0.201,0.04-0.13,0.246-0.13,0.246s0.146,0.262,0.154,0.365
		c0.008,0.103-0.061,0.119-0.13,0.103c-0.09-0.021-0.093-0.095-0.093-0.095v-0.111c0,0,0.016,0.111,0.054,0.119
		s0.1-0.016,0.077-0.087c-0.023-0.071-0.107-0.238-0.13-0.294C233.538,173.84,233.518,173.689,233.684,173.578L233.684,173.578z"/>
	<path fill-rule="evenodd" clip-rule="evenodd" fill="#FFF100" d="M233.571,167.41c0.069-0.004,0.046,0.258,0.046,0.258
		c0.038-0.024,0.123-0.02,0.157,0.024c0.035,0.044-0.046,0.095-0.046,0.095c0.004-0.056-0.023-0.079-0.077-0.032
		c-0.054,0.048-0.004,0.222-0.004,0.222c0.046-0.036,0.123,0.008,0.123,0.008c0.008-0.02,0.046-0.123,0.035-0.087
		c-0.012,0.036,0.011,0.095,0.011,0.095s-0.008-0.02,0.027-0.02c0.035,0,0.046,0.056,0.015,0.075
		c-0.031,0.02-0.046-0.024-0.046-0.024c-0.023,0.012-0.027,0.115-0.027,0.099s-0.019-0.091-0.061-0.107
		c-0.042-0.016-0.073,0.024-0.077,0.06c-0.004,0.036-0.012,0.159,0.192,0.167c0.203,0.008,0.134-0.214,0.134-0.214
		s-0.142-0.421-0.196-0.528c-0.054-0.107-0.192-0.519-0.192-0.519c-0.023-0.056-0.043-0.206,0.123-0.317
		c0.131-0.087,0.307,0.056,0.307,0.056c0.088,0.107,0.042,0.27,0.042,0.27s-0.054,0.087-0.119,0.198
		c-0.041,0.069,0.069,0.175,0.069,0.175c-0.061-0.024-0.138-0.071-0.161-0.135c-0.023-0.063,0.031-0.159,0.031-0.159
		s-0.054-0.008-0.1-0.032c-0.046-0.024-0.05-0.052-0.065-0.091s-0.012-0.119,0.073-0.147c0.073-0.024,0.107,0.032,0.131,0.087
		c0.023,0.056-0.061-0.056-0.092,0.008c-0.015,0.032,0.008,0.063,0.008,0.063c0.023,0.024,0.077,0.04,0.123-0.048
		c0.046-0.087-0.069-0.194-0.169-0.175c-0.201,0.04-0.13,0.246-0.13,0.246s0.368,0.844,0.415,1.007
		c0.046,0.163,0.019,0.302-0.084,0.345c-0.104,0.044-0.358,0.06-0.412-0.095c-0.054,0.155-0.309,0.139-0.412,0.095
		c-0.104-0.044-0.13-0.183-0.084-0.345c0.046-0.163,0.415-1.007,0.415-1.007s0.071-0.206-0.131-0.246
		c-0.1-0.02-0.215,0.087-0.169,0.175s0.1,0.071,0.123,0.048c0,0,0.023-0.032,0.008-0.063c-0.031-0.064-0.115,0.048-0.092-0.008
		c0.023-0.056,0.058-0.111,0.13-0.087c0.085,0.028,0.088,0.107,0.073,0.147s-0.019,0.067-0.065,0.091
		c-0.046,0.024-0.1,0.032-0.1,0.032s0.054,0.095,0.031,0.159c-0.023,0.064-0.1,0.111-0.161,0.135c0,0,0.11-0.105,0.069-0.175
		c-0.065-0.111-0.119-0.198-0.119-0.198s-0.046-0.163,0.042-0.27c0,0,0.177-0.143,0.307-0.056c0.166,0.111,0.146,0.262,0.123,0.317
		c0,0-0.138,0.411-0.192,0.519c-0.054,0.107-0.196,0.528-0.196,0.528s-0.069,0.222,0.134,0.214c0.203-0.008,0.196-0.131,0.192-0.167
		c-0.004-0.036-0.035-0.075-0.077-0.06c-0.042,0.016-0.061,0.091-0.061,0.107s-0.004-0.087-0.027-0.099c0,0-0.015,0.044-0.046,0.024
		c-0.031-0.02-0.019-0.075,0.015-0.075c0.035,0,0.027,0.02,0.027,0.02s0.023-0.06,0.012-0.095c-0.012-0.036,0.027,0.067,0.035,0.087
		c0,0,0.077-0.044,0.123-0.008c0,0,0.05-0.175-0.004-0.222s-0.081-0.024-0.077,0.032c0,0-0.081-0.052-0.046-0.095
		c0.035-0.044,0.119-0.048,0.157-0.024c0,0-0.023-0.262,0.046-0.258H233.571L233.571,167.41z"/>
	<path fill-rule="evenodd" clip-rule="evenodd" fill="#FFF100" d="M233.571,170.863c0.069-0.004,0.046,0.258,0.046,0.258
		c0.038-0.024,0.123-0.02,0.157,0.024c0.035,0.044-0.046,0.095-0.046,0.095c0.004-0.056-0.023-0.079-0.077-0.032
		c-0.054,0.048-0.004,0.222-0.004,0.222c0.046-0.036,0.123,0.008,0.123,0.008c0.008-0.02,0.046-0.123,0.035-0.087
		c-0.012,0.036,0.011,0.095,0.011,0.095s-0.008-0.02,0.027-0.02c0.035,0,0.046,0.056,0.015,0.075
		c-0.031,0.02-0.046-0.024-0.046-0.024c-0.023,0.012-0.027,0.115-0.027,0.099c0-0.016-0.019-0.091-0.061-0.107
		c-0.042-0.016-0.073,0.024-0.077,0.06c-0.004,0.036-0.012,0.159,0.192,0.167c0.203,0.008,0.134-0.214,0.134-0.214
		s-0.142-0.421-0.196-0.528c-0.054-0.107-0.192-0.519-0.192-0.519c-0.023-0.056-0.043-0.206,0.123-0.317
		c0.131-0.087,0.307,0.056,0.307,0.056c0.088,0.107,0.042,0.27,0.042,0.27s-0.054,0.087-0.119,0.198
		c-0.041,0.069,0.069,0.175,0.069,0.175c-0.061-0.024-0.138-0.071-0.161-0.135c-0.023-0.064,0.031-0.159,0.031-0.159
		s-0.054-0.008-0.1-0.032c-0.046-0.024-0.05-0.052-0.065-0.091s-0.012-0.119,0.073-0.147c0.073-0.024,0.107,0.032,0.131,0.087
		c0.023,0.056-0.061-0.056-0.092,0.008c-0.015,0.032,0.008,0.063,0.008,0.063c0.023,0.024,0.077,0.04,0.123-0.048
		c0.046-0.087-0.069-0.194-0.169-0.175c-0.201,0.04-0.13,0.246-0.13,0.246s0.368,0.844,0.415,1.007
		c0.046,0.163,0.019,0.302-0.084,0.345c-0.104,0.044-0.358,0.06-0.412-0.095c-0.054,0.155-0.309,0.139-0.412,0.095
		c-0.104-0.044-0.13-0.183-0.084-0.345c0.046-0.163,0.415-1.007,0.415-1.007s0.071-0.206-0.131-0.246
		c-0.1-0.02-0.215,0.087-0.169,0.175s0.1,0.071,0.123,0.048c0,0,0.023-0.032,0.008-0.063c-0.031-0.064-0.115,0.048-0.092-0.008
		c0.023-0.056,0.058-0.111,0.13-0.087c0.085,0.028,0.088,0.107,0.073,0.147s-0.019,0.067-0.065,0.091
		c-0.046,0.024-0.1,0.032-0.1,0.032s0.054,0.095,0.031,0.159c-0.023,0.063-0.1,0.111-0.161,0.135c0,0,0.11-0.105,0.069-0.175
		c-0.065-0.111-0.119-0.198-0.119-0.198s-0.046-0.163,0.042-0.27c0,0,0.177-0.143,0.307-0.056c0.166,0.111,0.146,0.262,0.123,0.317
		c0,0-0.138,0.411-0.192,0.519c-0.054,0.107-0.196,0.528-0.196,0.528s-0.069,0.222,0.134,0.214c0.203-0.008,0.196-0.131,0.192-0.167
		c-0.004-0.036-0.035-0.075-0.077-0.06c-0.042,0.016-0.061,0.091-0.061,0.107c0,0.016-0.004-0.087-0.027-0.099
		c0,0-0.015,0.044-0.046,0.024c-0.031-0.02-0.019-0.075,0.015-0.075c0.035,0,0.027,0.02,0.027,0.02s0.023-0.06,0.012-0.095
		c-0.012-0.036,0.027,0.068,0.035,0.087c0,0,0.077-0.044,0.123-0.008c0,0,0.05-0.175-0.004-0.222s-0.081-0.024-0.077,0.032
		c0,0-0.081-0.052-0.046-0.095c0.035-0.044,0.119-0.048,0.157-0.024c0,0-0.023-0.262,0.046-0.258H233.571L233.571,170.863z"/>
	<path fill-rule="evenodd" clip-rule="evenodd" fill="#FFF100" d="M233.571,169.299c0.069,0.004,0.046-0.258,0.046-0.258
		c0.038,0.024,0.123,0.02,0.157-0.024c0.035-0.044-0.046-0.095-0.046-0.095c0.004,0.056-0.023,0.079-0.077,0.032
		c-0.054-0.048-0.004-0.222-0.004-0.222c0.046,0.036,0.123-0.008,0.123-0.008c0.008,0.02,0.046,0.123,0.035,0.087
		c-0.012-0.036,0.011-0.095,0.011-0.095s-0.008,0.02,0.027,0.02c0.035,0,0.046-0.056,0.015-0.075
		c-0.031-0.02-0.046,0.024-0.046,0.024c-0.023-0.012-0.027-0.115-0.027-0.099s-0.019,0.091-0.061,0.107
		c-0.042,0.016-0.073-0.024-0.077-0.06c-0.004-0.036-0.012-0.159,0.192-0.167c0.203-0.008,0.134,0.214,0.134,0.214
		s-0.142,0.421-0.196,0.528c-0.054,0.107-0.192,0.519-0.192,0.519c-0.023,0.056-0.043,0.206,0.123,0.317
		c0.131,0.087,0.307-0.056,0.307-0.056c0.088-0.107,0.042-0.27,0.042-0.27s-0.054-0.087-0.119-0.198
		c-0.041-0.069,0.069-0.175,0.069-0.175c-0.061,0.024-0.138,0.071-0.161,0.135c-0.023,0.063,0.031,0.159,0.031,0.159
		s-0.054,0.008-0.1,0.032c-0.046,0.024-0.05,0.052-0.065,0.091c-0.015,0.04-0.012,0.119,0.073,0.147
		c0.073,0.024,0.107-0.032,0.131-0.087c0.023-0.056-0.061,0.056-0.092-0.008c-0.015-0.032,0.008-0.064,0.008-0.064
		c0.023-0.024,0.077-0.04,0.123,0.048c0.046,0.087-0.069,0.194-0.169,0.175c-0.201-0.04-0.13-0.246-0.13-0.246
		s0.368-0.844,0.415-1.007c0.046-0.163,0.019-0.302-0.084-0.345c-0.104-0.044-0.358-0.059-0.412,0.095
		c-0.054-0.155-0.309-0.139-0.412-0.095c-0.104,0.044-0.13,0.183-0.084,0.345c0.046,0.163,0.415,1.007,0.415,1.007
		s0.071,0.206-0.131,0.246c-0.1,0.02-0.215-0.087-0.169-0.175c0.046-0.087,0.1-0.071,0.123-0.048c0,0,0.023,0.032,0.008,0.064
		c-0.031,0.064-0.115-0.048-0.092,0.008c0.023,0.056,0.058,0.111,0.13,0.087c0.085-0.028,0.088-0.107,0.073-0.147
		c-0.015-0.04-0.019-0.067-0.065-0.091c-0.046-0.024-0.1-0.032-0.1-0.032s0.054-0.095,0.031-0.159
		c-0.023-0.064-0.1-0.111-0.161-0.135c0,0,0.11,0.105,0.069,0.175c-0.065,0.111-0.119,0.198-0.119,0.198s-0.046,0.163,0.042,0.27
		c0,0,0.177,0.143,0.307,0.056c0.166-0.111,0.146-0.262,0.123-0.317c0,0-0.138-0.411-0.192-0.519
		c-0.054-0.107-0.196-0.528-0.196-0.528s-0.069-0.222,0.134-0.214c0.203,0.008,0.196,0.131,0.192,0.167
		c-0.004,0.036-0.035,0.075-0.077,0.06c-0.042-0.016-0.061-0.091-0.061-0.107s-0.004,0.087-0.027,0.099c0,0-0.015-0.044-0.046-0.024
		c-0.031,0.02-0.019,0.075,0.015,0.075c0.035,0,0.027-0.02,0.027-0.02s0.023,0.06,0.012,0.095c-0.012,0.036,0.027-0.067,0.035-0.087
		c0,0,0.077,0.044,0.123,0.008c0,0,0.05,0.175-0.004,0.222c-0.054,0.048-0.081,0.024-0.077-0.032c0,0-0.081,0.052-0.046,0.095
		c0.035,0.044,0.119,0.048,0.157,0.024c0,0-0.023,0.262,0.046,0.258H233.571L233.571,169.299z"/>
	<path fill-rule="evenodd" clip-rule="evenodd" fill="#FFF100" d="M233.571,172.792c0.069,0.004,0.046-0.258,0.046-0.258
		c0.038,0.024,0.123,0.02,0.157-0.024c0.035-0.044-0.046-0.095-0.046-0.095c0.004,0.056-0.023,0.079-0.077,0.032
		c-0.054-0.048-0.004-0.222-0.004-0.222c0.046,0.036,0.123-0.008,0.123-0.008c0.008,0.02,0.046,0.123,0.035,0.087
		c-0.012-0.036,0.011-0.095,0.011-0.095s-0.008,0.02,0.027,0.02c0.035,0,0.046-0.056,0.015-0.075
		c-0.031-0.02-0.046,0.024-0.046,0.024c-0.023-0.012-0.027-0.115-0.027-0.099s-0.019,0.091-0.061,0.107
		c-0.042,0.016-0.073-0.024-0.077-0.06s-0.012-0.159,0.192-0.167c0.203-0.008,0.134,0.214,0.134,0.214s-0.142,0.421-0.196,0.528
		c-0.054,0.107-0.192,0.519-0.192,0.519c-0.023,0.056-0.043,0.206,0.123,0.317c0.131,0.087,0.307-0.056,0.307-0.056
		c0.088-0.107,0.042-0.27,0.042-0.27s-0.054-0.087-0.119-0.198c-0.041-0.069,0.069-0.175,0.069-0.175
		c-0.061,0.024-0.138,0.071-0.161,0.135c-0.023,0.063,0.031,0.159,0.031,0.159s-0.054,0.008-0.1,0.032
		c-0.046,0.024-0.05,0.052-0.065,0.091s-0.012,0.119,0.073,0.147c0.073,0.024,0.107-0.032,0.131-0.087
		c0.023-0.056-0.061,0.056-0.092-0.008c-0.015-0.032,0.008-0.064,0.008-0.064c0.023-0.024,0.077-0.04,0.123,0.048
		c0.046,0.087-0.069,0.194-0.169,0.175c-0.201-0.04-0.13-0.246-0.13-0.246s0.368-0.844,0.415-1.007
		c0.046-0.163,0.019-0.302-0.084-0.345c-0.104-0.044-0.358-0.06-0.412,0.095c-0.054-0.155-0.309-0.139-0.412-0.095
		c-0.104,0.044-0.13,0.183-0.084,0.345c0.046,0.163,0.415,1.007,0.415,1.007s0.071,0.206-0.131,0.246
		c-0.1,0.02-0.215-0.087-0.169-0.175c0.046-0.087,0.1-0.071,0.123-0.048c0,0,0.023,0.032,0.008,0.064
		c-0.031,0.064-0.115-0.048-0.092,0.008c0.023,0.056,0.058,0.111,0.13,0.087c0.085-0.028,0.088-0.107,0.073-0.147
		s-0.019-0.067-0.065-0.091c-0.046-0.024-0.1-0.032-0.1-0.032s0.054-0.095,0.031-0.159c-0.023-0.063-0.1-0.111-0.161-0.135
		c0,0,0.11,0.105,0.069,0.175c-0.065,0.111-0.119,0.198-0.119,0.198s-0.046,0.163,0.042,0.27c0,0,0.177,0.143,0.307,0.056
		c0.166-0.111,0.146-0.262,0.123-0.317c0,0-0.138-0.411-0.192-0.519c-0.054-0.107-0.196-0.528-0.196-0.528s-0.069-0.222,0.134-0.214
		c0.203,0.008,0.196,0.131,0.192,0.167c-0.004,0.036-0.035,0.075-0.077,0.06c-0.042-0.016-0.061-0.091-0.061-0.107
		s-0.004,0.087-0.027,0.099c0,0-0.015-0.044-0.046-0.024c-0.031,0.02-0.019,0.075,0.015,0.075c0.035,0,0.027-0.02,0.027-0.02
		s0.023,0.06,0.012,0.095c-0.012,0.036,0.027-0.067,0.035-0.087c0,0,0.077,0.044,0.123,0.008c0,0,0.05,0.175-0.004,0.222
		c-0.054,0.048-0.081,0.024-0.077-0.032c0,0-0.081,0.052-0.046,0.095c0.035,0.044,0.119,0.048,0.157,0.024
		c0,0-0.023,0.262,0.046,0.258H233.571L233.571,172.792z"/>
	<path fill-rule="evenodd" clip-rule="evenodd" fill="#FFF100" d="M240.896,172.564c0,0,0.018-0.165,0.255-0.256
		c0.237-0.092,1.094-0.183,1.641-0.805c0.547-0.622,0.62-1.061,0.711-1.427c0,0,0.005-0.124,0.046-0.178
		c0.041-0.055,0.055,0.233,0.055,0.316c0,0.082-0.055,0.261-0.055,0.261s0.137-0.178,0.178-0.329
		c0.041-0.151,0.164-0.316,0.178-0.48c0.014-0.165,0.041-0.275,0.068-0.151c0.027,0.124,0.041,0.302,0.014,0.384
		c-0.027,0.082-0.15,0.357-0.15,0.357l-0.164,0.357c0,0,0.157-0.079,0.219-0.178c0.137-0.22,0.191-0.371,0.246-0.48
		c0.055-0.11,0.096-0.261,0.109-0.165c0.014,0.096-0.082,0.453-0.109,0.508c-0.027,0.055-0.205,0.329-0.205,0.329l-0.273,0.467
		c0,0-0.123,0.288-0.068,0.233c0.055-0.055,0.232-0.247,0.232-0.247s0.109-0.137,0.205-0.275c0.096-0.137,0.123-0.288,0.123-0.288
		s0.041,0.165,0,0.274c-0.041,0.11-0.219,0.426-0.219,0.426l-0.068,0.096c0,0,0.137-0.055,0.191-0.11
		c0.055-0.055-0.027,0.165-0.123,0.233c-0.096,0.069-0.301,0.165-0.301,0.165l-0.164,0.11c0,0,0.424-0.11,0.369-0.041
		c-0.055,0.069-0.137,0.096-0.205,0.124c-0.068,0.027-0.178,0.124-0.178,0.124s0.15-0.069,0.123,0
		c-0.027,0.069-0.15,0.151-0.15,0.151s0.15,0.041,0.068,0.096c-0.082,0.055-0.26,0.096-0.26,0.096s0.205,0.082,0.109,0.096
		c-0.096,0.014-0.068,0.014-0.164,0.014c-0.096,0-0.164-0.014-0.246,0.027c-0.082,0.041-0.027,0.082-0.027,0.082
		s-0.055,0.027-0.246-0.014c-0.191-0.041-0.191-0.11-0.15-0.096c0.041,0.014,0.178,0,0.178,0s0.109,0,0.109-0.041
		c0-0.041,0.027-0.096,0.027-0.096l0.068-0.027c0,0-0.068-0.055-0.014-0.082c0.055-0.027,0.178-0.096,0.178-0.096
		s-0.123-0.027-0.027-0.069c0.096-0.041,0.287-0.11,0.287-0.11s-0.068-0.055-0.014-0.069s0.082-0.027,0.082-0.027
		s0.055-0.055,0.041-0.137c-0.014-0.082,0.068-0.137,0.068-0.137s-0.137,0.027-0.055-0.11c0.082-0.137,0.027-0.151,0.027-0.151
		s-0.082-0.069-0.027-0.151c0,0-0.068,0.206-0.137,0.165c-0.068-0.041-0.137,0.069-0.137,0.069s-0.383,0.494-0.424,0.59
		c0,0-0.191,0.014-0.356,0.096c-0.164,0.082-0.369,0.275-0.438,0.329c-0.068,0.055-0.123,0.137-0.123,0.137
		s-0.082-0.041-0.205-0.055c-0.123-0.014,0-0.055-0.232-0.027c-0.232,0.027-0.369,0.165-0.369,0.165
		S240.883,172.651,240.896,172.564L240.896,172.564z"/>
	<path fill-rule="evenodd" clip-rule="evenodd" fill="#FFF100" d="M240.486,172.34c0,0,0.096,0.055,0.178,0.055
		c0.082,0,0.383-0.041,0.287-0.096c-0.096-0.055-0.301-0.041-0.369-0.041c-0.068,0-0.027,0.041-0.246-0.055
		c0,0-0.424-0.192-0.725-0.371c-0.301-0.178-0.725-0.535-0.848-0.878c-0.123-0.343-0.274-0.865-0.287-0.947
		c-0.014-0.082-0.096-0.165-0.096-0.165l0.014,0.384c0,0,0.082,0.288,0.027,0.247c-0.055-0.041-0.096-0.206-0.096-0.206
		s-0.096-0.302-0.178-0.453c-0.082-0.151-0.137-0.192-0.137-0.192s0,0.233,0.055,0.398c0.055,0.165,0.301,0.631,0.219,0.618
		c-0.082-0.014-0.164-0.151-0.164-0.151s-0.082-0.151-0.137-0.274c-0.055-0.124-0.164-0.357-0.178-0.288s0.041,0.22,0.041,0.288
		c0,0.069,0.164,0.371,0.232,0.522c0.068,0.151,0.273,0.398,0.178,0.329c-0.096-0.069-0.355-0.329-0.355-0.329
		s-0.15-0.206-0.191-0.275c-0.041-0.069-0.137-0.137-0.123-0.014c0.014,0.124,0.287,0.522,0.287,0.522s0.219,0.22,0.314,0.261
		c0.096,0.041,0.232,0.151,0.191,0.151s-0.232-0.11-0.273-0.124c-0.041-0.014-0.068-0.041-0.123-0.069
		c-0.055-0.027-0.082,0.11,0,0.178c0.082,0.069,0.273,0.178,0.273,0.178l0.082,0.082c0,0-0.164,0.041-0.109,0.082
		s0.232,0.069,0.232,0.069s-0.178,0.014-0.123,0.096c0.055,0.082,0.191,0.11,0.191,0.11s-0.164,0.096-0.027,0.137
		s0.287,0.055,0.287,0.055l-0.123,0.096c0,0-0.027-0.027,0.068,0c0.096,0.027,0.178,0.082,0.246,0.11
		c0.068,0.027,0.123,0.137,0.191,0.151c0.068,0.014,0.191,0.014,0.287,0.027c0.096,0.014,0.137,0.027,0.191,0.027
		s0.055,0.027,0.123-0.014c0.068-0.041,0.232,0,0.109-0.082c-0.123-0.082-0.219,0.027-0.342-0.014
		c-0.123-0.041-0.096-0.014-0.191-0.082c-0.096-0.069-0.328-0.055-0.26-0.11c0.068-0.055,0.205-0.069,0.109-0.11
		c-0.096-0.041-0.246-0.027-0.219-0.069c0.027-0.041,0.096-0.124,0.014-0.137c-0.082-0.014-0.205,0.027-0.191-0.055
		c0.014-0.082,0.164-0.096,0.041-0.178c-0.123-0.082-0.191-0.082-0.191-0.082s-0.123,0.014-0.082-0.069
		c0.041-0.082,0.123-0.055,0.014-0.137c-0.109-0.082-0.123-0.151-0.123-0.151l0.055-0.069c0,0-0.096-0.096-0.096-0.137
		c0-0.041-0.068-0.137,0.055-0.151c0.123-0.014,0.109,0.055,0.15,0.124c0.041,0.069,0.301,0.316,0.301,0.316
		s0.178,0.398,0.287,0.467c0.109,0.069,0.109-0.014,0.26,0.069c0.15,0.082,0.314,0.178,0.314,0.178s0,0.11,0.055,0.137
		c0.055,0.027,0.137,0.041,0.205,0.041C240.117,172.271,240.431,172.285,240.486,172.34L240.486,172.34z"/>
	<path fill-rule="evenodd" clip-rule="evenodd" fill="#FFF100" d="M240.486,172.738c0,0-0.055-0.041-0.123,0
		c-0.068,0.041-0.205,0.11-0.15,0.055c0.055-0.055,0.068-0.151,0.219-0.151c0.15,0,0.273-0.082,0.301-0.041
		C240.76,172.642,240.486,172.738,240.486,172.738L240.486,172.738z"/>
	<path fill-rule="evenodd" clip-rule="evenodd" fill="#FFF100" d="M240.172,172.82c0,0-0.15,0.11-0.15,0.151
		c0,0.041,0.055,0.137,0.055,0.137s-0.014-0.069,0.109-0.096c0,0,0.096,0,0.137,0c0.041,0,0.15-0.014,0.26,0
		c0.109,0.014,0.246,0,0.246,0s0.424,0.041,0.369-0.014c-0.055-0.055-0.205-0.055-0.205-0.055s-0.164,0.041-0.232,0
		c-0.068-0.041-0.027-0.178-0.027-0.178l-0.096,0.027l-0.109,0.069l-0.082-0.041c0,0-0.055,0.11-0.096,0.11
		c-0.041,0-0.178,0-0.15-0.041C240.226,172.848,240.172,172.82,240.172,172.82L240.172,172.82z"/>
	<path fill-rule="evenodd" clip-rule="evenodd" fill="#FFF100" d="M240.705,173.054c0,0,0.424,0.014,0.465,0.014
		c0.041,0,0.096,0.014,0.137-0.041c0.041-0.055,0.15-0.11,0.246-0.124c0.096-0.014,0.246,0,0.287-0.041
		c0.041-0.041-0.041-0.027,0.068-0.096c0.109-0.069,0.314-0.124,0.397-0.069c0.082,0.055,0.15,0.096,0.26,0.096
		c0.109,0,0.465,0.014,0.533,0.027c0.068,0.014-0.15,0.027-0.219,0.096c-0.068,0.069-0.109,0.11-0.109,0.11l-0.164-0.014
		l-0.123-0.014c0,0,0.191,0.137,0.123,0.151c-0.068,0.014-0.123,0-0.123,0s-0.109-0.055-0.096,0c0.014,0.055,0.15,0.082,0.041,0.096
		c-0.109,0.014-0.109-0.069-0.178-0.069c-0.068,0-0.055-0.027-0.068,0.069c-0.014,0.096-0.041,0.096-0.082,0.055
		c-0.041-0.041-0.164-0.178-0.164-0.096c0,0.082,0.055,0.178,0.055,0.178l-0.123-0.069c0,0-0.082-0.124-0.109-0.041
		c-0.027,0.082-0.014,0.124-0.096,0.11c-0.082-0.014-0.041-0.165-0.15-0.082c-0.109,0.082-0.027,0.137-0.15,0.096
		c-0.134-0.045-0.068-0.192-0.137-0.137c-0.068,0.055-0.055,0.124-0.109,0.096c-0.055-0.027-0.041-0.124-0.096-0.082
		c-0.055,0.041-0.096,0.137-0.055,0.165c0.08,0.053-0.164-0.041-0.164-0.082c0-0.041-0.041-0.069-0.041-0.069l-0.096,0.055
		l-0.178,0.055l-0.178-0.014c0,0,0.356-0.22,0.369-0.261L240.705,173.054L240.705,173.054z"/>
	<path fill-rule="evenodd" clip-rule="evenodd" fill="#FFF100" d="M240.994,168.154c-0.797,0-1.444,0.649-1.444,1.449
		c0,0.8,0.646,1.449,1.444,1.449s1.444-0.649,1.444-1.449C242.438,168.802,241.792,168.154,240.994,168.154L240.994,168.154z"/>
	<path fill-rule="evenodd" clip-rule="evenodd" fill="#FFF100" d="M240.986,168.017c0.292-0.119,0-0.75,0-0.75
		S240.694,167.898,240.986,168.017L240.986,168.017z"/>
	<path fill-rule="evenodd" clip-rule="evenodd" fill="#FFF100" d="M240.709,168.05c0.26-0.178-0.158-0.733-0.158-0.733
		S240.399,167.995,240.709,168.05L240.709,168.05z"/>
	<path fill-rule="evenodd" clip-rule="evenodd" fill="#FFF100" d="M240.416,168.125c0.222-0.224-0.292-0.691-0.292-0.691
		S240.101,168.13,240.416,168.125L240.416,168.125z"/>
	<path fill-rule="evenodd" clip-rule="evenodd" fill="#FFF100" d="M240.134,168.268c0.181-0.259-0.405-0.63-0.405-0.63
		S239.825,168.327,240.134,168.268L240.134,168.268z"/>
	<path fill-rule="evenodd" clip-rule="evenodd" fill="#FFF100" d="M239.852,168.492c0.146-0.28-0.482-0.573-0.482-0.573
		S239.552,168.59,239.852,168.492L239.852,168.492z"/>
	<path fill-rule="evenodd" clip-rule="evenodd" fill="#FFF100" d="M239.662,168.774c0.085-0.304-0.591-0.459-0.591-0.459
		S239.39,168.933,239.662,168.774L239.662,168.774z"/>
	<path fill-rule="evenodd" clip-rule="evenodd" fill="#FFF100" d="M239.515,169.027c0.017-0.316-0.677-0.319-0.677-0.319
		S239.284,169.241,239.515,169.027L239.515,169.027z"/>
	<path fill-rule="evenodd" clip-rule="evenodd" fill="#FFF100" d="M239.432,169.352c-0.035-0.314-0.719-0.204-0.719-0.204
		S239.239,169.602,239.432,169.352L239.432,169.352z"/>
	<path fill-rule="evenodd" clip-rule="evenodd" fill="#FFF100" d="M239.405,169.644c-0.101-0.299-0.746-0.046-0.746-0.046
		S239.269,169.929,239.405,169.644L239.405,169.644z"/>
	<path fill-rule="evenodd" clip-rule="evenodd" fill="#FFF100" d="M241.267,168.049c-0.26-0.178,0.158-0.733,0.158-0.733
		S241.577,167.994,241.267,168.049L241.267,168.049z"/>
	<path fill-rule="evenodd" clip-rule="evenodd" fill="#FFF100" d="M241.56,168.124c-0.222-0.224,0.292-0.691,0.292-0.691
		S241.874,168.129,241.56,168.124L241.56,168.124z"/>
	<path fill-rule="evenodd" clip-rule="evenodd" fill="#FFF100" d="M241.842,168.267c-0.181-0.259,0.405-0.63,0.405-0.63
		S242.151,168.326,241.842,168.267L241.842,168.267z"/>
	<path fill-rule="evenodd" clip-rule="evenodd" fill="#FFF100" d="M242.124,168.491c-0.146-0.28,0.482-0.573,0.482-0.573
		S242.424,168.589,242.124,168.491L242.124,168.491z"/>
	<path fill-rule="evenodd" clip-rule="evenodd" fill="#FFF100" d="M242.314,168.773c-0.085-0.304,0.591-0.459,0.591-0.459
		S242.586,168.932,242.314,168.773L242.314,168.773z"/>
	<path fill-rule="evenodd" clip-rule="evenodd" fill="#FFF100" d="M242.461,169.026c-0.017-0.316,0.677-0.319,0.677-0.319
		S242.693,169.24,242.461,169.026L242.461,169.026z"/>
	<path fill-rule="evenodd" clip-rule="evenodd" fill="#FFF100" d="M242.544,169.351c0.035-0.314,0.719-0.204,0.719-0.204
		S242.737,169.6,242.544,169.351L242.544,169.351z"/>
	<path fill-rule="evenodd" clip-rule="evenodd" fill="#FFF100" d="M242.571,169.643c0.101-0.299,0.746-0.046,0.746-0.046
		S242.707,169.928,242.571,169.643L242.571,169.643z"/>
	<path fill-rule="evenodd" clip-rule="evenodd" fill="#FFF100" d="M240.986,171.216c0.292,0.119,0,0.75,0,0.75
		S240.694,171.335,240.986,171.216L240.986,171.216z"/>
	<path fill-rule="evenodd" clip-rule="evenodd" fill="#FFF100" d="M240.709,171.183c0.26,0.178-0.158,0.733-0.158,0.733
		S240.399,171.237,240.709,171.183L240.709,171.183z"/>
	<path fill-rule="evenodd" clip-rule="evenodd" fill="#FFF100" d="M240.416,171.107c0.222,0.224-0.292,0.691-0.292,0.691
		S240.101,171.102,240.416,171.107L240.416,171.107z"/>
	<path fill-rule="evenodd" clip-rule="evenodd" fill="#FFF100" d="M240.134,170.965c0.181,0.259-0.405,0.63-0.405,0.63
		S239.825,170.906,240.134,170.965L240.134,170.965z"/>
	<path fill-rule="evenodd" clip-rule="evenodd" fill="#FFF100" d="M239.852,170.741c0.146,0.28-0.482,0.573-0.482,0.573
		S239.552,170.643,239.852,170.741L239.852,170.741z"/>
	<path fill-rule="evenodd" clip-rule="evenodd" fill="#FFF100" d="M239.662,170.459c0.085,0.304-0.591,0.459-0.591,0.459
		S239.39,170.3,239.662,170.459L239.662,170.459z"/>
	<path fill-rule="evenodd" clip-rule="evenodd" fill="#FFF100" d="M239.515,170.206c0.017,0.316-0.677,0.319-0.677,0.319
		S239.284,169.991,239.515,170.206L239.515,170.206z"/>
	<path fill-rule="evenodd" clip-rule="evenodd" fill="#FFF100" d="M239.432,169.881c-0.035,0.314-0.719,0.204-0.719,0.204
		S239.239,169.631,239.432,169.881L239.432,169.881z"/>
	<path fill-rule="evenodd" clip-rule="evenodd" fill="#FFF100" d="M241.267,171.184c-0.26,0.178,0.158,0.733,0.158,0.733
		S241.577,171.239,241.267,171.184L241.267,171.184z"/>
	<path fill-rule="evenodd" clip-rule="evenodd" fill="#FFF100" d="M241.56,171.109c-0.222,0.224,0.292,0.691,0.292,0.691
		S241.874,171.104,241.56,171.109L241.56,171.109z"/>
	<path fill-rule="evenodd" clip-rule="evenodd" fill="#FFF100" d="M241.842,170.966c-0.181,0.259,0.405,0.63,0.405,0.63
		S242.151,170.907,241.842,170.966L241.842,170.966z"/>
	<path fill-rule="evenodd" clip-rule="evenodd" fill="#FFF100" d="M242.124,170.742c-0.146,0.28,0.482,0.573,0.482,0.573
		S242.424,170.644,242.124,170.742L242.124,170.742z"/>
	<path fill-rule="evenodd" clip-rule="evenodd" fill="#FFF100" d="M242.314,170.46c-0.085,0.304,0.591,0.459,0.591,0.459
		S242.586,170.301,242.314,170.46L242.314,170.46z"/>
	<path fill-rule="evenodd" clip-rule="evenodd" fill="#FFF100" d="M242.461,170.207c-0.017,0.316,0.677,0.319,0.677,0.319
		S242.693,169.993,242.461,170.207L242.461,170.207z"/>
	<path fill-rule="evenodd" clip-rule="evenodd" fill="#FFF100" d="M242.544,169.882c0.035,0.314,0.719,0.204,0.719,0.204
		S242.737,169.632,242.544,169.882L242.544,169.882z"/>
</g>
</svg>
