<?xml version="1.0" encoding="utf-8"?>
<!-- Generator: Adobe Illustrator 17.0.0, SVG Export Plug-In . SVG Version: 6.00 Build 0)  -->
<!DOCTYPE svg PUBLIC "-//W3C//DTD SVG 1.1//EN" "http://www.w3.org/Graphics/SVG/1.1/DTD/svg11.dtd">
<svg version="1.1" id="Слой_1" xmlns="http://www.w3.org/2000/svg" xmlns:xlink="http://www.w3.org/1999/xlink" x="0px" y="0px"
	 width="17px" height="12px" viewBox="0 0 17 12" enable-background="new 0 0 17 12" xml:space="preserve">
<rect fill="#C7354F" width="17" height="12"/>
<rect fill="#FCCF25" width="11.333" height="12"/>
<rect fill="#006AB2" width="5.667" height="12"/>
<polygon fill="#B48F71" points="7.711,6.784 7.79,6.778 7.797,6.846 7.87,6.815 7.89,6.909 8.05,6.745 8.272,6.856 7.85,7.618 
	7.699,7.73 7.971,7.833 8.249,7.505 8.209,7.721 8.126,7.93 8.465,8.127 8.833,7.907 8.652,7.523 8.711,7.496 8.949,7.846 
	9.209,7.715 8.871,7.316 8.649,6.835 8.883,6.757 9.043,6.912 9.067,6.811 9.151,6.852 9.141,6.768 9.225,6.787 9.122,6.621 
	9.384,6.398 9.55,6.923 9.795,7.206 9.847,7.199 10.024,7.421 10.022,4.343 9.695,3.994 9.376,4.257 9.389,4.54 9.246,4.546 
	9.033,4.656 8.914,4.696 8.857,4.707 8.784,4.627 8.686,4.428 8.68,4.232 8.74,4.105 8.729,3.984 8.783,3.985 8.749,3.903 
	8.797,3.884 8.725,3.82 8.75,3.791 8.48,3.673 8.273,3.659 8.218,3.684 8.191,3.735 8.245,3.891 8.187,3.95 8.245,4.064 
	8.247,4.315 8.201,4.526 8.108,4.686 8.059,4.705 7.943,4.678 7.7,4.548 7.546,4.54 7.535,4.238 7.241,3.998 6.94,4.327 
	6.897,4.423 6.911,7.411 7.105,7.172 7.146,7.183 7.347,6.963 7.518,6.527 7.568,6.346 7.798,6.621 "/>
<path fill="#231F20" d="M8.006,3.451c-0.03,0-0.057,0.008-0.073,0.02c0.025,0.007,0.043,0.03,0.043,0.058V3.6H7.949H7.906
	c-0.027,0-0.05-0.018-0.058-0.043C7.836,3.573,7.828,3.6,7.828,3.63c0,0.031,0.008,0.058,0.02,0.073
	C7.855,3.678,7.878,3.66,7.906,3.66h0.043h0.027v0.027v0.221V4c0,0.027-0.017,0.049-0.04,0.057c0.033,0.005,0.062,0.05,0.07,0.075
	c0.008-0.025,0.037-0.07,0.07-0.075C8.053,4.049,8.036,4.027,8.036,4V3.84V3.686V3.659h0.027h0.043c0.027,0,0.05,0.018,0.058,0.043
	c0.012-0.016,0.02-0.043,0.02-0.073c0-0.031-0.008-0.058-0.02-0.073c-0.007,0.025-0.03,0.043-0.058,0.043H8.063H8.036V3.528
	c0-0.028,0.018-0.051,0.042-0.058C8.063,3.458,8.036,3.451,8.006,3.451L8.006,3.451z"/>
<path fill="#F3CE22" d="M8.006,3.465c-0.016,0-0.03,0.003-0.042,0.007C7.98,3.486,7.99,3.506,7.99,3.529V3.6
	c0,0.001,0,0.002-0.001,0.003v0.011H7.978c-0.001,0-0.002,0-0.003,0.001H7.969H7.948H7.905c-0.022,0-0.042-0.01-0.056-0.026
	C7.845,3.601,7.842,3.615,7.842,3.631s0.003,0.03,0.007,0.042c0.014-0.016,0.033-0.026,0.056-0.026h0.043h0.009h0.018H7.99
	c0,0.001-0.001,0.003-0.001,0.004v0.007c0,0.001,0.001,0.002,0.001,0.003v0.027v0.221v0.092c0,0.022-0.011,0.04-0.026,0.053
	c0.011,0.007,0.02,0.015,0.028,0.024c0.007,0.008,0.01,0.017,0.015,0.025c0.005-0.009,0.008-0.017,0.015-0.025
	C8.03,4.069,8.039,4.061,8.049,4.054C8.034,4.04,8.023,4.022,8.023,4V3.84V3.686V3.682V3.658V3.644h0.012c0.001,0,0.002,0,0.003,0
	h0.027h0.043c0.022,0,0.042,0.01,0.056,0.026c0.004-0.012,0.007-0.026,0.007-0.042s-0.003-0.03-0.007-0.042
	C8.15,3.602,8.131,3.612,8.108,3.612H8.065H8.038c-0.001,0-0.002,0-0.003,0H8.024V3.601c0-0.001,0-0.002,0-0.003V3.527
	c0-0.023,0.01-0.042,0.026-0.056C8.036,3.469,8.022,3.465,8.006,3.465L8.006,3.465L8.006,3.465z"/>
<polygon fill="#CB354A" points="7.543,7.105 7.444,7.102 7.342,7.15 7.309,7.262 7.324,7.314 7.435,7.435 7.525,7.384 7.597,7.305 
	7.615,7.235 7.873,6.895 7.861,6.81 7.804,6.847 7.783,6.777 7.747,6.789 "/>
<polygon fill="#CB354A" points="9.351,7.329 9.471,7.438 9.507,7.429 9.639,7.275 9.609,7.168 9.486,7.092 9.393,7.102 9.186,6.789 
	9.15,6.774 9.135,6.834 9.075,6.816 9.051,6.883 9.324,7.256 "/>
<polygon fill="#231F20" points="7.569,7.357 7.722,7.442 7.684,7.614 7.531,7.53 "/>
<path fill="#231F20" d="M6.856,5.702L6.801,5.727l0.623,1.38H7.49L6.856,5.702L6.856,5.702L6.856,5.702L6.856,5.702z M7.59,7.33
	L7.545,7.377L7.573,7.44l0.055-0.025L7.59,7.33L7.59,7.33z"/>
<polygon fill="#F3CE22" points="7.591,7.406 7.686,7.459 7.662,7.565 7.568,7.513 "/>
<polygon fill="#0068B3" points="8.457,6.968 8.835,6.759 9.279,6.546 9.363,6.416 9.363,5.684 7.564,5.681 7.567,6.425 7.621,6.513 
	7.963,6.704 8.4,6.907 "/>
<path fill="#CB354A" d="M7.543,4.786l0.023,0.067L7.561,5.707l0.031,0.035l0.26,0.031l0.281-0.042c0,0,0.163,0.025,0.276,0.043
	c0,0.001,0.003,0.017,0.003,0.017s0.041-0.006,0.054-0.008c0.013,0.002,0.053,0.008,0.053,0.008l0.003-0.017
	c0.112-0.018,0.276-0.043,0.276-0.043l0.281,0.042l0.26-0.031L9.37,5.707L9.365,4.853l0.023-0.067L9.077,4.788
	c0,0-0.355,0.004-0.611,0.006C8.211,4.791,7.855,4.788,7.855,4.788L7.543,4.786L7.543,4.786L7.543,4.786L7.543,4.786z"/>
<path fill="#231F20" d="M8.132,5.732c0,0-0.193-0.048-0.264-0.144C7.742,5.702,7.592,5.742,7.592,5.742s0.157,0.072,0.276,0.163
	C7.923,5.826,8.132,5.732,8.132,5.732L8.132,5.732z"/>
<path fill="#231F20" d="M8.797,5.732c0,0,0.21,0.094,0.264,0.173C9.18,5.814,9.337,5.742,9.337,5.742s-0.15-0.04-0.276-0.154
	C8.989,5.684,8.797,5.732,8.797,5.732L8.797,5.732z"/>
<path fill="#231F20" d="M8.464,4.857L8.41,5.013L8.263,4.942l0.07,0.149L8.179,5.146l0.154,0.055L8.263,5.35L8.41,5.279l0.054,0.156
	l0.055-0.156L8.666,5.35l-0.07-0.149L8.75,5.146L8.596,5.091l0.07-0.149L8.519,5.013L8.464,4.857z"/>
<polygon fill="#F3CE22" points="8.157,6.017 8.21,5.959 8.269,6.019 8.214,6.075 "/>
<polygon fill="#F3CE22" points="8.778,6.017 8.721,5.952 8.661,6.015 8.714,6.072 "/>
<polygon fill="#F3CE22" points="8.657,6.137 8.63,6.199 8.627,6.371 8.672,6.467 8.731,6.493 8.723,6.268 8.763,6.111 "/>
<polygon fill="#F3CE22" points="8.205,6.304 8.205,6.489 8.258,6.45 8.295,6.366 8.301,6.221 8.273,6.133 8.167,6.113 "/>
<polygon fill="#F3CE22" points="8.939,6.532 8.937,6.42 9.03,6.291 9.141,6.266 9.018,6.205 8.899,6.231 8.837,6.304 8.831,6.422 
	8.918,6.525 "/>
<polygon fill="#F3CE22" points="7.923,6.538 7.955,6.478 8.006,6.512 8.068,6.5 8.108,6.437 8.08,6.379 8.051,6.356 8.093,6.332 
	8.11,6.261 8.053,6.195 7.998,6.203 7.97,6.225 7.957,6.173 7.892,6.135 7.836,6.156 7.809,6.214 7.824,6.266 7.766,6.259 
	7.72,6.304 7.713,6.364 7.745,6.403 7.79,6.418 7.815,6.416 7.794,6.47 7.811,6.523 7.864,6.553 "/>
<path fill="#FCCF25" d="M8.465,4.962L8.5,5.061l0.094-0.046L8.549,5.11l0.098,0.035L8.549,5.18l0.045,0.095L8.5,5.23L8.465,5.329
	L8.43,5.23L8.336,5.275L8.38,5.18L8.282,5.145L8.38,5.11L8.336,5.015L8.43,5.061L8.465,4.962L8.465,4.962z"/>
<path fill="#231F20" d="M8.155,4.834C8.146,4.897,7.833,5.028,7.833,5.291c0,0.337,0.312,0.417,0.312,0.417L8.132,5.732l-0.076,0.14
	c0,0,0.129,0.007,0.197,0.066C8.335,6.009,8.327,6.16,8.327,6.27c0,0.086-0.011,0.178-0.055,0.215
	C8.213,6.536,8.173,6.539,8.173,6.599c0,0.049,0.038,0.059,0.099,0.092C8.35,6.733,8.347,6.789,8.463,6.789s0.113-0.056,0.191-0.098
	c0.061-0.033,0.099-0.043,0.099-0.092c0-0.059-0.04-0.063-0.099-0.114C8.61,6.447,8.599,6.356,8.599,6.27
	c0-0.11-0.008-0.261,0.074-0.332C8.741,5.879,8.87,5.872,8.87,5.872l-0.076-0.14L8.781,5.708c0,0,0.312-0.08,0.312-0.417
	c0-0.263-0.313-0.394-0.322-0.457C8.74,4.943,8.875,5.093,8.875,5.271c0,0.23-0.168,0.241-0.168,0.241
	c-0.039,0-0.055,0.028-0.071,0.028C8.603,5.536,8.587,5.494,8.555,5.494c-0.031,0-0.054,0.048-0.095,0.048S8.396,5.494,8.366,5.494
	c-0.033,0-0.048,0.042-0.081,0.046c-0.015,0-0.031-0.028-0.071-0.028c0,0-0.168-0.011-0.168-0.241
	C8.05,5.093,8.185,4.943,8.155,4.834L8.155,4.834z"/>
<path fill="#FCCF25" d="M7.865,5.636C7.929,5.71,8.029,5.738,8.029,5.738L7.868,5.859L7.866,5.861L7.863,5.858L7.684,5.744
	C7.683,5.745,7.798,5.705,7.865,5.636L7.865,5.636L7.865,5.636z"/>
<path fill="#FCCF25" d="M8.109,4.929c0.013,0.028-0.104,0.2-0.104,0.342c0,0.173,0.091,0.276,0.213,0.276
	c0.023,0,0.049,0.032,0.071,0.032c0.036,0,0.059-0.04,0.081-0.04c0.028,0,0.046,0.044,0.094,0.044c0.048,0,0.067-0.044,0.095-0.044
	c0.022,0,0.045,0.04,0.081,0.04c0.022,0,0.047-0.032,0.071-0.032c0.122,0,0.213-0.102,0.213-0.276c0-0.141-0.117-0.314-0.104-0.342
	c0,0,0.229,0.166,0.229,0.362c0,0.315-0.316,0.393-0.316,0.393l0.071,0.162c0,0-0.098,0.015-0.158,0.064
	c-0.08,0.065-0.081,0.241-0.081,0.36c0,0.14,0.005,0.199,0.055,0.237c0.053,0.04,0.092,0.049,0.092,0.09
	c0,0.036-0.041,0.05-0.094,0.074C8.557,6.698,8.551,6.745,8.464,6.745c-0.088,0-0.093-0.047-0.154-0.074
	C8.257,6.647,8.216,6.633,8.216,6.597c0-0.041,0.04-0.049,0.092-0.09C8.358,6.469,8.363,6.41,8.363,6.27
	c0-0.119-0.001-0.295-0.081-0.36c-0.06-0.049-0.158-0.064-0.158-0.064l0.071-0.162c0,0-0.316-0.078-0.316-0.393
	C7.881,5.095,8.109,4.929,8.109,4.929L8.109,4.929L8.109,4.929z"/>
<path fill="#FCCF25" d="M9.064,5.636c0.067,0.069,0.181,0.109,0.181,0.109s-0.119,0.06-0.179,0.114
	C9.068,5.87,9.063,5.862,9.063,5.862C9.06,5.866,9.062,5.861,9.061,5.86C9.004,5.794,8.899,5.739,8.899,5.739
	S9.001,5.71,9.064,5.636L9.064,5.636z"/>
<path fill="#231F20" d="M8.211,5.939L8.136,6.015l0.075,0.076l0.075-0.076L8.211,5.939z"/>
<path fill="#231F20" d="M8.718,5.939L8.643,6.015l0.075,0.076l0.075-0.076L8.718,5.939z"/>
<path fill="#FCCF25" d="M8.211,5.976l0.039,0.04l-0.039,0.04l-0.04-0.04L8.211,5.976z"/>
<path fill="#FCCF25" d="M8.718,5.976l0.04,0.04l-0.04,0.04l-0.039-0.04L8.718,5.976z"/>
<path fill="#231F20" d="M8.142,6.091c0.015,0.037,0.05,0.153,0.05,0.291c0,0.096-0.009,0.146-0.009,0.146s0.106-0.031,0.127-0.14
	c0.01-0.051,0.021-0.238-0.03-0.27L8.142,6.091L8.142,6.091z"/>
<path fill="#231F20" d="M8.787,6.091L8.649,6.118c-0.051,0.032-0.04,0.219-0.03,0.27c0.021,0.108,0.127,0.14,0.127,0.14
	s-0.009-0.05-0.009-0.146C8.737,6.244,8.772,6.128,8.787,6.091L8.787,6.091L8.787,6.091z"/>
<path fill="#231F20" d="M7.885,6.122c-0.006,0-0.012,0.001-0.018,0.002C7.819,6.136,7.791,6.185,7.803,6.233
	C7.805,6.24,7.808,6.247,7.811,6.254C7.804,6.252,7.797,6.25,7.789,6.25c-0.003,0-0.006,0-0.009,0
	C7.735,6.252,7.698,6.287,7.694,6.334C7.691,6.383,7.728,6.426,7.777,6.429c0.007,0.001,0.014,0,0.021-0.001
	C7.794,6.434,7.79,6.44,7.787,6.447C7.769,6.493,7.791,6.546,7.836,6.564s0.097-0.004,0.116-0.05C7.955,6.507,7.956,6.5,7.957,6.493
	c0.004,0.006,0.009,0.011,0.015,0.016C8.01,6.541,8.066,6.536,8.097,6.498s0.026-0.094-0.011-0.126
	C8.08,6.367,8.074,6.363,8.068,6.36c0.007-0.002,0.013-0.005,0.02-0.009c0.041-0.026,0.054-0.082,0.028-0.124
	C8.098,6.198,8.067,6.183,8.035,6.185C8.021,6.186,8.006,6.19,7.993,6.199C7.987,6.203,7.981,6.207,7.976,6.213
	c0-0.007-0.001-0.015-0.002-0.022C7.965,6.147,7.926,6.12,7.885,6.122L7.885,6.122L7.885,6.122L7.885,6.122z"/>
<path fill="#FCCF25" d="M8.19,6.133l0.074,0.016c0.027,0.038,0.023,0.1,0.023,0.186c0,0.087-0.064,0.12-0.064,0.12
	C8.223,6.246,8.201,6.196,8.19,6.133L8.19,6.133L8.19,6.133z"/>
<path fill="#FCCF25" d="M8.739,6.133C8.728,6.196,8.707,6.246,8.707,6.455c0,0-0.064-0.033-0.064-0.12
	c0-0.086-0.005-0.148,0.023-0.186L8.739,6.133L8.739,6.133z"/>
<path fill="#FCCF25" d="M7.89,6.159c0.032-0.001,0.062,0.02,0.07,0.053C7.962,6.22,7.962,6.227,7.961,6.235
	C7.96,6.241,7.959,6.247,7.957,6.253C7.946,6.249,7.935,6.247,7.923,6.247c-0.03,0-0.057,0.013-0.075,0.034
	C7.843,6.277,7.839,6.272,7.835,6.266S7.828,6.253,7.826,6.245C7.817,6.208,7.839,6.17,7.876,6.16
	C7.881,6.16,7.886,6.159,7.89,6.159L7.89,6.159L7.89,6.159L7.89,6.159z"/>
<path fill="#231F20" d="M8.995,6.188c-0.113,0-0.197,0.089-0.185,0.197c0.01,0.092,0.083,0.168,0.174,0.19
	C8.968,6.549,8.958,6.521,8.955,6.49C8.944,6.381,9.027,6.293,9.14,6.293c0.018,0,0.035,0.002,0.052,0.006
	C9.152,6.234,9.077,6.188,8.995,6.188L8.995,6.188L8.995,6.188L8.995,6.188L8.995,6.188z"/>
<path fill="#FCCF25" d="M8.029,6.213c0.022,0.001,0.043,0.012,0.056,0.033c0.02,0.033,0.011,0.076-0.022,0.096
	C8.056,6.346,8.049,6.349,8.042,6.351C8.036,6.352,8.03,6.352,8.024,6.352c0-0.001,0-0.002,0-0.003c0-0.042-0.025-0.078-0.06-0.093
	c0.002-0.006,0.005-0.012,0.01-0.017c0.005-0.006,0.01-0.011,0.016-0.015C8.002,6.216,8.015,6.213,8.029,6.213L8.029,6.213
	L8.029,6.213z"/>
<path fill="#FCCF25" d="M8.995,6.229c0.036,0,0.07,0.011,0.099,0.029C8.983,6.28,8.904,6.379,8.915,6.494
	C8.88,6.464,8.854,6.425,8.849,6.38C8.841,6.295,8.902,6.229,8.995,6.229L8.995,6.229L8.995,6.229z"/>
<path fill="#FCCF25" d="M7.806,6.271c0.008,0.001,0.015,0.003,0.022,0.006c0.006,0.002,0.011,0.006,0.015,0.009
	C7.83,6.303,7.822,6.325,7.822,6.349c0,0.019,0.005,0.036,0.014,0.051C7.83,6.404,7.824,6.407,7.817,6.408
	C7.81,6.41,7.803,6.41,7.796,6.41C7.758,6.407,7.729,6.374,7.732,6.336C7.734,6.297,7.768,6.268,7.806,6.271L7.806,6.271z"/>
<path fill="#FCCF25" d="M7.923,6.281c0.037,0,0.067,0.031,0.067,0.068c0,0.037-0.03,0.068-0.067,0.068s-0.067-0.03-0.067-0.068
	C7.856,6.312,7.886,6.281,7.923,6.281z"/>
<path fill="#FCCF25" d="M8.023,6.359C8.03,6.36,8.036,6.361,8.042,6.364C8.049,6.367,8.055,6.37,8.061,6.375
	C8.09,6.4,8.094,6.444,8.069,6.473c-0.024,0.03-0.068,0.034-0.097,0.009C7.966,6.477,7.961,6.471,7.957,6.464
	C7.954,6.459,7.952,6.453,7.95,6.447C7.99,6.435,8.019,6.401,8.023,6.359L8.023,6.359L8.023,6.359z"/>
<path fill="#FCCF25" d="M7.839,6.406c0.018,0.027,0.049,0.045,0.084,0.045c0.007,0,0.014-0.001,0.021-0.002
	c0.001,0.006,0.002,0.013,0.002,0.02S7.944,6.483,7.942,6.491C7.928,6.527,7.887,6.544,7.852,6.53
	C7.817,6.516,7.799,6.475,7.813,6.439C7.816,6.432,7.82,6.425,7.825,6.42C7.829,6.413,7.834,6.409,7.839,6.406L7.839,6.406
	L7.839,6.406L7.839,6.406z"/>
<path fill="#231F20" d="M8.345,6.572c-0.062,0-0.102,0.013-0.102,0.032s0.04,0.032,0.102,0.032c0.017,0,0.035-0.01,0.035-0.032
	C8.38,6.582,8.361,6.572,8.345,6.572L8.345,6.572z"/>
<path fill="#231F20" d="M8.584,6.572c-0.017,0-0.035,0.01-0.035,0.032s0.019,0.032,0.035,0.032c0.062,0,0.102-0.013,0.102-0.032
	C8.686,6.585,8.646,6.572,8.584,6.572L8.584,6.572z"/>
<path fill="#231F20" d="M10.39,5.462l-0.107,0.079l0.012,0.026c0,0-0.02,0.007-0.029,0.024c-0.009,0.018,0.006,0.043,0.006,0.043
	s-0.102-0.009-0.118,0.001c-0.014,0.009,0.006,0.081-0.003,0.141c-0.013,0.084-0.046,0.077-0.047,0.093
	c-0.001,0.016,0.013,0.041,0.013,0.041s-0.019,0.006-0.023,0.014c-0.007,0.013,0.005,0.037-0.003,0.053
	c-0.044,0.088-0.11,0.218-0.153,0.304c-0.006,0.012-0.022,0.017-0.03,0.033C9.9,6.329,9.907,6.351,9.907,6.351
	S9.878,6.353,9.868,6.373C9.857,6.394,9.864,6.422,9.864,6.422s-0.018,0.002-0.027,0.02c-0.01,0.019,0.007,0.029,0.002,0.037
	C9.781,6.595,9.712,6.731,9.67,6.814C9.655,6.845,9.601,6.851,9.569,6.913c-0.03,0.06,0.013,0.105,0.013,0.105
	S9.537,7.022,9.525,7.046C9.513,7.07,9.522,7.107,9.555,7.124s0.068,0.003,0.08-0.021C9.647,7.079,9.623,7.04,9.623,7.04
	s0.061,0.009,0.091-0.051c0.031-0.062,0.005-0.109,0.02-0.14c0.042-0.083,0.11-0.22,0.169-0.335c0.004-0.008,0.021-0.001,0.031-0.02
	c0.009-0.018,0-0.034,0-0.034s0.027-0.012,0.037-0.033c0.01-0.02-0.005-0.045-0.005-0.045s0.021-0.008,0.029-0.023
	c0.008-0.016,0.002-0.032,0.008-0.044c0.043-0.086,0.109-0.216,0.153-0.304c0.008-0.016,0.034-0.021,0.04-0.034
	C10.2,5.969,10.194,5.95,10.194,5.95s0.028-0.003,0.04-0.013c0.012-0.011-0.013-0.034,0.047-0.094
	c0.043-0.043,0.112-0.069,0.111-0.086c-0.001-0.019-0.068-0.097-0.068-0.097s0.028-0.002,0.037-0.02s0.003-0.038,0.003-0.038
	l0.028-0.005V5.462H10.39L10.39,5.462L10.39,5.462L10.39,5.462z M9.381,7.4C9.367,7.401,9.359,7.41,9.356,7.415
	c-0.004,0.008-0.005,0.02,0,0.03c0,0-0.034-0.011-0.045-0.005c-0.011,0.005,0,0.167,0,0.167s0.135-0.086,0.133-0.098
	c-0.002-0.013-0.03-0.035-0.03-0.035c0.011-0.002,0.019-0.009,0.024-0.017c0.004-0.009,0.005-0.034-0.026-0.05
	C9.399,7.401,9.389,7.399,9.381,7.4L9.381,7.4z"/>
<path fill="#231F20" d="M8.337,3.643c-0.034,0-0.083,0.001-0.113,0.021C8.197,3.682,8.199,3.705,8.19,3.713
	C8.168,3.732,8.13,3.732,8.112,3.732c-0.117,0-0.122,0.127-0.122,0.127s0.03-0.046,0.083-0.046c0.088,0,0.155,0.049,0.155,0.067
	c0,0.007-0.009,0.009-0.01,0.009c-0.058,0-0.145-0.034-0.191-0.035v0.019c0.001,0,0.001,0.001,0.002,0.001c-0.001,0-0.001,0-0.002,0
	v0.003C8.13,3.913,8.235,3.965,8.235,4.192c0,0.143-0.017,0.289-0.088,0.403C8.122,4.636,8.086,4.67,8.044,4.701
	c-0.019-0.006-0.109-0.034-0.172-0.07C7.761,4.569,7.704,4.506,7.572,4.5V4.399c0-0.054,0.019-0.103,0.019-0.155
	C7.536,4.229,7.382,4.038,7.24,3.954C7.031,4.091,6.869,4.316,6.869,4.419c0,0,0.006,2.222,0,2.997c0,0.045-0.027,0.108-0.027,0.108
	c0.076-0.033,0.216-0.226,0.246-0.3v0.035c0.115-0.053,0.2-0.193,0.237-0.265c0.001,0.01,0.002,0.037,0.002,0.037
	C7.43,6.94,7.561,6.4,7.561,6.4L7.554,6.286c0,0-0.091,0.441-0.194,0.531V4.919l0.082,0.077l0.124-0.117V4.79l-0.11,0.104V4.625
	C7.473,4.6,7.483,4.581,7.492,4.566C7.51,4.597,7.567,4.693,7.635,4.752c0.011-0.046,0.084-0.089,0.084-0.089
	s0.026,0.072,0.066,0.09c0.014-0.025,0.098-0.081,0.098-0.081S7.811,4.683,7.782,4.711C7.757,4.705,7.751,4.605,7.751,4.605
	s-0.106,0.052-0.124,0.09c-0.02-0.006-0.052-0.086-0.064-0.119c0.018-0.002,0.045-0.004,0.079-0.004c0.03,0,0.069,0.014,0.109,0.034
	c0.044,0.021,0.091,0.048,0.132,0.067c0.053,0.024,0.134,0.029,0.157,0.03C8.013,4.722,7.984,4.74,7.952,4.756
	c0,0,0.127-0.001,0.216-0.046C8.2,4.689,8.233,4.669,8.261,4.644C8.249,4.678,8.23,4.719,8.2,4.754
	c0.131-0.011,0.196-0.087,0.214-0.112c0.009,0.023,0.024,0.059,0.048,0.091c0.024-0.031,0.04-0.068,0.049-0.091
	c0.018,0.025,0.084,0.101,0.214,0.112c-0.03-0.035-0.049-0.075-0.061-0.11C8.692,4.668,8.725,4.689,8.757,4.71
	c0.089,0.045,0.216,0.046,0.216,0.046C8.941,4.74,8.911,4.722,8.884,4.703c0.023-0.001,0.104-0.006,0.158-0.03
	C9.084,4.654,9.13,4.627,9.174,4.606c0.04-0.019,0.079-0.034,0.109-0.034c0.034,0,0.06,0.002,0.079,0.004
	C9.35,4.609,9.318,4.689,9.298,4.695c-0.018-0.037-0.124-0.09-0.124-0.09s-0.006,0.1-0.031,0.106
	C9.114,4.683,9.042,4.672,9.042,4.672S9.126,4.728,9.14,4.753c0.04-0.018,0.066-0.09,0.066-0.09s0.073,0.043,0.085,0.089
	c0.067-0.059,0.125-0.155,0.143-0.186c0.009,0.016,0.02,0.035,0.036,0.059v0.269L9.36,4.79v0.089l0.124,0.117l0.082-0.077v1.898
	C9.463,6.726,9.372,6.286,9.372,6.286L9.365,6.4c0,0,0.131,0.54,0.234,0.631c0,0,0.002-0.026,0.002-0.037
	c0.038,0.072,0.122,0.212,0.237,0.265V7.224c0.029,0.074,0.169,0.267,0.246,0.3c0,0-0.027-0.063-0.027-0.108
	c-0.006-0.774,0-2.997,0-2.997c0-0.103-0.162-0.328-0.371-0.465C9.544,4.039,9.39,4.229,9.335,4.244
	c0,0.052,0.019,0.101,0.019,0.155V4.5c-0.131,0.006-0.189,0.069-0.3,0.131C8.991,4.667,8.9,4.695,8.882,4.701
	C8.839,4.67,8.804,4.635,8.779,4.595c-0.06-0.098-0.086-0.218-0.086-0.34c0-0.052,0.057-0.11,0.057-0.151
	c0-0.063-0.006-0.101-0.006-0.101C8.764,4.006,8.8,4.042,8.8,4.042S8.799,3.937,8.766,3.919c0,0,0.013-0.014,0.061-0.015
	c-0.013-0.034-0.08-0.076-0.08-0.076C8.75,3.822,8.756,3.817,8.764,3.812c0.017-0.009,0.04-0.016,0.058-0.019
	c-0.019-0.004-0.041-0.01-0.065-0.018C8.702,3.757,8.637,3.73,8.576,3.701C8.468,3.646,8.383,3.643,8.337,3.643L8.337,3.643
	L8.337,3.643L8.337,3.643z M8.339,3.674c0.01,0,0.02,0,0.028,0c0.108,0,0.184,0.05,0.287,0.096c0.027,0.012,0.051,0.022,0.073,0.029
	C8.713,3.811,8.703,3.824,8.699,3.834c0,0,0.046,0.009,0.067,0.048c0,0-0.044,0.005-0.051,0.031
	c0.024,0.002,0.049,0.033,0.049,0.063l-0.062-0.02c0,0,0.015,0.07,0.015,0.147c0,0.039-0.056,0.085-0.056,0.151
	c0,0.208,0.052,0.288,0.089,0.352C8.764,4.631,8.776,4.66,8.8,4.682C8.694,4.625,8.615,4.554,8.615,4.487V4.236H8.587v0.251
	c0,0.048,0.012,0.07,0.012,0.07C8.616,4.61,8.649,4.692,8.67,4.725C8.573,4.672,8.523,4.605,8.523,4.58V4.235H8.495v0.35L8.5,4.609
	C8.488,4.627,8.473,4.648,8.462,4.656C8.451,4.649,8.437,4.627,8.425,4.609L8.43,4.585v-0.35H8.402V4.58
	c0,0.025-0.05,0.092-0.147,0.145C8.276,4.692,8.309,4.61,8.326,4.557c0,0,0.012-0.022,0.012-0.07V4.236H8.31v0.251
	c0,0.066-0.078,0.138-0.184,0.195C8.15,4.66,8.161,4.631,8.176,4.606c0.04-0.07,0.09-0.159,0.09-0.413
	c0-0.095-0.014-0.16-0.038-0.206C8.221,3.972,8.211,3.932,8.267,3.932c0.029,0,0.096,0.052,0.096,0.052S8.36,3.942,8.326,3.918
	C8.32,3.914,8.311,3.902,8.311,3.89c0-0.009,0.015-0.03,0.026-0.035C8.345,3.851,8.222,3.83,8.222,3.773
	c0-0.012,0.007-0.02,0.033-0.02c0.033,0,0.088,0.041,0.136,0.041c0.036,0,0.05-0.009,0.087-0.009c0.045,0,0.138,0.086,0.17,0.083
	C8.612,3.845,8.555,3.759,8.467,3.759c-0.03,0-0.058,0.007-0.086,0.007c-0.036,0-0.072-0.034-0.111-0.034
	c-0.026,0-0.056,0.002-0.06-0.005C8.202,3.715,8.209,3.708,8.216,3.698c0.013-0.019,0.051-0.024,0.088-0.025
	C8.318,3.674,8.329,3.674,8.339,3.674L8.339,3.674L8.339,3.674L8.339,3.674L8.339,3.674z M7.242,4.051L7.242,4.051
	c0,0.001,0.194,0.181,0.26,0.204l0.002,0.061v0.179C7.457,4.478,7.397,4.4,7.368,4.358V4.334c0-0.023,0.013-0.04,0.023-0.049
	l-0.029-0.01C7.351,4.288,7.339,4.306,7.339,4.33v0.014L7.33,4.354L7.325,4.359L7.254,4.436L7.17,4.308V4.277
	c0-0.021,0.016-0.045,0.029-0.061l-0.028-0.01C7.157,4.225,7.142,4.25,7.142,4.273v0.025c-0.02,0.021-0.096,0.1-0.096,0.1
	S7.008,4.315,6.997,4.292C7.057,4.209,7.152,4.117,7.242,4.051L7.242,4.051L7.242,4.051z M9.688,4.051
	c0.089,0.066,0.184,0.158,0.243,0.24c-0.01,0.023-0.049,0.106-0.049,0.106s-0.076-0.08-0.096-0.1V4.272
	c0-0.023-0.015-0.048-0.029-0.067l-0.028,0.01c0.013,0.016,0.029,0.04,0.029,0.061v0.031L9.674,4.435L9.603,4.358L9.598,4.353
	l-0.009-0.01V4.329c0-0.024-0.012-0.043-0.023-0.055l-0.029,0.01C9.547,4.293,9.56,4.31,9.56,4.333v0.024
	c-0.029,0.042-0.088,0.12-0.136,0.137V4.315l0.002-0.061C9.493,4.231,9.688,4.051,9.688,4.051L9.688,4.051L9.688,4.051L9.688,4.051z
	 M6.964,4.346l0.044,0.082v0.147L6.94,4.639V4.42C6.941,4.399,6.95,4.373,6.964,4.346L6.964,4.346z M9.965,4.346
	C9.98,4.374,9.988,4.399,9.988,4.42v0.219L9.92,4.575V4.428L9.965,4.346L9.965,4.346z M7.142,4.364l0.078,0.12v0.091L7.142,4.649
	V4.364L7.142,4.364L7.142,4.364z M9.787,4.364v0.285L9.709,4.575V4.484L9.787,4.364L9.787,4.364L9.787,4.364L9.787,4.364z
	 M7.114,4.386v0.263L7.036,4.576V4.469L7.114,4.386L7.114,4.386L7.114,4.386z M9.815,4.386l0.078,0.083v0.107L9.815,4.649V4.386
	L9.815,4.386L9.815,4.386z M7.353,4.405c0.012,0.02,0.065,0.108,0.117,0.133C7.452,4.564,7.405,4.627,7.353,4.655V4.405L7.353,4.405
	z M9.576,4.405v0.25C9.525,4.627,9.478,4.564,9.459,4.538C9.51,4.513,9.564,4.425,9.576,4.405L9.576,4.405z M7.326,4.418v0.231
	L7.248,4.576V4.494L7.326,4.418z M9.603,4.418l0.078,0.076v0.082L9.603,4.649V4.418L9.603,4.418z M7.009,4.664v0.23L6.941,4.83
	V4.728L7.009,4.664z M9.92,4.664l0.068,0.064V4.83L9.92,4.894V4.664z M7.036,4.664L7.08,4.706l0.033,0.031V4.82L7.08,4.851
	L7.036,4.893V4.664L7.036,4.664L7.036,4.664z M7.22,4.664v0.229L7.176,4.851L7.143,4.819V4.737l0.033-0.032L7.22,4.664z
	 M7.248,4.664l0.078,0.074V4.82L7.292,4.852L7.248,4.894V4.664L7.248,4.664z M7.431,4.664v0.23L7.387,4.852L7.354,4.82V4.743
	C7.38,4.727,7.407,4.696,7.431,4.664L7.431,4.664L7.431,4.664L7.431,4.664z M9.498,4.664c0.024,0.032,0.051,0.063,0.078,0.079V4.82
	L9.543,4.852L9.499,4.894L9.498,4.664L9.498,4.664z M9.681,4.664v0.229L9.637,4.851L9.603,4.819V4.737L9.681,4.664L9.681,4.664
	L9.681,4.664z M9.709,4.664l0.044,0.042l0.033,0.032V4.82L9.753,4.852L9.709,4.894V4.664L9.709,4.664z M9.892,4.664v0.229
	L9.848,4.851L9.815,4.82V4.737l0.033-0.031L9.892,4.664L9.892,4.664z M7.152,4.918l0.082,0.078l0.082-0.077v1.899
	c0,0,0.006,0.094,0.01,0.156C7.289,7.011,7.152,7.152,7.152,7.152V4.918L7.152,4.918z M9.777,4.918v2.233
	c0,0-0.138-0.141-0.174-0.178c0.004-0.061,0.01-0.156,0.01-0.156V4.918l0.082,0.077L9.777,4.918L9.777,4.918L9.777,4.918
	L9.777,4.918z M7.105,4.919V7.08c0,0.061-0.11,0.203-0.163,0.236V4.919l0.081,0.077L7.105,4.919L7.105,4.919z M9.824,4.919
	l0.082,0.077l0.081-0.077v2.397C9.934,7.283,9.824,7.141,9.824,7.08V4.919L9.824,4.919z M7.782,6.617c0,0-0.079,0.162-0.11,0.191
	c0,0,0.021,0.003,0.044,0.002C7.702,6.831,7.592,6.991,7.557,7.051C7.525,7.107,7.502,7.082,7.453,7.082
	c-0.041,0-0.134,0.066-0.149,0.093C7.288,7.203,7.276,7.237,7.276,7.266c0,0.031,0.032,0.073,0.032,0.073
	c0.003-0.015,0.01-0.02,0.01-0.02S7.403,7.426,7.416,7.44c0.01,0.011,0.053,0.018,0.069,0.004c0.038-0.035,0.076-0.06,0.11-0.111
	c0.018-0.026,0.019-0.056,0.039-0.085c0.068-0.094,0.202-0.275,0.233-0.317c0.002,0.011,0.004,0.021,0.006,0.033
	c0.035-0.071,0.203-0.208,0.203-0.208L8.03,6.725c0,0-0.101,0.119-0.134,0.141c0,0-0.014-0.059-0.022-0.08c0,0-0.039,0.03-0.06,0.03
	c0,0-0.006-0.04-0.011-0.067C7.776,6.767,7.732,6.763,7.732,6.763C7.771,6.744,7.817,6.63,7.817,6.63L7.782,6.617L7.782,6.617
	L7.782,6.617z M9.147,6.617L9.114,6.634c0,0,0.046,0.114,0.085,0.133c0,0-0.044,0.004-0.071-0.014
	C9.123,6.779,9.117,6.82,9.117,6.82c-0.021-0.001-0.06-0.03-0.06-0.03C9.049,6.811,9.035,6.87,9.035,6.87
	C9.002,6.848,8.901,6.729,8.901,6.729L8.855,6.76c0,0,0.168,0.136,0.203,0.208C9.06,6.956,9.062,6.947,9.064,6.935
	c0.031,0.041,0.165,0.222,0.233,0.317C9.317,7.28,9.319,7.31,9.336,7.337c0.034,0.051,0.071,0.076,0.11,0.111
	c0.015,0.014,0.059,0.007,0.069-0.004C9.528,7.43,9.613,7.323,9.613,7.323s0.006,0.005,0.01,0.02c0,0,0.032-0.042,0.032-0.073
	c0-0.028-0.012-0.062-0.028-0.09C9.612,7.153,9.519,7.087,9.478,7.087c-0.05,0-0.072,0.025-0.104-0.031
	C9.34,6.996,9.23,6.836,9.215,6.815c0.023,0,0.044-0.002,0.044-0.002C9.226,6.779,9.147,6.617,9.147,6.617L9.147,6.617L9.147,6.617z
	 M7.771,6.8c0,0-0.001,0.055,0.016,0.074l0.06-0.042c0,0,0.004,0.02,0.009,0.048C7.83,6.915,7.683,7.119,7.61,7.219
	C7.592,7.244,7.577,7.307,7.577,7.307S7.55,7.294,7.55,7.271s0.003-0.049,0.003-0.049s-0.02,0.023-0.054,0.023
	c0-0.028,0.053-0.058,0.055-0.097c-0.04,0.03-0.076,0.015-0.122,0.029C7.381,7.193,7.367,7.215,7.351,7.214
	C7.342,7.213,7.333,7.197,7.337,7.188C7.343,7.171,7.406,7.124,7.45,7.115c0.011-0.002,0.094,0.018,0.11-0.008
	c0.069-0.108,0.181-0.282,0.191-0.299C7.759,6.805,7.766,6.803,7.771,6.8L7.771,6.8L7.771,6.8L7.771,6.8z M9.158,6.8
	C9.163,6.803,9.17,6.805,9.177,6.807C9.188,6.824,9.3,6.998,9.368,7.106c0.017,0.026,0.1,0.006,0.11,0.008
	C9.522,7.123,9.585,7.17,9.591,7.187c0.004,0.01-0.005,0.026-0.014,0.026c-0.016,0.001-0.03-0.021-0.081-0.037
	C9.449,7.161,9.414,7.177,9.374,7.147c0.002,0.039,0.055,0.07,0.055,0.097c-0.034,0-0.054-0.023-0.054-0.023S9.378,7.248,9.378,7.27
	c0,0.023-0.027,0.036-0.027,0.036S9.336,7.243,9.318,7.218c-0.073-0.099-0.22-0.303-0.246-0.339
	c0.005-0.027,0.009-0.047,0.009-0.047l0.06,0.042C9.159,6.855,9.158,6.8,9.158,6.8L9.158,6.8L9.158,6.8L9.158,6.8z M8.25,6.84
	c0,0-0.328,0.762-0.618,0.879c0,0,0.126,0.054,0.282,0.136C7.937,7.867,7.96,7.88,7.984,7.893c0.02-0.024,0.04-0.05,0.06-0.078
	c0.093-0.126,0.184-0.272,0.184-0.272c0.006,0.038-0.043,0.155-0.126,0.299C8.086,7.87,8.069,7.9,8.05,7.93
	c0.021,0.012,0.042,0.024,0.063,0.037c0.154,0.094,0.298,0.201,0.352,0.3c0.054-0.099,0.198-0.207,0.352-0.3
	C8.838,7.954,8.859,7.942,8.88,7.93C8.861,7.9,8.844,7.87,8.828,7.842C8.745,7.698,8.696,7.581,8.702,7.543
	c0,0,0.091,0.146,0.184,0.272c0.02,0.027,0.041,0.054,0.06,0.078C8.97,7.88,8.993,7.867,9.016,7.855
	c0.155-0.082,0.282-0.136,0.282-0.136C9.007,7.602,8.68,6.84,8.68,6.84L8.632,6.854c0,0,0.261,0.659,0.517,0.858
	C9.091,7.73,9.023,7.755,8.953,7.785C8.868,7.684,8.78,7.548,8.708,7.426C8.631,7.295,8.567,7.065,8.567,7.065
	C8.531,7.153,8.608,7.596,8.762,7.876c-0.128,0.067-0.241,0.14-0.295,0.2c-0.054-0.06-0.168-0.132-0.295-0.2
	c0.154-0.28,0.231-0.723,0.195-0.811c0,0-0.063,0.23-0.141,0.361c-0.072,0.121-0.16,0.258-0.245,0.359
	c-0.07-0.03-0.138-0.056-0.196-0.073c0.256-0.199,0.517-0.858,0.517-0.858L8.25,6.84L8.25,6.84L8.25,6.84z M7.395,7.206
	c0.002,0,0.005,0.001,0.006,0.003c0.003,0.004,0.003,0.01,0,0.013L7.374,7.246C7.37,7.249,7.365,7.248,7.361,7.245
	c-0.003-0.004-0.003-0.01,0-0.013l0.027-0.024C7.391,7.206,7.393,7.205,7.395,7.206L7.395,7.206L7.395,7.206z M9.536,7.206
	c0.002,0,0.005,0,0.006,0.002l0.027,0.024c0.004,0.003,0.004,0.009,0,0.013C9.566,7.249,9.56,7.25,9.556,7.246L9.529,7.222
	C9.525,7.219,9.525,7.213,9.528,7.209C9.531,7.207,9.534,7.206,9.536,7.206L9.536,7.206L9.536,7.206L9.536,7.206z M7.424,7.23
	c0.007-0.001,0.014,0.002,0.019,0.008c0.008,0.009,0.008,0.023-0.001,0.03L7.376,7.326c-0.009,0.008-0.022,0.006-0.03-0.003
	S7.338,7.3,7.347,7.292l0.066-0.058C7.416,7.232,7.42,7.23,7.424,7.23L7.424,7.23z M9.502,7.23c0.002,0,0.004,0,0.005,0
	c0.004,0,0.008,0.002,0.012,0.005l0.066,0.058c0.009,0.008,0.009,0.021,0.001,0.031c-0.008,0.009-0.022,0.011-0.03,0.003L9.49,7.269
	c-0.008-0.008-0.009-0.021-0.001-0.03C9.492,7.234,9.497,7.231,9.502,7.23L9.502,7.23L9.502,7.23z M7.461,7.275
	C7.468,7.274,7.475,7.277,7.48,7.283c0.008,0.009,0.008,0.023-0.001,0.03L7.413,7.371c-0.009,0.008-0.022,0.006-0.03-0.003
	S7.375,7.345,7.384,7.337L7.45,7.279C7.453,7.277,7.457,7.275,7.461,7.275L7.461,7.275L7.461,7.275z M9.465,7.275
	c0.002,0,0.004,0,0.005,0c0.004,0,0.008,0.002,0.011,0.005l0.066,0.058c0.009,0.008,0.009,0.021,0.001,0.031
	C9.54,7.378,9.527,7.38,9.518,7.372L9.452,7.314c-0.009-0.008-0.009-0.021-0.001-0.03C9.455,7.279,9.46,7.276,9.465,7.275
	L9.465,7.275L9.465,7.275z M7.503,7.319C7.51,7.318,7.517,7.321,7.522,7.327C7.53,7.336,7.53,7.35,7.521,7.358L7.455,7.416
	c-0.009,0.008-0.022,0.006-0.03-0.003s-0.008-0.023,0-0.03l0.066-0.058C7.495,7.32,7.499,7.319,7.503,7.319L7.503,7.319z
	 M9.423,7.319c0.002,0,0.004,0,0.005,0c0.004,0,0.008,0.002,0.011,0.004l0.066,0.058c0.009,0.008,0.009,0.021,0,0.03
	C9.497,7.42,9.484,7.422,9.475,7.414L9.409,7.356C9.4,7.348,9.4,7.335,9.408,7.325C9.413,7.322,9.418,7.32,9.423,7.319L9.423,7.319z
	"/>
<path fill="#F3CE22" d="M10.37,5.502l-0.063,0.045l0.032,0.017l0.032,0.016L10.37,5.502L10.37,5.502z M10.309,5.576
	c-0.011,0.001-0.021,0.007-0.027,0.017c-0.008,0.016,0,0.037,0.018,0.046s0.039,0.004,0.047-0.013c0.008-0.016,0-0.037-0.018-0.046
	C10.323,5.577,10.316,5.576,10.309,5.576L10.309,5.576L10.309,5.576z M10.191,5.651c-0.009,0-0.016,0-0.018,0.001
	c-0.007,0.004,0.002,0.063,0.001,0.112c-0.002,0.047-0.017,0.06-0.025,0.076c-0.007,0.015-0.034,0.032-0.034,0.032l0.022,0.022
	c0,0,0.014-0.023,0.037-0.068c0.027-0.053,0.026-0.15,0.034-0.155c0.007-0.004,0.063-0.019,0.063-0.019S10.219,5.651,10.191,5.651
	L10.191,5.651L10.191,5.651L10.191,5.651z M10.288,5.665c0,0-0.059,0.011-0.067,0.02c-0.008,0.008-0.005,0.089-0.036,0.151
	c-0.026,0.052-0.039,0.07-0.039,0.07l0.016,0.008l0.016,0.008c0,0,0.007-0.021,0.033-0.072c0.031-0.062,0.098-0.107,0.1-0.118
	C10.313,5.719,10.288,5.665,10.288,5.665L10.288,5.665L10.288,5.665z M10.307,5.672c0,0,0.021,0.054,0.022,0.063
	s-0.077,0.066-0.104,0.119c-0.023,0.045-0.032,0.07-0.032,0.07l0.031,0.005c0,0-0.002-0.032,0.005-0.047
	c0.008-0.016,0.01-0.036,0.046-0.065c0.038-0.031,0.09-0.057,0.09-0.066C10.365,5.745,10.307,5.672,10.307,5.672L10.307,5.672z
	 M10.132,5.929c-0.01,0.001-0.017,0.007-0.021,0.015c-0.006,0.012-0.003,0.027-0.049,0.12c-0.02,0.041-0.029,0.057-0.051,0.101
	C9.989,6.21,9.956,6.274,9.956,6.274s-0.011,0.021,0.01,0.031c0.021,0.011,0.03-0.011,0.03-0.011s0.033-0.064,0.055-0.109
	c0.022-0.044,0.03-0.061,0.051-0.101c0.047-0.093,0.061-0.099,0.067-0.111s0.005-0.029-0.016-0.04
	C10.145,5.929,10.138,5.928,10.132,5.929L10.132,5.929L10.132,5.929L10.132,5.929z M9.931,6.315
	c-0.008,0.001-0.014,0.004-0.017,0.01C9.908,6.337,9.918,6.353,9.936,6.363c0.018,0.009,0.038,0.008,0.043-0.004
	c0.006-0.011-0.005-0.028-0.023-0.038C9.949,6.316,9.939,6.314,9.931,6.315L9.931,6.315z M9.904,6.371
	C9.891,6.37,9.88,6.375,9.875,6.384C9.868,6.399,9.879,6.42,9.901,6.432C9.923,6.443,9.947,6.44,9.954,6.426
	C9.961,6.411,9.95,6.39,9.928,6.379C9.92,6.374,9.912,6.371,9.904,6.371L9.904,6.371z M9.868,6.441
	C9.86,6.442,9.854,6.445,9.851,6.451C9.845,6.462,9.855,6.479,9.873,6.489c0.018,0.009,0.038,0.008,0.044-0.004
	c0.006-0.011-0.004-0.028-0.022-0.038C9.885,6.442,9.875,6.44,9.868,6.441L9.868,6.441z M9.852,6.501
	C9.841,6.502,9.835,6.514,9.835,6.514S9.717,6.748,9.676,6.831C9.663,6.857,9.607,6.874,9.585,6.917
	C9.563,6.961,9.579,7.002,9.607,7.016C9.636,7.031,9.678,7.02,9.7,6.976c0.022-0.043,0.002-0.099,0.015-0.125
	c0.041-0.082,0.159-0.317,0.159-0.317s0.012-0.021-0.009-0.031C9.86,6.501,9.856,6.501,9.852,6.501L9.852,6.501L9.852,6.501z
	 M9.568,7.041c-0.013,0-0.025,0.007-0.03,0.018C9.529,7.076,9.539,7.1,9.561,7.111c0.021,0.011,0.046,0.006,0.055-0.012
	c0.009-0.018-0.002-0.041-0.023-0.052C9.584,7.042,9.576,7.04,9.568,7.041L9.568,7.041L9.568,7.041z M9.381,7.416
	c-0.007,0-0.012,0.002-0.014,0.007C9.363,7.432,9.372,7.446,9.388,7.454c0.016,0.008,0.033,0.007,0.037-0.001
	C9.43,7.444,9.42,7.43,9.404,7.422C9.395,7.417,9.388,7.416,9.381,7.416L9.381,7.416z M9.326,7.46v0.115l0.093-0.068
	c0,0-0.013-0.022-0.04-0.037C9.351,7.457,9.326,7.46,9.326,7.46L9.326,7.46z"/>
<path fill="#231F20" d="M7.049,6.79c0,0,0.052,0.11,0.092,0.125C7.12,6.909,7.053,6.934,7.053,6.934s0.118,0.107,0.218,0.114
	c0.085,0.006,0.126-0.037,0.126-0.037L7.38,6.92c0,0-0.052-0.063-0.135-0.093C7.162,6.797,7.049,6.79,7.049,6.79L7.049,6.79
	L7.049,6.79z"/>
<path fill="#231F20" d="M7.445,6.594c0,0-0.072,0.063-0.092,0.135c-0.02,0.073,0.013,0.155,0.013,0.155l0.061,0.115
	c0,0,0.084-0.045,0.12-0.113c0.036-0.068,0.023-0.16,0.023-0.16S7.503,6.751,7.495,6.762C7.508,6.687,7.445,6.594,7.445,6.594
	L7.445,6.594L7.445,6.594L7.445,6.594z"/>
<path fill="#231F20" d="M7.212,6.564c0,0-0.082,0.028-0.162,0.023C6.974,6.582,6.91,6.518,6.91,6.518s0.063-0.043,0.094-0.037
	c-0.034-0.013-0.084-0.1-0.084-0.1s0.071-0.022,0.133,0.002C7.116,6.407,7.17,6.476,7.17,6.476L7.212,6.564L7.212,6.564L7.212,6.564
	z"/>
<path fill="#231F20" d="M7.24,6.157c0,0,0.041,0.086,0.031,0.116c0.013-0.02,0.061-0.051,0.061-0.051s0.029,0.14,0.001,0.226
	S7.22,6.567,7.22,6.567L7.126,6.382c0,0-0.014-0.068,0.015-0.123C7.172,6.206,7.24,6.157,7.24,6.157L7.24,6.157L7.24,6.157z"/>
<path fill="#231F20" d="M6.704,5.929c0,0,0.089-0.009,0.17,0.025c0.068,0.029,0.089,0.081,0.089,0.081l0.034,0.091
	c0,0-0.097,0.037-0.173,0.009C6.747,6.107,6.691,6.014,6.691,6.014s0.054-0.021,0.074-0.013C6.735,5.986,6.704,5.929,6.704,5.929
	L6.704,5.929L6.704,5.929L6.704,5.929z"/>
<path fill="#231F20" d="M6.984,5.76c0,0,0.039,0.051,0.04,0.109c0.01-0.031,0.059-0.065,0.059-0.065s0.05,0.123,0.039,0.21
	S7.039,6.153,7.039,6.153L6.949,5.98c0,0-0.029-0.071-0.021-0.126C6.938,5.799,6.984,5.76,6.984,5.76L6.984,5.76L6.984,5.76z"/>
<path fill="#231F20" d="M6.676,5.429c0,0-0.016,0.094,0.011,0.148c0.025,0.048,0.04,0.059,0.04,0.059
	C6.68,5.605,6.609,5.602,6.609,5.602s0.025,0.102,0.085,0.149c0.06,0.047,0.153,0.036,0.153,0.036s0.061-0.082,0.057-0.171
	S6.83,5.433,6.83,5.433S6.803,5.491,6.8,5.534C6.784,5.489,6.676,5.429,6.676,5.429L6.676,5.429L6.676,5.429z"/>
<path fill="#008F72" d="M6.703,5.486c0,0-0.002,0.069,0.02,0.108c0.023,0.039,0.073,0.055,0.073,0.055s0.002-0.069-0.02-0.108
	C6.754,5.502,6.703,5.486,6.703,5.486z"/>
<path fill="#008F72" d="M6.656,5.642c0,0,0.059,0.003,0.093,0.03c0.034,0.026,0.047,0.082,0.047,0.082S6.757,5.758,6.723,5.732
	C6.689,5.705,6.656,5.642,6.656,5.642z"/>
<path fill="#008F72" d="M6.842,5.503c0,0-0.02,0.046-0.017,0.095c0.002,0.049,0.031,0.105,0.031,0.105s0.026-0.059,0.023-0.108
	C6.876,5.545,6.849,5.517,6.842,5.503L6.842,5.503z"/>
<path fill="#008F72" d="M6.742,5.946c0,0,0.029,0.041,0.074,0.063s0.111,0.023,0.111,0.023S6.894,5.988,6.849,5.966
	C6.805,5.944,6.742,5.946,6.742,5.946L6.742,5.946L6.742,5.946z"/>
<path fill="#008F72" d="M6.757,6.041c0,0,0.021,0.042,0.06,0.06c0.039,0.018,0.119,0.017,0.119,0.017s-0.031-0.04-0.07-0.058
	C6.827,6.042,6.757,6.041,6.757,6.041L6.757,6.041z"/>
<path fill="#008F72" d="M6.981,5.816c0,0-0.024,0.039-0.021,0.083C6.962,5.942,6.99,5.99,6.99,5.99s0.02-0.054,0.017-0.098
	C7.005,5.848,6.981,5.816,6.981,5.816L6.981,5.816z"/>
<path fill="#008F72" d="M7.068,5.872c0,0-0.04,0.055-0.046,0.111C7.016,6.039,7.045,6.097,7.045,6.097S7.094,6.048,7.1,5.991
	C7.105,5.935,7.068,5.872,7.068,5.872L7.068,5.872L7.068,5.872z"/>
<path fill="#008F72" d="M6.957,6.392c0,0,0.005,0.02,0.022,0.042c0.017,0.021,0.046,0.044,0.046,0.044s0.028-0.009,0.062-0.001
	c0.035,0.008,0.081,0.039,0.081,0.039s-0.05-0.075-0.101-0.104C7.015,6.382,6.957,6.392,6.957,6.392L6.957,6.392L6.957,6.392z"/>
<path fill="#008F72" d="M6.952,6.52c0,0,0.064-0.028,0.117-0.021c0.053,0.007,0.1,0.049,0.1,0.049S7.098,6.573,7.045,6.566
	C6.992,6.56,6.952,6.52,6.952,6.52L6.952,6.52L6.952,6.52L6.952,6.52z"/>
<path fill="#008F72" d="M7.223,6.218c0,0-0.057,0.061-0.061,0.114C7.157,6.385,7.208,6.434,7.208,6.434S7.206,6.4,7.214,6.378
	c0.009-0.022,0.027-0.046,0.027-0.046s0.008-0.027,0.005-0.049C7.241,6.252,7.223,6.218,7.223,6.218L7.223,6.218z"/>
<path fill="#008F72" d="M7.304,6.289c0,0-0.053,0.055-0.068,0.113C7.222,6.461,7.247,6.523,7.247,6.523S7.296,6.484,7.31,6.426
	C7.325,6.367,7.304,6.289,7.304,6.289L7.304,6.289L7.304,6.289z"/>
<path fill="#008F72" d="M7.438,6.642c0,0,0.024,0.051,0.03,0.094s0,0.058,0,0.058s-0.025,0.025-0.036,0.04
	C7.418,6.853,7.415,6.887,7.415,6.887s-0.05-0.076-0.043-0.131C7.381,6.7,7.438,6.642,7.438,6.642L7.438,6.642L7.438,6.642z"/>
<path fill="#008F72" d="M7.544,6.761c0,0-0.064,0.043-0.09,0.087S7.442,6.937,7.442,6.937s0.046-0.004,0.071-0.048
	C7.539,6.845,7.544,6.761,7.544,6.761L7.544,6.761L7.544,6.761L7.544,6.761z"/>
<path fill="#008F72" d="M7.121,6.943c0,0,0.093-0.003,0.15,0.012C7.328,6.969,7.348,7,7.348,7S7.284,7.03,7.227,7.016
	C7.171,7.001,7.121,6.942,7.121,6.943L7.121,6.943L7.121,6.943z"/>
<path fill="#008F72" d="M7.105,6.831c0,0,0.042,0.066,0.096,0.09c0.075,0.033,0.161,0.017,0.161,0.017S7.315,6.88,7.251,6.854
	C7.186,6.828,7.105,6.831,7.105,6.831L7.105,6.831L7.105,6.831L7.105,6.831z"/>
<path fill="#231F20" d="M7.403,7.007l0.003,0.034C7.461,7.042,7.47,7.036,7.484,7.054c0.009,0.012,0.032,0.022,0.055,0.012
	c0.023-0.01,0.033-0.038,0.022-0.061C7.551,6.982,7.53,6.977,7.509,6.981C7.497,6.984,7.488,6.994,7.478,6.999
	C7.458,7.009,7.403,7.007,7.403,7.007L7.403,7.007L7.403,7.007z"/>
<path fill="#231F20" d="M7.398,6.981l0.027,0.02C7.396,7.049,7.387,7.053,7.394,7.075c0.005,0.014,0.002,0.039-0.019,0.053
	C7.354,7.142,7.326,7.136,7.312,7.115S7.305,7.073,7.319,7.058C7.328,7.049,7.34,7.047,7.351,7.041
	C7.371,7.029,7.398,6.981,7.398,6.981L7.398,6.981L7.398,6.981z"/>
<path fill="#231F20" d="M7.21,6.579l0.003,0.034c0.055,0.001,0.064-0.005,0.078,0.013C7.3,6.638,7.323,6.648,7.346,6.638
	C7.369,6.628,7.379,6.6,7.368,6.577c-0.01-0.023-0.031-0.028-0.052-0.024C7.304,6.555,7.295,6.566,7.285,6.571
	C7.265,6.581,7.21,6.579,7.21,6.579L7.21,6.579L7.21,6.579z"/>
<path fill="#231F20" d="M7.222,6.591l0.024,0.024C7.21,6.658,7.2,6.66,7.204,6.683C7.207,6.698,7.2,6.722,7.177,6.732
	s-0.05,0-0.06-0.023s0-0.042,0.016-0.055c0.01-0.008,0.023-0.008,0.034-0.012C7.187,6.634,7.222,6.591,7.222,6.591L7.222,6.591
	L7.222,6.591L7.222,6.591z"/>
<path fill="#231F20" d="M7.024,6.179l0.003,0.034c0.055,0.001,0.064-0.005,0.078,0.013C7.114,6.238,7.137,6.248,7.16,6.238
	C7.183,6.228,7.193,6.2,7.182,6.177C7.172,6.154,7.151,6.149,7.13,6.153C7.118,6.155,7.109,6.166,7.099,6.171
	C7.078,6.181,7.024,6.179,7.024,6.179L7.024,6.179L7.024,6.179z"/>
<path fill="#231F20" d="M7.039,6.172l0.024,0.024C7.027,6.239,7.017,6.241,7.021,6.264c0.003,0.015-0.004,0.039-0.027,0.049
	s-0.05,0-0.06-0.023s0-0.042,0.016-0.055c0.01-0.008,0.023-0.008,0.034-0.012C7.005,6.215,7.039,6.172,7.039,6.172L7.039,6.172
	L7.039,6.172z"/>
<path fill="#231F20" d="M6.825,5.757l0.002,0.034c0.055,0.001,0.064-0.005,0.078,0.013C6.914,5.816,6.937,5.826,6.96,5.816
	c0.023-0.01,0.033-0.038,0.022-0.061C6.972,5.732,6.951,5.727,6.93,5.731C6.918,5.733,6.909,5.744,6.899,5.749
	C6.879,5.759,6.825,5.757,6.825,5.757L6.825,5.757L6.825,5.757L6.825,5.757z"/>
<path fill="#231F20" d="M6.84,5.75l0.024,0.024C6.828,5.817,6.818,5.819,6.822,5.842c0.003,0.015-0.004,0.039-0.027,0.049
	s-0.05,0-0.06-0.023s0-0.042,0.016-0.055c0.01-0.008,0.023-0.008,0.034-0.012C6.806,5.793,6.84,5.75,6.84,5.75L6.84,5.75L6.84,5.75
	L6.84,5.75L6.84,5.75z"/>
<path fill="#F3CE22" d="M7.175,6.479C7.155,6.487,7.126,6.4,7.104,6.352C7.082,6.303,7.037,6.227,7.049,6.221
	c0.014-0.007,0.033,0.033,0.055,0.084C7.128,6.355,7.194,6.471,7.175,6.479L7.175,6.479L7.175,6.479L7.175,6.479z"/>
<path fill="#F3CE22" d="M6.971,6.018c-0.02,0.008-0.042-0.049-0.063-0.097c-0.022-0.049-0.044-0.084-0.031-0.09
	C6.891,5.825,6.912,5.868,6.93,5.908C6.947,5.947,6.989,6.01,6.971,6.018L6.971,6.018z"/>
<path fill="#F3CE22" d="M7.443,7.064c-0.016,0.004-0.084-0.14-0.139-0.262C7.249,6.68,7.208,6.581,7.221,6.575
	C7.235,6.569,7.28,6.684,7.335,6.806C7.39,6.928,7.455,7.061,7.443,7.064L7.443,7.064z"/>
<path fill="#C7354F" d="M8.016,3.809c0,0,0.023-0.044,0.081-0.044c0.024,0,0.104-0.002,0.104-0.002
	C8.212,3.791,8.26,3.838,8.26,3.886c0,0-0.049-0.09-0.186-0.09C8.038,3.797,8.016,3.809,8.016,3.809L8.016,3.809L8.016,3.809z"/>
<path fill="#231F20" d="M8.192,3.821c0,0-0.034-0.011-0.034-0.022c0-0.015,0.016-0.015,0.026-0.003
	C8.192,3.803,8.192,3.821,8.192,3.821L8.192,3.821L8.192,3.821z"/>
<path fill="#CB354A" d="M8.239,3.903c0,0-0.029,0.031-0.036,0.048C8.174,3.94,8.124,3.887,8.124,3.887S8.167,3.913,8.239,3.903
	L8.239,3.903z"/>
<path fill="#231F20" d="M8.386,3.822c0,0.021-0.022,0.039-0.048,0.039c-0.027,0-0.048-0.017-0.048-0.039l0,0
	c0-0.021,0.022-0.039,0.048-0.039C8.364,3.783,8.386,3.8,8.386,3.822L8.386,3.822z"/>
<path fill="#F3CE22" d="M8.371,3.822c0,0.019-0.015,0.034-0.034,0.034S8.303,3.841,8.303,3.822s0.015-0.034,0.034-0.034
	S8.371,3.803,8.371,3.822z"/>
<path fill="#231F20" d="M8.352,3.822c0,0.008-0.006,0.015-0.014,0.015c-0.008,0-0.014-0.006-0.015-0.014V3.822
	c0-0.008,0.006-0.015,0.014-0.015C8.345,3.807,8.352,3.813,8.352,3.822C8.352,3.821,8.352,3.821,8.352,3.822z"/>
<path fill="#F3CE22" d="M7.462,4.762c0,0,0.082,0.062,0.082,0.126v1.311v0.199c0,0.04,0.012,0.066,0.031,0.091
	c0.019,0.027,0.06,0.065,0.103,0.093C7.81,6.669,8.03,6.76,8.196,6.836c0.139,0.064,0.195,0.09,0.267,0.18
	c0.072-0.09,0.129-0.116,0.268-0.18c0.166-0.077,0.387-0.168,0.518-0.254c0.043-0.028,0.084-0.066,0.103-0.093
	c0.019-0.025,0.031-0.051,0.031-0.091V6.199V4.888c0-0.063,0.082-0.126,0.082-0.126H9.377H9.326H8.462H7.599H7.548H7.462
	L7.462,4.762L7.462,4.762L7.462,4.762z M7.567,4.81H7.6h0.864h0.863H9.36c0,0-0.024,0.029-0.024,0.078v1.311v0.199
	c0,0.033-0.034,0.11-0.229,0.208c-0.322,0.162-0.57,0.238-0.644,0.331C8.389,6.845,8.141,6.769,7.819,6.606
	C7.624,6.508,7.59,6.431,7.59,6.398V6.199V4.888C7.592,4.839,7.567,4.81,7.567,4.81L7.567,4.81L7.567,4.81z"/>
</svg>
