<?xml version="1.0" encoding="utf-8"?>
<!-- Generator: Adobe Illustrator 17.0.0, SVG Export Plug-In . SVG Version: 6.00 Build 0)  -->
<!DOCTYPE svg PUBLIC "-//W3C//DTD SVG 1.1//EN" "http://www.w3.org/Graphics/SVG/1.1/DTD/svg11.dtd">
<svg version="1.1" id="Слой_1" xmlns="http://www.w3.org/2000/svg" xmlns:xlink="http://www.w3.org/1999/xlink" x="0px" y="0px"
	 width="17px" height="12px" viewBox="232.445 164.078 17 12" enable-background="new 232.445 164.078 17 12" xml:space="preserve">
<rect x="232.445" y="164.078" fill="#FFFFFF" stroke="#000000" stroke-width="0.0202" width="8.5" height="12"/>
<rect x="240.945" y="164.078" fill="#EC1C2E" stroke="#000000" stroke-width="0.0202" width="8.5" height="12"/>
<g>
	<path fill="#EC1C2E" d="M235.07,164.742v0.873c0.046,0.013,0.099,0.045,0.145,0.091c0.046,0.046,0.078,0.099,0.091,0.145h0.872
		v1.179h-0.872c-0.013,0.046-0.045,0.099-0.091,0.145c-0.046,0.046-0.099,0.078-0.145,0.091v0.873h-1.178v-0.873
		c-0.046-0.013-0.099-0.045-0.145-0.091c-0.046-0.046-0.078-0.099-0.091-0.145h-0.872v-1.179h0.872
		c0.013-0.046,0.045-0.099,0.091-0.145c0.046-0.046,0.099-0.078,0.145-0.091v-0.873H235.07z"/>
	<g>
		<rect x="234.98" y="164.833" fill="#A6B0B6" stroke="#A6B0B6" stroke-width="0.0207" width="0.014" height="0.873"/>
		<rect x="234.98" y="167.197" fill="#A6B0B6" stroke="#A6B0B6" stroke-width="0.0207" width="0.014" height="0.852"/>
		<rect x="235.229" y="166.94" fill="#A6B0B6" stroke="#A6B0B6" stroke-width="0.0207" width="0.872" height="0.014"/>
		<rect x="232.876" y="166.94" fill="#A6B0B6" stroke="#A6B0B6" stroke-width="0.0207" width="0.86" height="0.014"/>
		<rect x="236.087" y="165.942" fill="#A6B0B6" stroke="#A6B0B6" stroke-width="0.0207" width="0.014" height="0.998"/>
		<rect x="233.983" y="168.048" fill="#A6B0B6" stroke="#A6B0B6" stroke-width="0.0207" width="1.011" height="0.014"/>
	</g>
	<path fill="#E2E3E4" stroke="#A6B0B6" stroke-width="0.0207" d="M236.087,165.942h-0.85c0.003-0.049-0.02-0.124-0.077-0.181
		c-0.057-0.057-0.13-0.08-0.18-0.077v-0.851h-0.996v0.852c-0.049-0.003-0.123,0.021-0.18,0.078c-0.056,0.057-0.081,0.13-0.078,0.179
		h-0.849v0.998h0.85c-0.003,0.049,0.021,0.123,0.078,0.18c0.057,0.057,0.13,0.081,0.179,0.078v0.851h0.996v-0.852
		c0.049,0.003,0.124-0.02,0.181-0.077c0.056-0.057,0.08-0.131,0.077-0.18h0.849V165.942z"/>
	<g>
		<path d="M233.885,165.843"/>
		<path fill="#E2E3E4" stroke="#A6B0B6" stroke-width="0.0207" stroke-linejoin="bevel" d="M233.887,165.724
			c0.012,0.042,0.102,0.116,0.126,0.122c-0.007,0.022-0.028,0.047-0.044,0.063c-0.005-0.054-0.087-0.132-0.134-0.149
			c0.014,0.017,0.08,0.14,0.101,0.177c-0.035-0.014-0.137-0.049-0.166-0.059c-0.001-0.022,0.003-0.034,0.007-0.05
			c0.013,0.02,0.053,0.035,0.086,0.046c-0.005-0.024-0.043-0.086-0.07-0.085C233.806,165.764,233.847,165.728,233.887,165.724z"/>
		<path fill="#E2E3E4" stroke="#A6B0B6" stroke-width="0.0207" d="M233.94,165.726c-0.03-0.009-0.083-0.006-0.131,0.042
			c-0.04,0.04-0.057,0.13-0.018,0.169c0.039,0.039,0.129,0.022,0.169-0.018c0.037-0.037,0.088-0.109,0.047-0.15
			c-0.008-0.008-0.02-0.012-0.034-0.009l0.053-0.053c0.055,0.055,0.008,0.149-0.06,0.217c-0.049,0.049-0.141,0.086-0.219,0.061
			c-0.057-0.047,0.008-0.174,0.057-0.223c0.038-0.038,0.102-0.077,0.18-0.077v0.006L233.94,165.726z"/>
		<path fill="#A6B0B6" d="M233.804,165.762c0.038-0.038,0.102-0.077,0.18-0.077v0.006l-0.043,0.035
			c-0.03-0.009-0.083-0.006-0.131,0.042L233.804,165.762z"/>
	</g>
	<g>
		<path d="M233.885,167.039"/>
		<path fill="#E2E3E4" stroke="#A6B0B6" stroke-width="0.0207" stroke-linejoin="bevel" d="M233.766,167.037
			c0.042-0.012,0.116-0.102,0.122-0.126c0.022,0.007,0.047,0.028,0.063,0.044c-0.054,0.005-0.132,0.087-0.149,0.134
			c0.017-0.014,0.14-0.08,0.177-0.101c-0.014,0.036-0.049,0.137-0.059,0.167c-0.022,0.001-0.034-0.003-0.05-0.007
			c0.02-0.013,0.035-0.053,0.046-0.086c-0.024,0.005-0.086,0.043-0.085,0.071C233.806,167.118,233.769,167.077,233.766,167.037z"/>
		<path fill="#E2E3E4" stroke="#A6B0B6" stroke-width="0.0207" d="M233.768,166.984c-0.009,0.031-0.006,0.084,0.042,0.131
			c0.04,0.04,0.13,0.057,0.169,0.018c0.039-0.039,0.022-0.129-0.018-0.169c-0.037-0.037-0.108-0.088-0.15-0.047
			c-0.008,0.008-0.012,0.02-0.009,0.034l-0.053-0.053c0.055-0.055,0.149-0.008,0.217,0.06c0.049,0.049,0.086,0.141,0.061,0.219
			c-0.047,0.057-0.174-0.008-0.222-0.057c-0.038-0.038-0.077-0.102-0.077-0.18h0.006L233.768,166.984z"/>
		<path fill="#A6B0B6" d="M233.804,167.12c-0.038-0.038-0.077-0.102-0.077-0.18h0.006l0.035,0.043
			c-0.009,0.031-0.006,0.084,0.042,0.131L233.804,167.12z"/>
	</g>
	<g>
		<path d="M235.079,167.038"/>
		<path fill="#E2E3E4" stroke="#A6B0B6" stroke-width="0.0207" stroke-linejoin="bevel" d="M235.077,167.157
			c-0.012-0.042-0.102-0.116-0.126-0.122c0.007-0.022,0.028-0.047,0.044-0.063c0.005,0.054,0.087,0.132,0.134,0.149
			c-0.014-0.017-0.08-0.14-0.101-0.177c0.035,0.014,0.137,0.049,0.166,0.059c0.001,0.022-0.003,0.034-0.007,0.05
			c-0.013-0.02-0.053-0.035-0.086-0.046c0.005,0.024,0.043,0.086,0.07,0.085C235.158,167.117,235.117,167.154,235.077,167.157z"/>
		<path fill="#E2E3E4" stroke="#A6B0B6" stroke-width="0.0207" d="M235.024,167.156c0.03,0.009,0.083,0.006,0.131-0.042
			c0.04-0.04,0.057-0.13,0.018-0.169c-0.039-0.039-0.129-0.022-0.169,0.018c-0.037,0.037-0.088,0.109-0.047,0.15
			c0.008,0.008,0.02,0.012,0.034,0.009l-0.053,0.053c-0.055-0.055-0.008-0.149,0.06-0.217c0.049-0.049,0.141-0.086,0.219-0.061
			c0.057,0.047-0.008,0.174-0.057,0.223c-0.038,0.038-0.102,0.077-0.18,0.077v-0.006L235.024,167.156z"/>
		<path fill="#A6B0B6" d="M235.16,167.119c-0.038,0.038-0.102,0.077-0.18,0.077v-0.006l0.043-0.035
			c0.03,0.009,0.083,0.006,0.131-0.042L235.16,167.119z"/>
	</g>
	<g>
		<path d="M235.079,165.843"/>
		<path fill="#E2E3E4" stroke="#A6B0B6" stroke-width="0.0207" stroke-linejoin="bevel" d="M235.198,165.845
			c-0.042,0.012-0.116,0.102-0.122,0.126c-0.022-0.007-0.047-0.028-0.063-0.044c0.054-0.005,0.132-0.087,0.149-0.134
			c-0.017,0.014-0.14,0.08-0.177,0.101c0.014-0.036,0.049-0.137,0.059-0.167c0.022-0.001,0.034,0.003,0.05,0.007
			c-0.02,0.013-0.035,0.053-0.046,0.086c0.024-0.005,0.086-0.043,0.085-0.071C235.158,165.764,235.194,165.805,235.198,165.845z"/>
		<path fill="#E2E3E4" stroke="#A6B0B6" stroke-width="0.0207" d="M235.196,165.898c0.009-0.031,0.006-0.084-0.042-0.131
			c-0.04-0.04-0.13-0.057-0.169-0.018c-0.039,0.039-0.022,0.129,0.018,0.169c0.037,0.037,0.108,0.088,0.15,0.047
			c0.008-0.008,0.012-0.02,0.009-0.034l0.053,0.053c-0.055,0.055-0.149,0.008-0.217-0.06c-0.049-0.049-0.086-0.141-0.061-0.219
			c0.047-0.057,0.173,0.008,0.222,0.057c0.038,0.038,0.077,0.102,0.077,0.18h-0.006L235.196,165.898z"/>
		<path fill="#A6B0B6" d="M235.16,165.762c0.038,0.038,0.077,0.102,0.077,0.18h-0.006l-0.035-0.043
			c0.009-0.031,0.006-0.084-0.042-0.131L235.16,165.762z"/>
	</g>
	<g>
		<rect x="234.913" y="164.9" fill="#A6B0B6" stroke="#A6B0B6" stroke-width="0.0207" width="0.014" height="1.109"/>
		<rect x="232.942" y="166.873" fill="#A6B0B6" stroke="#A6B0B6" stroke-width="0.0207" width="1.107" height="0.014"/>
		<rect x="236.02" y="166.009" fill="#A6B0B6" stroke="#A6B0B6" stroke-width="0.0207" width="0.014" height="0.865"/>
		<rect x="234.913" y="166.873" fill="#A6B0B6" stroke="#A6B0B6" stroke-width="0.0207" width="0.014" height="1.109"/>
		<rect x="234.927" y="166.873" fill="#A6B0B6" stroke="#A6B0B6" stroke-width="0.0207" width="1.107" height="0.014"/>
		<rect x="234.05" y="167.982" fill="#A6B0B6" stroke="#A6B0B6" stroke-width="0.0207" width="0.878" height="0.014"/>
	</g>
	<polygon fill="#E2E3E4" stroke="#A6B0B6" stroke-width="0.0207" points="234.05,166.873 232.942,166.873 232.942,166.009 
		234.05,166.009 234.05,164.9 234.913,164.9 234.913,166.009 236.02,166.009 236.02,166.873 234.913,166.873 234.913,167.982 
		234.05,167.982 	"/>
	<g>
		<circle fill="#A6B0B6" stroke="#A6B0B6" stroke-width="0.0207" cx="234.49" cy="166.45" r="0.732"/>
		<path fill="#A6B0B6" stroke="#A6B0B6" stroke-width="0.0207" d="M234.49,166.45"/>
	</g>
	<g>
		<circle fill="#E2E3E4" stroke="#A6B0B6" stroke-width="0.0207" cx="234.481" cy="166.441" r="0.732"/>
		<path fill="#E2E3E4" stroke="#A6B0B6" stroke-width="0.0207" d="M234.481,166.441"/>
	</g>
	<g>
		<circle fill="#E2E3E4" stroke="#A6B0B6" stroke-width="0.0207" cx="234.481" cy="166.441" r="0.51"/>
		<path fill="#E2E3E4" stroke="#A6B0B6" stroke-width="0.0207" d="M234.481,166.441"/>
	</g>
	<g>
		<g>
			<path fill="#A6B0B6" d="M234.06,166.783l-0.004,0.002c-0.007-0.008-0.016-0.018-0.028-0.011l-0.1,0.059
				c-0.012,0.007-0.008,0.019-0.004,0.03l-0.004,0.002l-0.072-0.124l0.043-0.025l0.003,0.006c-0.027,0.016-0.024,0.045-0.016,0.058
				c0.004,0.007,0.008,0.014,0.012,0.02c0.003,0.005,0.006,0.006,0.018-0.001c0.009-0.005,0.046-0.027,0.046-0.027
				c-0.005-0.008-0.014-0.031-0.049-0.018l-0.002-0.004l0.069-0.04l0.003,0.005c-0.034,0.024-0.018,0.045-0.013,0.053l0.047-0.027
				c0.012-0.007,0.009-0.017,0.006-0.026l0.004-0.002L234.06,166.783z"/>
		</g>
		<path fill="#A6B0B6" d="M233.951,166.542c-0.005-0.026-0.04-0.036-0.082-0.028c-0.041,0.007-0.072,0.028-0.068,0.054
			c0.005,0.027,0.041,0.036,0.082,0.029C233.925,166.589,233.956,166.568,233.951,166.542l0.005-0.001
			c0.009,0.051-0.022,0.087-0.066,0.094c-0.044,0.008-0.085-0.015-0.094-0.067c-0.009-0.052,0.022-0.087,0.066-0.094
			c0.044-0.008,0.085,0.015,0.094,0.067L233.951,166.542z"/>
		<path fill="#A6B0B6" d="M233.872,166.348c0.007-0.04-0.007-0.049-0.028-0.053c-0.021-0.004-0.036,0.006-0.039,0.022
			c-0.002,0.01,0,0.017,0.007,0.019L233.872,166.348l0.006,0.001l0.053,0.011c0.013,0.003,0.018-0.007,0.022-0.015l0.005,0.001
			l-0.015,0.077l-0.005-0.001c0.001-0.011-0.001-0.02-0.014-0.023l-0.114-0.023c-0.013-0.003-0.019,0.009-0.023,0.019l-0.005-0.001
			l0.016-0.078c0.008-0.038,0.026-0.065,0.055-0.059c0.021,0.004,0.031,0.022,0.032,0.045l0.081-0.034
			c0.002-0.001,0.004-0.004,0.005-0.007l0.005,0.001l-0.009,0.046l-0.086,0.035c-0.001,0.004-0.001,0.006-0.001,0.006
			L233.872,166.348z"/>
		<g>
			<path fill="#A6B0B6" d="M234.087,166.084c-0.033,0.036-0.08,0.044-0.119,0.008c-0.038-0.035-0.033-0.083-0.004-0.115
				c0.013-0.014,0.026-0.02,0.035-0.025c0.01-0.005,0.008-0.012,0.006-0.018l0.004-0.005l0.039,0.036l-0.004,0.005
				c-0.036-0.015-0.061-0.003-0.075,0.013c-0.008,0.009-0.023,0.035,0.026,0.08c0.049,0.044,0.073,0.031,0.087,0.016
				c0.007-0.008,0.013-0.02,0.005-0.028c-0.008-0.007-0.02-0.018-0.023-0.021c-0.01-0.009-0.018-0.004-0.026,0.002l-0.003-0.003
				l0.052-0.057l0.003,0.003c-0.006,0.009-0.01,0.018,0,0.027c0.01,0.009,0.03,0.027,0.03,0.027
				C234.116,166.046,234.099,166.07,234.087,166.084z"/>
		</g>
		<path fill="#A6B0B6" d="M234.204,165.919l0.025-0.012c-0.045-0.039-0.047-0.041-0.047-0.041s0.002,0.022,0.004,0.062
			L234.204,165.919l0.004,0.009l-0.021,0.011c0,0.007,0.001,0.014,0.001,0.022c0.001,0.02,0.012,0.016,0.025,0.013l0.002,0.004
			L234.172,166l-0.002-0.004c0.006-0.004,0.009-0.015,0.009-0.026c-0.009-0.149-0.009-0.15-0.009-0.15l0.008-0.004
			c0,0,0.005,0.004,0.112,0.098c0.008,0.007,0.013,0.014,0.028,0.009l0.002,0.004l-0.072,0.036l-0.002-0.004
			c0.014-0.009,0.022-0.016,0.011-0.027c-0.007-0.006-0.014-0.012-0.019-0.017l-0.029,0.014L234.204,165.919z"/>
		<g>
			<path fill="#A6B0B6" d="M234.418,165.747l0.001,0.005c-0.011,0.003-0.021,0.007-0.019,0.021l0.011,0.113
				c0.001,0.013,0.008,0.017,0.015,0.016c0.006-0.001,0.013-0.001,0.021-0.002c0.018-0.002,0.041-0.018,0.046-0.051l0.007-0.001
				l-0.004,0.055l-0.141,0.014l0-0.005c0.01-0.003,0.023-0.007,0.021-0.021l-0.012-0.116c-0.001-0.014-0.012-0.016-0.022-0.016
				l0-0.005L234.418,165.747z"/>
		</g>
		<g>
			<path fill="#A6B0B6" d="M234.652,165.764l-0.001,0.005c-0.011-0.001-0.022,0-0.025,0.013l-0.026,0.11
				c-0.003,0.013,0.002,0.019,0.009,0.02c0.006,0.001,0.012,0.003,0.02,0.005c0.018,0.004,0.045-0.003,0.06-0.033l0.007,0.002
				l-0.022,0.05l-0.137-0.033l0.001-0.005c0.011,0.001,0.024,0.001,0.027-0.013l0.027-0.113c0.003-0.013-0.006-0.019-0.016-0.023
				l0.001-0.005L234.652,165.764z"/>
		</g>
		<path fill="#A6B0B6" d="M234.801,165.939l0.02,0.014c0.011-0.059,0.012-0.061,0.012-0.061s-0.018,0.012-0.052,0.035
			L234.801,165.939l-0.005,0.009l-0.023-0.015c-0.006,0.004-0.012,0.008-0.019,0.012c-0.017,0.011-0.008,0.018,0.001,0.028
			l-0.003,0.004l-0.041-0.027l0.003-0.004c0.007,0.003,0.018,0.001,0.027-0.005c0.124-0.082,0.125-0.083,0.125-0.083l0.007,0.005
			c0,0-0.001,0.007-0.028,0.146c-0.002,0.01-0.006,0.018,0.006,0.029l-0.003,0.004l-0.067-0.045l0.003-0.004
			c0.015,0.007,0.025,0.011,0.029-0.004c0.002-0.009,0.003-0.018,0.005-0.025l-0.024-0.016L234.801,165.939z"/>
		<g>
			<path fill="#A6B0B6" d="M235.005,165.981c0.001-0.004-0.001-0.006-0.003-0.008l0.004-0.003l0.03,0.042l-0.034,0.129l0.065-0.046
				c0.011-0.008,0.008-0.018,0.003-0.027l0.004-0.003l0.027,0.038l-0.004,0.003c-0.007-0.008-0.014-0.012-0.025-0.004l-0.113,0.081
				l-0.005-0.007l0.043-0.163l-0.086,0.062c-0.011,0.008-0.008,0.018-0.003,0.027l-0.004,0.003l-0.028-0.039l0.004-0.003
				c0.007,0.008,0.016,0.014,0.027,0.006l0.094-0.067L235.005,165.981z"/>
		</g>
		<g>
			<path fill="#A6B0B6" d="M234.99,166.257l0.004-0.001c0.004,0.008,0.01,0.017,0.023,0.013l0.126-0.036l-0.002-0.008
				c-0.005-0.016-0.024-0.033-0.047-0.026l-0.001-0.005l0.045-0.013l0.039,0.137l-0.045,0.013l-0.001-0.005
				c0.023-0.007,0.031-0.031,0.026-0.047l-0.002-0.008l-0.126,0.036c-0.013,0.004-0.013,0.014-0.013,0.024l-0.005,0.001
				L234.99,166.257z"/>
		</g>
		<path fill="#A6B0B6" d="M235.105,166.463c-0.002,0.04,0.013,0.047,0.034,0.049c0.021,0.002,0.035-0.01,0.036-0.027
			c0-0.01-0.002-0.017-0.009-0.018l-0.054-0.004l-0.006,0l-0.062-0.004c-0.014-0.001-0.018,0.009-0.02,0.018l-0.005,0l0.006-0.079
			l0.005,0c0.001,0.011,0.003,0.02,0.017,0.021l0.116,0.008c0.014,0.001,0.018-0.011,0.02-0.022l0.005,0l-0.006,0.08
			c-0.003,0.038-0.017,0.068-0.047,0.066c-0.022-0.002-0.033-0.018-0.037-0.041l-0.076,0.043c-0.002,0.001-0.003,0.004-0.004,0.008
			l-0.005,0l0.003-0.046l0.081-0.046c0-0.004,0-0.006,0-0.006L235.105,166.463z"/>
		<g>
			<path fill="#A6B0B6" d="M234.985,166.7c-0.012-0.006-0.021,0.004-0.027,0.013l-0.004-0.002l0.037-0.077l0.004,0.002
				c-0.003,0.01-0.006,0.023,0.007,0.029c0.009,0.004,0.038,0.018,0.038,0.018s0.038-0.003,0.085-0.006
				c0.013-0.001,0.019-0.001,0.025-0.01l0.004,0.002l-0.034,0.071l-0.004-0.002c0.004-0.012,0.007-0.024-0.008-0.022
				c-0.021,0.001-0.068,0.005-0.068,0.005l0.031,0.05c0.013,0.02,0.023,0.009,0.03-0.002l0.004,0.002l-0.024,0.049l-0.004-0.002
				c0.002-0.011,0-0.02-0.009-0.033l-0.039-0.064C235.029,166.721,234.994,166.704,234.985,166.7z"/>
		</g>
	</g>
	<g>
		<path fill="#A6B0B6" d="M234.429,165.984c0.015-0.018,0.039-0.01,0.047-0.017c0.008-0.007,0.029,0.005,0.038,0.022
			c0.016,0.002,0.035-0.002,0.041-0.008c0.006-0.006,0.02-0.01,0.033,0.008c0.023,0.031,0.077,0.04,0.11,0.063
			c0.039,0.028,0.079,0.071-0.035,0.107c0.042,0.042,0.064,0.087,0.07,0.113c0.053-0.046,0.077-0.055,0.103-0.035
			s0.068,0.046,0.091,0.051c0.023,0.006,0.05,0.029,0.048,0.055c-0.002,0.026-0.016,0.044-0.038,0.043
			c-0.021-0.001-0.023-0.011-0.03-0.03c-0.007-0.019-0.033-0.023-0.058-0.037c-0.037-0.02-0.036-0.016-0.062,0.003
			c-0.013,0.009-0.024,0.012-0.025,0.024c-0.001,0.013,0.007,0.009,0.03,0.007c0.023-0.002,0.038-0.003,0.063,0.031
			s0.046,0.074,0.073,0.084c0.027,0.011,0.03,0.017,0.018,0.041s-0.019,0.034,0.004,0.047c0.021,0.012,0.022,0.024,0.01,0.044
			c-0.013,0.019-0.048,0.064-0.068,0.083c-0.003,0.028,0.017,0.023,0.004,0.037c-0.014,0.014-0.023,0.046-0.086,0.044
			c-0.063-0.002-0.097-0.007-0.141,0.007c-0.044,0.014-0.126,0.002-0.176,0.031c-0.03,0.017-0.034-0.024-0.033-0.034
			c0.002-0.022-0.012-0.032-0.031-0.019c-0.019,0.013-0.024,0.008-0.037-0.001c-0.013-0.009-0.041-0.01-0.054,0.002
			s-0.031,0.035,0.003,0.048c0.097,0.037,0.199,0.071,0.262,0.093c0.019,0.007,0.014,0.039-0.025,0.024
			c-0.092-0.033-0.155-0.056-0.206-0.073c-0.022-0.007-0.036,0.033-0.099,0.024c-0.034-0.005-0.037-0.023,0.003-0.021
			c0.04,0.002,0.069-0.012,0.033-0.025c-0.051-0.018-0.093-0.033-0.155-0.057c-0.016-0.006-0.009-0.035,0.02-0.024
			c0.027,0.01,0.048,0.02,0.07,0.026c0.019,0.005,0.022-0.004,0.02-0.016c-0.002-0.013,0.016-0.042,0.053-0.049
			c-0.011-0.018-0.033-0.041-0.047-0.045c-0.014-0.004-0.023-0.016-0.013-0.05c0.012-0.037,0.021-0.06-0.01-0.064
			c-0.031-0.004-0.066-0.018-0.076-0.059c-0.044-0.035-0.062-0.041-0.07-0.028c-0.008,0.013-0.003,0.016,0.01,0.025
			c0.022,0.018,0.025,0.053,0.012,0.134c-0.002,0.012,0.002,0.015,0.012,0.025c0.01,0.011,0.01,0.054-0.017,0.078
			c-0.02,0.017-0.021-0.009-0.018-0.018c0.003-0.01-0.001-0.018-0.013-0.025c-0.012-0.007-0.016-0.012-0.009-0.031
			c0.007-0.019,0.012-0.03-0.002-0.038c-0.014-0.008-0.04-0.024-0.032-0.053c0.008-0.029,0.006-0.053-0.02-0.076
			c-0.026-0.022-0.011-0.052,0.011-0.074c0.021-0.021,0.058-0.051,0.12,0.035c0.012-0.019,0.037-0.054,0.057-0.072v-0.015
			c-0.015-0.003-0.032-0.028-0.039-0.046c-0.007-0.017-0.031-0.016-0.056,0.009c-0.025,0.024-0.039,0.045-0.054,0.041
			c-0.016-0.004-0.033-0.031-0.019-0.051c-0.007-0.019-0.014-0.042,0.01-0.059c-0.004-0.027-0.005-0.05,0.035-0.065
			c-0.002-0.025,0.006-0.061,0.044-0.074c-0.001-0.005-0.004-0.017-0.004-0.028c0.034-0.036,0.118-0.089,0.15-0.102
			c0.022-0.003,0.028,0.03,0.052,0.016c0.017-0.011,0.038-0.017,0.07-0.009C234.415,165.985,234.424,165.986,234.429,165.984z"/>
		<g>
			<path fill="#E2E3E4" d="M234.152,166.247c0.003-0.008,0.005-0.022,0.012-0.03c0.007-0.008-0.005-0.016-0.029-0.001
				c-0.024,0.015-0.055,0.028-0.072,0.037c-0.016,0.009-0.023,0.032,0.008,0.017c0.031-0.016,0.052-0.025,0.062-0.03
				c0.01-0.005,0.007,0.004,0.006,0.008C234.138,166.25,234.15,166.252,234.152,166.247z"/>
			<path fill="#E2E3E4" d="M234.138,166.263c-0.014,0.012-0.033,0.013-0.054,0.027c-0.021,0.015-0.029,0.021-0.027,0.035
				c0.002,0.014,0.008,0.018,0.021,0.002s0.045-0.042,0.06-0.048C234.153,166.274,234.15,166.252,234.138,166.263z"/>
			<path fill="#E2E3E4" d="M234.084,166.192c0.026-0.016,0.06-0.027,0.088-0.035c0.028-0.008,0.041,0.009,0.009,0.018
				c-0.032,0.01-0.083,0.036-0.104,0.049C234.057,166.237,234.053,166.211,234.084,166.192z"/>
			<path fill="#E2E3E4" d="M234.101,166.167c0.003-0.013,0.006-0.06,0.064-0.06c0.022,0,0.073-0.009,0.085-0.009
				c0.013,0,0.005,0.021-0.016,0.023C234.212,166.123,234.12,166.156,234.101,166.167z"/>
			<path fill="#E2E3E4" d="M234.289,166.051c-0.009,0.007-0.016,0.019-0.017,0.026c-0.034-0.006-0.042,0.01-0.059,0.01
				c-0.017,0-0.053-0.002-0.063,0.002c0.014-0.015,0.029-0.028,0.046-0.023c0.017,0.005,0.03,0.005,0.05-0.007
				S234.279,166.041,234.289,166.051z"/>
			<path fill="#E2E3E4" d="M234.176,166.046c0.038-0.029,0.067-0.035,0.099-0.023c0.032,0.012,0.065,0.013,0.078,0.006
				c0.013-0.007,0.025-0.006,0.031,0.003c0.006,0.009,0.016,0.014-0.014,0.011c-0.03-0.003-0.069-0.003-0.085-0.011
				c-0.016-0.008-0.036-0.001-0.046,0.008C234.229,166.047,234.195,166.053,234.176,166.046z"/>
			<path fill="#E2E3E4" d="M234.269,165.991c0.023,0.012,0.067,0.014,0.083,0.008c0.017-0.006,0.054-0.01,0.067,0.008l-0.012,0.012
				c-0.013-0.013-0.04-0.015-0.056-0.008c-0.016,0.007-0.044,0.007-0.06-0.001c-0.016-0.008-0.037-0.009-0.043-0.007
				C234.255,165.997,234.261,165.994,234.269,165.991z"/>
			<path fill="#E2E3E4" d="M234.116,166.418c-0.025-0.036-0.056-0.023-0.071-0.002c-0.015,0.021,0.008,0.01,0.006,0.022
				c-0.002,0.013,0.01,0.009,0.012,0.017c0.002,0.009,0.016,0.009,0.018-0.006c0.002-0.015,0.012-0.032,0.021-0.023
				C234.113,166.436,234.123,166.428,234.116,166.418z"/>
			<path fill="#E2E3E4" d="M234.073,166.474c0,0.01-0.002,0.016-0.011,0.015c-0.009-0.002-0.015,0.006-0.002,0.017
				c0.013,0.012,0.006,0.019,0.002,0.029c-0.004,0.01-0.011,0.034,0.008,0.047c0.012,0.008,0.019-0.005,0.026,0.005
				c0.007,0.01,0.015,0.001,0.015-0.022c0-0.023-0.005-0.03-0.014-0.02c-0.009,0.01-0.019,0.01-0.022,0
				c-0.003-0.01-0.008-0.025,0.013-0.022c0.02,0.003,0.028-0.002,0.016-0.018C234.076,166.462,234.073,166.464,234.073,166.474z"/>
			<path fill="#E2E3E4" d="M234.438,165.998c0.008,0.011,0.011,0.041,0.011,0.055c0,0.009,0.006,0.011,0.013,0.001
				c0.01-0.014,0.032-0.007,0.032-0.028c0-0.003-0.008-0.003-0.011,0.002c-0.002,0.005-0.013,0.001-0.015-0.009
				C234.466,166.01,234.456,165.992,234.438,165.998z"/>
			<path fill="#E2E3E4" d="M234.637,166.053c-0.014-0.001-0.017,0.003-0.018,0.008c-0.001,0.005-0.006,0.007-0.013,0.006
				c-0.007-0.001-0.011,0.012,0.002,0.013c0.017,0.001-0.002,0.008,0.026,0.008c0.019,0,0.037-0.002,0.042-0.004
				c0.005-0.002,0.008-0.004-0.002-0.013C234.663,166.062,234.652,166.053,234.637,166.053z"/>
			<path fill="#E2E3E4" d="M234.529,166.02c-0.009,0.016-0.01,0.051-0.019,0.07c-0.01,0.018-0.002,0.059-0.013,0.078
				c-0.011,0.018-0.014,0.05,0.019,0.038c0.033-0.013,0.063-0.023,0.08-0.027c0.016-0.004,0.034-0.026,0.015-0.035
				c-0.018-0.009-0.039-0.023-0.049-0.051c-0.011-0.028,0.001-0.039,0.009-0.032c0.008,0.007,0.014,0.004,0.014-0.007
				c0-0.012,0.005-0.014,0.014-0.014c0.008,0,0.01-0.015,0.003-0.017c-0.007-0.001-0.01-0.005-0.014-0.01
				c-0.003-0.005-0.013-0.001-0.017,0c-0.01,0.002-0.02,0-0.026-0.002C234.539,166.009,234.533,166.012,234.529,166.02z"/>
			<path fill="#E2E3E4" d="M234.412,166.05c-0.009,0.009-0.05,0.013-0.069,0.01c-0.018-0.003-0.032-0.007-0.04,0.015
				s-0.046,0.059-0.065,0.079c-0.019,0.019-0.055,0.066-0.063,0.092c-0.008,0.026-0.003,0.034,0.007,0.048
				c0.01,0.014,0.016,0.013,0.024,0.004c0.008-0.009,0.009-0.015,0-0.029c-0.009-0.014-0.011-0.031,0.008-0.047
				c0.019-0.016,0.049-0.046,0.057-0.062c0.008-0.016,0.017-0.023,0.029-0.028c0.012-0.004,0.019-0.011,0.026-0.022
				c0.007-0.011,0.025-0.017,0.033-0.009c0.009,0.008,0.012,0.019,0.004,0.025c-0.002,0.001-0.003,0.001-0.003-0.004
				s-0.026-0.004-0.025,0.014c0,0.007,0.003,0.005,0.008,0.001c0.004-0.003,0.008-0.005,0.012,0.004
				c0.003,0.009,0.009,0.012-0.006,0.017c-0.015,0.005-0.014,0.006-0.008,0.017c0.006,0.011,0.012,0.016,0.016,0.005
				c0.005-0.01,0.015-0.006,0.017-0.013c0.002-0.007,0.015-0.009,0.021-0.002c0.007,0.01-0.002,0.017-0.002,0.024
				c0,0.007,0,0.008-0.005,0.001c-0.004-0.007-0.012-0.004-0.012,0.001c-0.001,0.005-0.008,0.003-0.013,0.002
				c-0.005-0.001-0.007,0.007-0.007,0.018c0,0.008,0,0.011,0.005,0.011c0.005,0.001,0.005,0.008,0.011,0.008
				c0.005,0,0.006,0.011,0.003,0.011c-0.003,0-0.001,0.004-0.004,0.005c-0.002,0,0.001-0.006-0.01-0.005
				c-0.011,0-0.023,0.009-0.016,0.021c0.008,0.015-0.004,0.024,0.002,0.034c0.006,0.009,0.017,0.009,0.032,0.007
				c0.015-0.002,0.047-0.004,0.062,0.006c0.015,0.011,0.034,0.017,0.059,0.02c0.025,0.004,0.037,0.007,0.041,0.035
				c0.002,0.017,0.009,0.027,0.026,0.042c0.017,0.015,0.03,0.037,0.028,0.047c-0.002,0.01,0.009,0.03,0.02,0.026
				c0.011-0.003,0.021-0.002,0.028,0.001s0.02,0.007,0.009-0.008c-0.015-0.021-0.033-0.02-0.038-0.035
				c-0.006-0.015-0.017-0.037-0.026-0.053c-0.006-0.011-0.008-0.022-0.01-0.028c-0.002-0.006-0.005-0.006-0.005-0.016
				c0-0.01-0.005-0.02-0.018-0.025c-0.014-0.005-0.039-0.02-0.058-0.024c-0.019-0.003-0.017-0.007-0.019-0.014
				c-0.002-0.007-0.006-0.008-0.009-0.004c-0.003,0.004-0.006,0.004-0.008-0.001c-0.002-0.005-0.006-0.004-0.012-0.004
				s-0.02,0-0.012-0.013s0.009-0.022-0.003-0.032c-0.012-0.009-0.015-0.017-0.006-0.022c0.009-0.006,0.001-0.016,0.014-0.017
				c0.013-0.001,0.002-0.01,0.012-0.012c0.01-0.002,0.009-0.007,0.006-0.011c-0.003-0.004,0.006-0.018,0.003-0.025
				c-0.003-0.006-0.003-0.015,0.002-0.021c0.006-0.006,0.001-0.012-0.001-0.015c-0.002-0.002-0.007-0.005-0.007-0.009
				c0-0.004-0.005-0.006-0.011,0.002c-0.006,0.008-0.017,0.013-0.023,0.001c-0.005-0.012-0.001-0.017,0.002-0.023
				c0.004-0.006,0.007-0.016,0.004-0.022C234.424,166.042,234.418,166.044,234.412,166.05z"/>
			<path fill="#E2E3E4" d="M234.628,166.264c-0.012-0.01-0.028,0.002-0.036-0.008c-0.009-0.01-0.016-0.015-0.024-0.013
				c-0.009,0.002-0.02,0.005-0.026-0.009c-0.006-0.014-0.012-0.017-0.019-0.001c-0.007,0.016-0.016,0.016-0.024,0.02
				c-0.008,0.004-0.012,0.015,0.008,0.02c0.02,0.006,0.045,0.017,0.053,0.023c0.009,0.006,0.015,0.003,0.012-0.007
				c-0.002-0.01-0.007-0.012-0.012-0.016c-0.005-0.004-0.005-0.012,0.005-0.01c0.011,0.002,0.012,0.009,0.021,0.009
				c0.009,0.001,0.041,0.003,0.058,0.023c0.016,0.02,0.025,0.032,0,0.047c-0.025,0.015-0.049,0.025-0.032,0.049
				c0.017,0.023,0.024,0.004,0.05,0.017c0.026,0.014,0.044,0.005,0.06-0.002c0.016-0.007,0.035-0.002,0.048-0.004
				c0.013-0.002,0.03-0.007,0.042,0.008c0.012,0.015,0.026,0.027,0.041,0.033c0.015,0.006,0.02,0.016,0.029,0.015
				c0.009-0.001-0.003-0.019-0.014-0.03c-0.011-0.011-0.02-0.03-0.034-0.039c-0.014-0.009-0.027-0.019-0.042-0.011
				c-0.015,0.009-0.05,0.004-0.062-0.001s-0.024-0.006-0.034-0.006c-0.01,0-0.015-0.008,0.004-0.019
				c0.018-0.012,0.023-0.024,0.014-0.051c-0.01-0.026-0.031-0.087-0.063-0.114c-0.011-0.009-0.023-0.004-0.028,0.001
				c-0.005,0.005-0.016,0.011-0.028,0.012c-0.012,0.001-0.016,0.006-0.001,0.011c0.015,0.005,0.004,0.01,0.019,0.017
				c0.015,0.008,0.025,0.016,0.024,0.024C234.636,166.261,234.631,166.266,234.628,166.264z"/>
			<path fill="#E2E3E4" d="M234.589,166.298c0.017-0.005,0.015,0.007,0.03,0.006c0.015-0.001,0.018,0.016,0.005,0.014
				c-0.013-0.002-0.014-0.011-0.022-0.011C234.593,166.306,234.578,166.301,234.589,166.298z"/>
			<path fill="#E2E3E4" d="M234.74,166.294c0.002,0.008,0.006,0.027,0.008,0.035c0.04-0.035,0.05-0.046,0.057-0.05
				c0.007-0.005,0.015-0.01,0.037,0.009c0.022,0.019,0.054,0.039,0.064,0.043c0.008,0.003,0.016,0.009,0.021,0.033
				c0.006,0.004,0.027,0.006,0.026-0.01c-0.001-0.017-0.004-0.025-0.019-0.032c-0.015-0.007-0.061-0.023-0.082-0.041
				c-0.022-0.018-0.042-0.041-0.058-0.028C234.778,166.264,234.749,166.287,234.74,166.294z"/>
			<path fill="#E2E3E4" d="M234.284,166.182c-0.012,0.016-0.035,0.037-0.048,0.048c-0.013,0.011-0.013,0.025-0.004,0.043
				c0.004,0.008,0.007,0.017,0.014,0.018c0.007,0.001,0.01,0.006,0.006,0.013c-0.003,0.007-0.002,0.015,0.011,0.015
				c0.023-0.001,0.022-0.013,0.035-0.014c0.008,0,0.012-0.001,0.013-0.007c0.001-0.006,0.007,0,0.007-0.021
				c0-0.021-0.011-0.031-0.003-0.04c0.008-0.009,0.011-0.025,0.004-0.037C234.299,166.165,234.296,166.167,234.284,166.182z"/>
			<path fill="#E2E3E4" d="M234.209,166.318c-0.007,0,0.002,0.011,0.012,0.006c0.01-0.005,0.002-0.018,0-0.013
				C234.219,166.315,234.212,166.318,234.209,166.318z"/>
			<path fill="#E2E3E4" d="M234.237,166.334c0.001,0.006,0.006,0.023,0.008,0.029c0.001,0.006,0.015,0.016,0.028,0.025
				c0.014,0.009,0.026,0.01,0.035,0.016c0.009,0.006,0.016-0.004,0-0.017c-0.016-0.013-0.044-0.04-0.059-0.053
				C234.234,166.321,234.236,166.33,234.237,166.334z"/>
			<path fill="#E2E3E4" d="M234.288,166.338c0.013-0.013,0.028-0.014,0.051-0.009c0.023,0.005,0.092,0.017,0.123,0.017
				c0.031,0,0.054,0.006,0.058,0.023c0.004,0.017,0.012,0.036,0.02,0.044c0.009,0.008,0.008,0.012,0.003,0.017
				c-0.005,0.006,0.004,0.012-0.029,0.011c-0.033-0.001-0.058-0.011-0.075-0.01s-0.027,0-0.037-0.006
				c-0.01-0.006-0.031-0.012-0.029,0.009c0.002,0.02,0.004,0.031,0.016,0.038c0.013,0.007,0.013,0.018,0.001,0.038
				c-0.012,0.019-0.051,0.059-0.069,0.078c-0.017,0.018-0.023,0.045,0.003,0.06c0.026,0.016,0.067,0.044,0.074,0.062
				c0.011,0.002,0.018,0.003,0.026,0.012c0.008,0.009,0.011,0.012-0.002,0.016c-0.013,0.004-0.019,0.003-0.024-0.004
				c-0.005-0.007-0.015-0.008-0.022-0.007c-0.008,0.001-0.015-0.003-0.019-0.013c-0.005-0.01-0.05-0.05-0.066-0.06
				c-0.016-0.011-0.037-0.019-0.021-0.047c0.015-0.027,0.018-0.041,0.016-0.051c-0.002-0.011-0.004-0.023,0.001-0.031
				s-0.005-0.03-0.028-0.032c-0.023-0.002-0.039-0.002-0.047-0.014c-0.008-0.012-0.024-0.021-0.036-0.018
				c0-0.03,0.016-0.071,0.048-0.085c0.016,0.017,0.05,0.041,0.084,0.053c0.034,0.013,0.041,0.001,0.026-0.025
				C234.322,166.378,234.302,166.352,234.288,166.338z"/>
			<path fill="#E2E3E4" d="M234.394,166.627c-0.006,0-0.021,0.002-0.024,0.003c-0.01-0.011-0.015-0.018-0.023-0.02
				c-0.009-0.002-0.028,0.011-0.01,0.02c0.018,0.01,0.028,0.024,0.031,0.029C234.374,166.651,234.388,166.63,234.394,166.627z"/>
			<path fill="#E2E3E4" d="M234.422,166.517c-0.004,0.011-0.016,0.023-0.026,0.027c-0.01,0.004-0.02,0.028-0.02,0.05
				c0,0.021,0.01,0.017,0.027,0.016c0.048-0.004,0.104-0.001,0.121,0.007c0.017,0.008,0.043,0.011,0.023-0.005
				c-0.019-0.016-0.075-0.023-0.101-0.023c-0.026,0-0.033,0.006-0.033-0.011s0.001-0.019,0.01-0.029
				c0.009-0.01,0.014-0.02,0.012-0.025C234.433,166.518,234.423,166.515,234.422,166.517z"/>
			<path fill="#E2E3E4" d="M234.323,166.719c-0.037,0.006-0.054,0.027-0.045,0.053l0.024,0.009
				c-0.005-0.018-0.008-0.041,0.012-0.049C234.334,166.725,234.329,166.718,234.323,166.719z"/>
			<path fill="#E2E3E4" d="M234.81,166.444c-0.016-0.013-0.021-0.023-0.039-0.022c-0.017,0.001-0.039,0.002-0.049,0.009
				c-0.011,0.007-0.026,0.016-0.043,0.013c-0.016-0.003-0.027,0.007-0.011,0.019c0.016,0.013,0.042,0.034,0.011,0.047
				c0.012,0.007,0.033,0.027,0.048,0.035c0.024-0.018,0.052-0.04,0.033-0.06c-0.011-0.012-0.014-0.023-0.016-0.03
				c-0.002-0.007,0.002-0.012,0.011-0.005c0.009,0.007,0.029,0.012,0.041,0.012C234.802,166.456,234.806,166.448,234.81,166.444z"/>
			<path fill="#E2E3E4" d="M234.835,166.456c0,0.004-0.003,0.018-0.007,0.024c0.01-0.001,0.011,0.004,0.011,0.012
				c0,0.008,0.015,0.011,0.014-0.007C234.851,166.468,234.845,166.462,234.835,166.456z"/>
			<path fill="#E2E3E4" d="M234.883,166.482c0.023,0.018,0.015,0.038,0.024,0.051c0.01,0.014-0.008,0.007-0.022,0.009
				c-0.015,0.002-0.038,0.007-0.041,0.03c-0.003,0.023-0.012,0.013-0.017,0.007c-0.006-0.006-0.024,0.007-0.031-0.002
				c-0.007-0.009-0.021-0.007-0.02,0.007c0.001,0.014,0.009,0.022,0.019,0.02c0.011-0.002,0.012,0.01,0.02,0.008
				c0.009-0.002,0.017,0.002,0.015,0.014c-0.002,0.012-0.007,0.029,0.002,0.037s0.013,0.01,0.016,0.001
				c0.003-0.009,0.017-0.022,0.026-0.027c0.009-0.005,0.007-0.019,0-0.013c-0.007,0.007-0.016-0.004-0.02,0
				c-0.004,0.004-0.011-0.003-0.007-0.015c0.004-0.012,0.017-0.024,0.022-0.017c0.005,0.008,0.012,0.01,0.014,0.003
				c0.002-0.007,0.011-0.005,0.008,0.003c-0.003,0.008,0.007,0.022,0.013,0.014c0.006-0.009,0.012-0.018,0.015-0.028
				c0.003-0.011,0.01-0.004,0.015,0.005c0.005,0.009-0.002,0.018-0.015,0.036c-0.014,0.019-0.05,0.055-0.078,0.066
				c-0.013,0.005-0.02,0.01-0.027,0.002c-0.007-0.008-0.015-0.007-0.013,0.008c0.001,0.007,0.001,0.019,0.005,0.024
				c-0.051,0.008-0.108,0.013-0.128,0.007c-0.02-0.006-0.09-0.004-0.1-0.003c0.006-0.015,0-0.034-0.008-0.037
				c-0.008-0.003-0.015,0.004-0.014,0.013c0.001,0.009,0.007,0.019-0.015,0.021c-0.021,0.002-0.035,0.006-0.038,0.022
				c-0.003,0.017,0.007,0.009,0.011,0.004c0.004-0.005,0.022-0.003,0.044-0.003c0.021,0,0.061,0.012,0.023,0.012
				s-0.069,0.006-0.08,0.015c-0.012,0.009-0.028,0.011-0.025-0.005c0.003-0.016,0.007-0.025,0.016-0.031
				c0.01-0.006,0.011-0.017,0.008-0.023c-0.003-0.007-0.008,0.001-0.018,0.005c-0.012,0.004-0.05-0.006-0.039-0.048
				c-0.007-0.004-0.018-0.003-0.027,0.002s-0.034,0.002-0.018-0.014c0.016-0.016,0.061-0.047,0.102-0.027
				c0.051,0.025,0.055,0.004,0.081,0.017c0.025,0.014,0.082,0.034,0.108,0.034c0.025,0,0.049-0.02,0.01-0.042
				c-0.009-0.005-0.026-0.011-0.037-0.012c-0.001-0.01-0.001-0.018-0.002-0.023c0.017,0.007,0.036,0.026,0.039,0.013
				c0.003-0.014,0.01-0.015,0.02-0.008s0.034,0.006,0.027-0.01c-0.007-0.016-0.02-0.051,0.002-0.049
				c0.022,0.003,0.023-0.02,0.039-0.013c0.016,0.008,0.048,0.015,0.056,0.002c0.008-0.013,0.003-0.036,0.016-0.039
				c0.014-0.003,0.017-0.009,0.017-0.016C234.876,166.483,234.879,166.478,234.883,166.482z"/>
			<path fill="#E2E3E4" d="M234.699,166.552c-0.011-0.025-0.074-0.046-0.127-0.047c-0.053-0.001-0.054,0.004-0.048,0.009
				c0.006,0.005,0.01,0.012,0.009,0.017c-0.001,0.006,0.003,0.009,0.02,0.005c0.017-0.004,0.05-0.011,0.063-0.005
				c0.013,0.006,0.021,0.004,0.03,0.004s0.021,0.006,0.013,0.015c-0.009,0.009-0.004,0.011,0.005,0.014
				C234.672,166.567,234.712,166.58,234.699,166.552z"/>
			<path fill="#E2E3E4" d="M234.599,166.553c-0.011-0.004-0.025,0.009-0.015,0.009c0.01,0,0.017-0.001,0.023,0
				C234.612,166.563,234.611,166.557,234.599,166.553z"/>
			<path fill="#E2E3E4" d="M234.634,166.577c0.008,0.003,0.037,0.009,0.049,0.016c0.012,0.007,0.007,0.015-0.005,0.008
				c-0.007-0.004-0.027-0.01-0.039-0.011c-0.012,0-0.015-0.005-0.015-0.01C234.625,166.574,234.63,166.576,234.634,166.577z"/>
			<path fill="#E2E3E4" d="M234.44,166.563c0.009-0.012,0.021-0.051,0.02-0.07c0.032-0.005,0.102-0.02,0.116-0.025
				c0.004,0.005,0.006,0.016,0.008,0.018c-0.062,0.003-0.097,0.008-0.107,0.024c-0.01,0.017-0.004,0.025,0.009,0.021
				c0.013-0.004,0.025,0.001,0.026,0.018c0.001,0.017,0.018,0.02,0.036,0.006c0.01,0.009,0.012,0.017,0.012,0.023
				c0,0.006,0.013,0.011,0.024,0.01c0.012-0.001,0.032,0.014,0.033,0.022c0.001,0.009,0.002,0.014,0.009,0.008
				c0.007-0.006,0.014-0.001,0.01,0.01c-0.004,0.011-0.025,0.017-0.037-0.001c-0.012-0.018-0.068-0.053-0.107-0.051
				C234.454,166.579,234.432,166.575,234.44,166.563z"/>
			<path fill="#E2E3E4" d="M234.862,166.715c-0.012,0-0.03,0.005-0.035,0.011c-0.006,0.006-0.011,0.017-0.016,0.018
				c-0.005,0.002,0,0.009,0.016,0.005c0.015-0.004,0.032-0.017,0.037-0.023C234.867,166.72,234.87,166.715,234.862,166.715z"/>
			<path fill="#E2E3E4" d="M234.096,166.647c0.003,0.015-0.003,0.021,0.004,0.025c0.007,0.004,0.005,0.013,0.014,0.014
				c0.009,0.001,0.005-0.013,0.008-0.02c0.003-0.008,0.005-0.017-0.008-0.024C234.101,166.633,234.094,166.636,234.096,166.647z"/>
		</g>
		<g>
			<path fill="#A6B0B6" d="M234.531,166.125c-0.003,0.011-0.003,0.035-0.001,0.046c0.002,0.011,0.015,0.01,0.018-0.009
				c0.003-0.018-0.003-0.029-0.008-0.035C234.536,166.121,234.534,166.114,234.531,166.125z"/>
			<path fill="#A6B0B6" d="M234.305,166.539c-0.003,0.006-0.008,0.025-0.011,0.031c-0.002,0.005,0.013,0.01,0.016,0.003
				c0.004-0.007,0.005-0.021,0.009-0.026S234.31,166.529,234.305,166.539z"/>
			<path fill="#A6B0B6" d="M234.387,166.5c0.004-0.013-0.011-0.035-0.026-0.036c-0.016-0.001-0.03,0.006-0.016,0.012
				c0.014,0.006,0.023,0.011,0.026,0.019C234.373,166.505,234.385,166.51,234.387,166.5z"/>
		</g>
	</g>
	<g>
		<path fill="#E2E3E4" stroke="#A6B0B6" stroke-width="0.0207" d="M234.481,167.062"/>
		<path fill="#E2E3E4" stroke="#A6B0B6" stroke-width="0.0207" d="M234.802,166.928c-0.058,0-0.058,0.086,0,0.086
			C234.86,167.014,234.861,166.928,234.802,166.928z"/>
		<path fill="#E2E3E4" stroke="#A6B0B6" stroke-width="0.0207" d="M234.16,166.928c0.058,0,0.058,0.086,0,0.086
			C234.102,167.014,234.101,166.928,234.16,166.928z"/>
		<path fill="#E2E3E4" stroke="#A6B0B6" stroke-width="0.0207" d="M234.446,167.027c-0.027-0.07,0.096-0.07,0.071-0.001
			c0.07-0.027,0.07,0.096,0.001,0.071c0.027,0.07-0.096,0.07-0.071,0.001C234.377,167.125,234.377,167.002,234.446,167.027z"/>
	</g>
</g>
</svg>
