<?xml version="1.0" encoding="utf-8"?>
<!-- Generator: Adobe Illustrator 17.0.0, SVG Export Plug-In . SVG Version: 6.00 Build 0)  -->
<!DOCTYPE svg PUBLIC "-//W3C//DTD SVG 1.1//EN" "http://www.w3.org/Graphics/SVG/1.1/DTD/svg11.dtd">
<svg version="1.1" id="Слой_1" xmlns="http://www.w3.org/2000/svg" xmlns:xlink="http://www.w3.org/1999/xlink" x="0px" y="0px"
	 width="17px" height="12px" viewBox="232.445 164.078 17 12" enable-background="new 232.445 164.078 17 12" xml:space="preserve">
<rect x="232.445" y="164.017" fill="#FF0000" width="17" height="12"/>
<rect x="232.445" y="164.017" fill="#006600" width="6.8" height="12"/>
<g>
	<path fill="#FFFF00" stroke="#000000" stroke-width="0.0167" stroke-linecap="round" stroke-linejoin="round" d="M241.462,171.878
		c-0.856-0.027-4.781-2.621-4.808-3.034l0.217-0.383c0.389,0.599,4.402,3.122,4.796,3.032L241.462,171.878"/>
	<path fill="#FFFF00" stroke="#000000" stroke-width="0.0167" stroke-linecap="round" stroke-linejoin="round" d="M236.825,168.409
		c-0.077,0.219,1.024,0.94,2.349,1.793c1.325,0.853,2.467,1.38,2.551,1.305c0.005-0.01,0.042-0.076,0.038-0.076
		c-0.016,0.025-0.055,0.033-0.115,0.015c-0.358-0.109-1.291-0.563-2.447-1.305c-1.156-0.742-2.162-1.426-2.318-1.717
		c-0.011-0.02-0.019-0.057-0.017-0.085l-0.004,0l-0.033,0.062L236.825,168.409L236.825,168.409L236.825,168.409z M241.482,171.891
		c-0.015,0.028-0.042,0.029-0.093,0.023c-0.32-0.038-1.292-0.538-2.441-1.266c-1.338-0.848-2.442-1.62-2.322-1.822l0.033-0.061
		l0.006,0.002c-0.108,0.342,2.18,1.727,2.315,1.816c1.324,0.868,2.44,1.376,2.539,1.244L241.482,171.891L241.482,171.891
		L241.482,171.891z"/>
	<path fill="#FFFF00" stroke="#000000" stroke-width="0.0167" stroke-linecap="round" stroke-linejoin="round" d="M239.25,169.094
		c0.857-0.007,1.914-0.124,2.522-0.381l-0.131-0.225c-0.36,0.211-1.423,0.349-2.398,0.37c-1.154-0.011-1.969-0.125-2.377-0.415
		l-0.124,0.24C237.492,169.019,238.261,169.091,239.25,169.094"/>
	<path fill="#FFFF00" stroke="#000000" stroke-width="0.0167" stroke-linecap="round" stroke-linejoin="round" d="M241.807,168.719
		c-0.021,0.035-0.418,0.18-1.002,0.287c-0.396,0.064-0.913,0.119-1.558,0.119c-0.613,0.001-1.114-0.046-1.493-0.1
		c-0.614-0.102-0.93-0.244-1.047-0.294c0.011-0.024,0.018-0.04,0.029-0.062c0.337,0.142,0.655,0.228,1.028,0.288
		c0.377,0.054,0.871,0.101,1.481,0.1c0.642-0.001,1.153-0.06,1.547-0.122c0.599-0.102,0.927-0.234,0.973-0.295L241.807,168.719
		L241.807,168.719L241.807,168.719z M241.692,168.49c-0.065,0.055-0.389,0.177-0.958,0.273c-0.38,0.058-0.863,0.109-1.481,0.11
		c-0.587,0.001-1.066-0.041-1.43-0.097c-0.578-0.08-0.886-0.224-0.997-0.266c0.011-0.02,0.022-0.04,0.034-0.06
		c0.086,0.046,0.383,0.174,0.97,0.262c0.36,0.054,0.84,0.094,1.424,0.094c0.615-0.001,1.092-0.053,1.47-0.111
		c0.572-0.083,0.88-0.238,0.927-0.277L241.692,168.49L241.692,168.49L241.692,168.49z"/>
	<path fill="#FFFF00" stroke="#000000" stroke-width="0.0167" stroke-linecap="round" stroke-linejoin="round" d="M236.437,170.187
		c0.527,0.3,1.697,0.451,2.805,0.462c1.008,0.002,2.322-0.165,2.813-0.441l-0.014-0.3c-0.154,0.254-1.562,0.498-2.811,0.488
		c-1.249-0.01-2.409-0.214-2.796-0.479L236.437,170.187"/>
	<path fill="#FFFF00" stroke="#000000" stroke-width="0.0167" stroke-linecap="round" stroke-linejoin="round" d="M242.082,170.144
		l0,0.072c-0.074,0.093-0.537,0.235-1.117,0.334c-0.442,0.072-1.018,0.126-1.736,0.126c-0.682,0-1.226-0.051-1.648-0.12
		c-0.667-0.103-1.093-0.283-1.179-0.337l0-0.084c0.257,0.181,0.954,0.313,1.188,0.354c0.419,0.068,0.96,0.119,1.638,0.119
		c0.714,0,1.287-0.054,1.726-0.125C241.372,170.42,241.965,170.254,242.082,170.144L242.082,170.144L242.082,170.144
		L242.082,170.144z M242.082,169.889l0,0.072c-0.074,0.093-0.537,0.235-1.117,0.334c-0.442,0.072-1.018,0.126-1.736,0.126
		c-0.682,0-1.226-0.051-1.648-0.12c-0.667-0.103-1.093-0.283-1.179-0.336l0-0.084c0.257,0.181,0.954,0.313,1.188,0.354
		c0.419,0.068,0.96,0.119,1.638,0.119c0.714,0,1.287-0.054,1.726-0.125C241.372,170.165,241.965,169.999,242.082,169.889
		L242.082,169.889L242.082,169.889z"/>
	<path fill="#FFFF00" stroke="#000000" stroke-width="0.0167" stroke-linecap="round" stroke-linejoin="round" d="M239.239,171.827
		c-1.212-0.008-2.25-0.35-2.47-0.406l0.16,0.265c0.387,0.173,1.4,0.43,2.321,0.401c0.921-0.028,1.726-0.104,2.293-0.396l0.164-0.275
		C241.321,171.609,240.006,171.825,239.239,171.827"/>
	<path fill="#FFFF00" stroke="#000000" stroke-width="0.016" stroke-linecap="round" stroke-linejoin="round" d="M241.605,171.629
		c-0.024,0.039-0.049,0.077-0.074,0.115c-0.268,0.1-0.689,0.205-0.867,0.235c-0.363,0.079-0.926,0.138-1.424,0.138
		c-1.074-0.017-1.952-0.239-2.366-0.429l-0.033-0.061l0.005-0.009l0.057,0.023c0.735,0.279,1.561,0.39,2.343,0.41
		c0.497,0.002,0.994-0.06,1.397-0.136c0.617-0.131,0.866-0.229,0.943-0.274L241.605,171.629L241.605,171.629L241.605,171.629z
		 M241.747,171.381c0.001,0.001,0.001,0.002,0.002,0.002c-0.018,0.032-0.037,0.065-0.056,0.098c-0.143,0.054-0.53,0.174-1.095,0.258
		c-0.373,0.054-0.604,0.106-1.345,0.121c-1.389-0.037-2.288-0.325-2.502-0.396l-0.032-0.064c0.805,0.222,1.627,0.378,2.533,0.394
		c0.678-0.015,0.967-0.068,1.336-0.121c0.659-0.109,0.992-0.223,1.091-0.257c-0.001-0.002-0.003-0.004-0.004-0.006L241.747,171.381
		L241.747,171.381L241.747,171.381z"/>
	<path fill="#FFFF00" stroke="#000000" stroke-width="0.0167" stroke-linecap="round" stroke-linejoin="round" d="M241.762,169.95
		c0.004,0.844-0.404,1.602-0.733,1.936c-0.465,0.473-1.081,0.777-1.801,0.791c-0.804,0.016-1.562-0.539-1.765-0.783
		c-0.397-0.477-0.721-1.082-0.731-1.897c0.049-0.921,0.391-1.563,0.886-2.003c0.495-0.44,1.154-0.654,1.703-0.639
		c0.633,0.018,1.373,0.347,1.885,1C241.541,168.782,241.686,169.247,241.762,169.95L241.762,169.95z M239.235,167.06
		c1.544,0,2.813,1.33,2.813,2.961c0,1.631-1.27,2.961-2.813,2.961c-1.544,0-2.803-1.33-2.803-2.961
		C236.432,168.39,237.691,167.06,239.235,167.06"/>
	<path fill="#FFFF00" stroke="#000000" stroke-width="0.0167" stroke-linecap="round" stroke-linejoin="round" d="M239.242,167.05
		c1.545,0,2.805,1.334,2.805,2.971c0,1.636-1.26,2.971-2.805,2.971c-1.545,0-2.805-1.334-2.805-2.971S237.697,167.05,239.242,167.05
		L239.242,167.05z M236.499,170.02c0,1.598,1.239,2.905,2.744,2.905c1.504,0,2.744-1.307,2.744-2.905
		c0-1.598-1.239-2.905-2.744-2.905C237.738,167.115,236.499,168.423,236.499,170.02L236.499,170.02z"/>
	<path fill="#FFFF00" stroke="#000000" stroke-width="0.0167" stroke-linecap="round" stroke-linejoin="round" d="M239.245,167.297
		c1.409,0,2.57,1.225,2.57,2.721c0,1.497-1.161,2.721-2.57,2.721s-2.57-1.225-2.57-2.721
		C236.675,168.521,237.836,167.297,239.245,167.297L239.245,167.297z M236.737,170.018c0,1.461,1.133,2.656,2.508,2.656
		s2.508-1.195,2.508-2.656c0-1.461-1.133-2.656-2.508-2.656C237.87,167.362,236.737,168.557,236.737,170.018L236.737,170.018z"/>
	<path fill="#FFFF00" stroke="#000000" stroke-width="0.0167" stroke-linecap="round" stroke-linejoin="round" d="M239.358,167.038
		h-0.24l0,5.969h0.241L239.358,167.038z"/>
	<path fill="#FFFF00" stroke="#000000" stroke-width="0.0167" stroke-linecap="round" stroke-linejoin="round" d="M239.334,167.004
		h0.061l0.001,6.038h-0.061L239.334,167.004L239.334,167.004z M239.095,167.004h0.062l0,6.038h-0.062L239.095,167.004
		L239.095,167.004z"/>
	<path fill="#FFFF00" stroke="#000000" stroke-width="0.0167" stroke-linecap="round" stroke-linejoin="round" d="M242.05,170.135
		v-0.221l-0.17-0.167l-0.963-0.27l-1.388-0.15l-1.672,0.09l-1.19,0.3l-0.24,0.188v0.221l0.609-0.289l1.445-0.24h1.388l1.02,0.12
		l0.708,0.18L242.05,170.135z"/>
	<path fill="#FFFF00" stroke="#000000" stroke-width="0.0167" stroke-linecap="round" stroke-linejoin="round" d="M239.244,169.56
		c0.663-0.001,1.305,0.066,1.815,0.172c0.526,0.111,0.896,0.251,1.023,0.407l0,0.077c-0.153-0.195-0.651-0.337-1.035-0.419
		c-0.506-0.104-1.144-0.172-1.803-0.17c-0.695,0.001-1.343,0.071-1.841,0.174c-0.4,0.084-0.934,0.251-1,0.416v-0.081
		c0.037-0.114,0.434-0.284,0.991-0.403C237.896,169.63,238.544,169.562,239.244,169.56L239.244,169.56z M239.244,169.306
		c0.663-0.001,1.305,0.066,1.815,0.172c0.526,0.111,0.896,0.251,1.023,0.407l0,0.077c-0.153-0.195-0.651-0.337-1.035-0.419
		c-0.506-0.104-1.144-0.172-1.803-0.17c-0.695,0.001-1.339,0.071-1.838,0.174c-0.386,0.077-0.941,0.251-1.003,0.416v-0.081
		c0.037-0.113,0.442-0.289,0.991-0.403C237.896,169.376,238.545,169.307,239.244,169.306L239.244,169.306z"/>
	<path fill="#FFFF00" stroke="#000000" stroke-width="0.0167" stroke-linecap="round" stroke-linejoin="round" d="M239.23,168.006
		c1.044-0.006,1.955,0.155,2.371,0.381l0.152,0.278c-0.362-0.207-1.345-0.421-2.522-0.389c-0.959,0.006-1.984,0.112-2.498,0.402
		l0.181-0.321C237.337,168.125,238.332,168.007,239.23,168.006"/>
	<path fill="#FFFF00" stroke="#000000" stroke-width="0.0167" stroke-linecap="round" stroke-linejoin="round" d="M239.244,168.236
		c0.595-0.002,1.171,0.034,1.628,0.121c0.426,0.084,0.833,0.21,0.891,0.278l0.045,0.084c-0.141-0.098-0.493-0.207-0.945-0.297
		c-0.453-0.09-1.028-0.12-1.621-0.118c-0.672-0.002-1.194,0.035-1.642,0.118c-0.474,0.094-0.803,0.228-0.884,0.292l0.044-0.089
		c0.158-0.085,0.408-0.188,0.828-0.268C238.052,168.267,238.58,168.24,239.244,168.236L239.244,168.236L239.244,168.236z
		 M239.244,167.981c0.57-0.002,1.133,0.032,1.571,0.116c0.346,0.071,0.688,0.183,0.813,0.282l0.066,0.111
		c-0.112-0.132-0.534-0.257-0.906-0.327c-0.435-0.079-0.975-0.111-1.544-0.116c-0.598,0.002-1.151,0.041-1.58,0.123
		c-0.409,0.082-0.673,0.18-0.785,0.256l0.058-0.093c0.154-0.086,0.403-0.165,0.717-0.229
		C238.086,168.021,238.642,167.983,239.244,167.981L239.244,167.981z"/>
	<path fill="#FFFF00" stroke="#000000" stroke-width="0.0167" stroke-linecap="round" stroke-linejoin="round" d="M240.638,171.255
		c-0.516-0.102-1.033-0.117-1.395-0.112c-1.74,0.022-2.302,0.378-2.371,0.486l-0.13-0.224c0.443-0.34,1.39-0.531,2.51-0.511
		c0.581,0.01,1.083,0.051,1.505,0.138L240.638,171.255"/>
	<path fill="#FFFF00" stroke="#000000" stroke-width="0.016" stroke-linecap="round" stroke-linejoin="round" d="M239.233,171.111
		c0.484,0.008,0.959,0.029,1.418,0.119l-0.033,0.062c-0.426-0.083-0.88-0.115-1.383-0.113c-0.642-0.005-1.292,0.058-1.857,0.23
		c-0.178,0.053-0.474,0.174-0.504,0.274l-0.033-0.058c0.01-0.059,0.188-0.182,0.522-0.282
		C238.01,171.149,238.616,171.116,239.233,171.111L239.233,171.111L239.233,171.111z M239.255,170.853
		c0.501,0.01,1.019,0.034,1.523,0.14l-0.035,0.065c-0.455-0.096-0.889-0.127-1.485-0.137c-0.644,0.001-1.327,0.05-1.949,0.241
		c-0.201,0.062-0.547,0.196-0.558,0.301l-0.033-0.062c0.008-0.096,0.307-0.222,0.577-0.305
		C237.921,170.904,238.606,170.854,239.255,170.853L239.255,170.853z"/>
	<path fill="#FFFF00" stroke="#000000" stroke-width="0.0167" stroke-linecap="round" stroke-linejoin="round" d="M241.726,171.439
		l-0.209,0.343l-0.601-0.565l-1.558-1.11l-1.757-1.02l-0.912-0.33l0.194-0.382l0.066-0.038l0.567,0.15l1.87,1.02l1.077,0.72
		l0.907,0.69l0.368,0.45L241.726,171.439z"/>
	<path fill="#FFFF00" stroke="#000000" stroke-width="0.0167" stroke-linecap="round" stroke-linejoin="round" d="M236.657,168.766
		c0.16-0.115,1.336,0.44,2.566,1.225c1.227,0.788,2.399,1.678,2.293,1.844l-0.035,0.058l-0.016,0.013
		c0.003-0.003,0.021-0.025-0.002-0.087c-0.052-0.182-0.884-0.885-2.264-1.767c-1.345-0.849-2.466-1.361-2.578-1.215L236.657,168.766
		L236.657,168.766L236.657,168.766z M241.769,171.434c0.101-0.212-0.989-1.081-2.341-1.928c-1.383-0.83-2.38-1.319-2.562-1.173
		l-0.04,0.078c0,0.004,0.001-0.005,0.01-0.012c0.033-0.031,0.088-0.029,0.113-0.029c0.314,0.005,1.209,0.441,2.465,1.204
		c0.55,0.339,2.325,1.545,2.319,1.884c0.001,0.029,0.002,0.035-0.008,0.05L241.769,171.434L241.769,171.434L241.769,171.434z"/>
</g>
<g>
	<path fill="#FFFFFF" stroke="#000000" stroke-width="0.0195" d="M237.562,170.348c0,0.488,0.189,0.93,0.495,1.252
		c0.306,0.323,0.723,0.527,1.185,0.527c0.464,0,0.885-0.2,1.19-0.522c0.305-0.322,0.494-0.767,0.494-1.256h0v-2.376l-3.364-0.004
		L237.562,170.348L237.562,170.348L237.562,170.348z"/>
	<path fill="#FF0000" stroke="#000000" stroke-width="0.0148" d="M237.625,170.351v0.001c0,0.467,0.182,0.892,0.475,1.2
		c0.293,0.309,0.697,0.501,1.139,0.501c0.444,0,0.848-0.191,1.14-0.499c0.292-0.308,0.473-0.733,0.473-1.201h0v-2.305l-3.225-0.001
		L237.625,170.351 M240.204,168.738l0,1.467l-0.001,0.155h0c0,0.041-0.002,0.087-0.007,0.127c-0.026,0.232-0.127,0.434-0.276,0.591
		c-0.175,0.184-0.416,0.298-0.681,0.298c-0.264,0-0.5-0.118-0.675-0.303c-0.18-0.19-0.284-0.45-0.284-0.718l0-1.621L240.204,168.738
		L240.204,168.738L240.204,168.738z"/>
	<g>
		<g id="castle">
			<path fill="#FFFF00" d="M237.834,168.65c0.004-0.166,0.115-0.205,0.116-0.205c0.001-0.001,0.12,0.042,0.119,0.207L237.834,168.65
				"/>
			<path fill="#FFFF00" stroke="#000000" stroke-width="0.0146" d="M237.738,168.448l-0.019,0.19l0.117,0
				c0.001-0.157,0.113-0.184,0.115-0.183c0.003,0,0.113,0.035,0.116,0.183h0.118l-0.021-0.192L237.738,168.448L237.738,168.448
				L237.738,168.448z"/>
			<path fill="#FFFF00" stroke="#000000" stroke-width="0.0146" d="M237.711,168.639h0.48c0.01,0,0.018,0.011,0.018,0.024
				c0,0.013-0.008,0.023-0.018,0.023h-0.48c-0.01,0-0.018-0.011-0.018-0.023C237.692,168.65,237.701,168.639,237.711,168.639z"/>
			<path fill="#FFFF00" stroke="#000000" stroke-width="0.0146" d="M237.885,168.638c0.001-0.099,0.064-0.128,0.064-0.127
				c0,0,0.066,0.029,0.067,0.127H237.885"/>
			<path fill="#FFFF00" stroke="#000000" stroke-width="0.0146" d="M237.721,168.369h0.46c0.01,0,0.018,0.01,0.018,0.021
				c0,0.012-0.008,0.021-0.018,0.021h-0.46c-0.01,0-0.018-0.009-0.018-0.021C237.703,168.378,237.711,168.369,237.721,168.369z"/>
			<path fill="#FFFF00" stroke="#000000" stroke-width="0.0146" d="M237.731,168.411h0.44c0.009,0,0.017,0.009,0.017,0.021
				s-0.008,0.021-0.017,0.021h-0.44c-0.009,0-0.017-0.009-0.017-0.021C237.714,168.421,237.721,168.411,237.731,168.411z"/>
			<path fill="#FFFF00" stroke="#000000" stroke-width="0.0146" d="M237.873,168.094l0.035,0v0.026h0.025v-0.027l0.036,0v0.027
				h0.025v-0.027h0.036l0,0.06c0,0.009-0.007,0.016-0.016,0.016h-0.125c-0.008,0-0.016-0.007-0.016-0.016V168.094L237.873,168.094
				L237.873,168.094z"/>
			<path fill="#FFFF00" stroke="#000000" stroke-width="0.0146" d="M238.004,168.174l0.008,0.194l-0.122-0.001l0.008-0.194
				L238.004,168.174"/>
			<path id="cp1" fill="#FFFF00" stroke="#000000" stroke-width="0.0146" d="M237.855,168.264l0.004,0.104l-0.117,0l0.003-0.104
				H237.855L237.855,168.264L237.855,168.264z"/>
			<g>
				<path id="cp1_1_" fill="#FFFF00" stroke="#000000" stroke-width="0.0146" d="M238.156,168.264l0.004,0.104l-0.117,0l0.003-0.104
					H238.156L238.156,168.264L238.156,168.264z"/>
			</g>
			<path id="cp2" fill="#FFFF00" stroke="#000000" stroke-width="0.0146" d="M237.724,168.189l0.034,0v0.026h0.025v-0.027l0.035,0
				v0.027h0.025v-0.027l0.035,0l0,0.06c0,0.009-0.007,0.016-0.015,0.016h-0.122c-0.008,0-0.016-0.007-0.016-0.016V168.189
				L237.724,168.189L237.724,168.189z"/>
			<g>
				<path id="cp2_1_" fill="#FFFF00" stroke="#000000" stroke-width="0.0146" d="M238.024,168.189l0.034,0v0.026h0.025v-0.027
					l0.035,0v0.027h0.025v-0.027l0.035,0l0,0.06c0,0.009-0.007,0.016-0.015,0.016h-0.122c-0.008,0-0.016-0.007-0.016-0.016V168.189
					L238.024,168.189L238.024,168.189z"/>
			</g>
			<path d="M237.939,168.236c-0.001-0.019,0.025-0.019,0.025,0v0.046h-0.025V168.236"/>
			<path id="cp3" d="M237.788,168.302c0-0.018,0.024-0.019,0.023,0v0.036h-0.023L237.788,168.302"/>
			<g>
				<path id="cp3_1_" d="M238.089,168.302c0-0.018,0.024-0.019,0.023,0v0.036h-0.023L238.089,168.302"/>
			</g>
		</g>
		<g>
			<g id="castle_1_">
				<path fill="#FFFF00" d="M237.834,170.04c0.004-0.166,0.115-0.205,0.116-0.205c0.001-0.001,0.12,0.042,0.119,0.207
					L237.834,170.04"/>
				<path fill="#FFFF00" stroke="#000000" stroke-width="0.0146" d="M237.738,169.838l-0.019,0.19l0.117,0
					c0.001-0.157,0.113-0.184,0.115-0.183c0.003,0,0.113,0.035,0.116,0.183h0.118l-0.021-0.192L237.738,169.838L237.738,169.838
					L237.738,169.838z"/>
				<path fill="#FFFF00" stroke="#000000" stroke-width="0.0146" d="M237.711,170.029h0.48c0.01,0,0.018,0.011,0.018,0.024
					c0,0.013-0.008,0.023-0.018,0.023h-0.48c-0.01,0-0.018-0.011-0.018-0.023C237.692,170.039,237.701,170.029,237.711,170.029z"/>
				<path fill="#FFFF00" stroke="#000000" stroke-width="0.0146" d="M237.885,170.028c0.001-0.099,0.064-0.127,0.064-0.127
					c0,0,0.066,0.029,0.067,0.127H237.885"/>
				<path fill="#FFFF00" stroke="#000000" stroke-width="0.0146" d="M237.721,169.758h0.46c0.01,0,0.018,0.01,0.018,0.021
					c0,0.012-0.008,0.021-0.018,0.021h-0.46c-0.01,0-0.018-0.009-0.018-0.021C237.703,169.768,237.711,169.758,237.721,169.758z"/>
				<path fill="#FFFF00" stroke="#000000" stroke-width="0.0146" d="M237.731,169.801h0.44c0.009,0,0.017,0.009,0.017,0.021
					c0,0.012-0.008,0.021-0.017,0.021h-0.44c-0.009,0-0.017-0.009-0.017-0.021C237.714,169.811,237.721,169.801,237.731,169.801z"/>
				<path fill="#FFFF00" stroke="#000000" stroke-width="0.0146" d="M237.873,169.483l0.035,0v0.026h0.025v-0.027l0.036,0v0.027
					h0.025v-0.027h0.036l0,0.06c0,0.009-0.007,0.016-0.016,0.016h-0.125c-0.008,0-0.016-0.007-0.016-0.016V169.483L237.873,169.483
					L237.873,169.483z"/>
				<path fill="#FFFF00" stroke="#000000" stroke-width="0.0146" d="M238.004,169.564l0.008,0.194l-0.122,0l0.008-0.194
					L238.004,169.564"/>
				<path id="cp1_2_" fill="#FFFF00" stroke="#000000" stroke-width="0.0146" d="M237.855,169.654l0.004,0.104l-0.117,0l0.003-0.104
					H237.855L237.855,169.654L237.855,169.654z"/>
				<g>
					<path id="cp1_3_" fill="#FFFF00" stroke="#000000" stroke-width="0.0146" d="M238.156,169.654l0.004,0.104l-0.117,0
						l0.003-0.104H238.156L238.156,169.654L238.156,169.654z"/>
				</g>
				<path id="cp2_2_" fill="#FFFF00" stroke="#000000" stroke-width="0.0146" d="M237.724,169.578l0.034,0v0.026h0.025v-0.027
					l0.035,0v0.027h0.025v-0.027l0.035,0l0,0.06c0,0.009-0.007,0.016-0.015,0.016h-0.122c-0.008,0-0.016-0.007-0.016-0.016V169.578
					L237.724,169.578L237.724,169.578z"/>
				<g>
					<path id="cp2_3_" fill="#FFFF00" stroke="#000000" stroke-width="0.0146" d="M238.024,169.578l0.034,0v0.026h0.025v-0.027
						l0.035,0v0.027h0.025v-0.027l0.035,0l0,0.06c0,0.009-0.007,0.016-0.015,0.016h-0.122c-0.008,0-0.016-0.007-0.016-0.016V169.578
						L238.024,169.578L238.024,169.578z"/>
				</g>
				<path d="M237.939,169.625c-0.001-0.019,0.025-0.019,0.025,0v0.046h-0.025V169.625"/>
				<path id="cp3_2_" d="M237.788,169.692c0-0.018,0.024-0.019,0.023,0v0.036h-0.023L237.788,169.692"/>
				<g>
					<path id="cp3_3_" d="M238.089,169.692c0-0.018,0.024-0.019,0.023,0v0.036h-0.023L238.089,169.692"/>
				</g>
			</g>
			<g id="castle3">
				<g id="castle_2_">
					<path fill="#FFFF00" d="M238.345,171.486c-0.108-0.12-0.056-0.231-0.056-0.232s0.113-0.06,0.223,0.056L238.345,171.486"/>
					<path fill="#FFFF00" stroke="#000000" stroke-width="0.0146" d="M238.142,171.416l0.114,0.149l0.083-0.088
						c-0.105-0.112-0.044-0.214-0.041-0.216c0.002-0.002,0.103-0.06,0.204,0.042l0.083-0.088l-0.144-0.119L238.142,171.416
						L238.142,171.416L238.142,171.416z"/>
					<path fill="#FFFF00" stroke="#000000" stroke-width="0.0146" d="M238.251,171.571l0.338-0.361
						c0.007-0.008,0.02-0.006,0.029,0.003c0.009,0.009,0.01,0.023,0.003,0.03l-0.338,0.361c-0.007,0.008-0.02,0.006-0.029-0.003
						C238.246,171.592,238.244,171.578,238.251,171.571z"/>
					<path fill="#FFFF00" stroke="#000000" stroke-width="0.0146" d="M238.374,171.439c-0.066-0.07-0.04-0.138-0.04-0.138
						c0,0,0.066-0.029,0.133,0.04L238.374,171.439"/>
					<path fill="#FFFF00" stroke="#000000" stroke-width="0.0146" d="M238.077,171.373l0.324-0.346
						c0.007-0.007,0.019-0.007,0.027,0.002c0.008,0.008,0.009,0.021,0.002,0.028l-0.324,0.346c-0.007,0.007-0.019,0.007-0.027-0.002
						C238.071,171.393,238.071,171.38,238.077,171.373z"/>
					<path fill="#FFFF00" stroke="#000000" stroke-width="0.0146" d="M238.113,171.395l0.31-0.331
						c0.007-0.007,0.018-0.006,0.026,0.002c0.008,0.008,0.009,0.021,0.002,0.028l-0.31,0.331c-0.007,0.007-0.018,0.006-0.026-0.002
						C238.107,171.415,238.106,171.402,238.113,171.395z"/>
					<path fill="#FFFF00" stroke="#000000" stroke-width="0.0146" d="M238,171.065l0.025-0.026l0.018,0.018l0.018-0.019
						l-0.018-0.019l0.025-0.027l0.018,0.019l0.018-0.019l-0.018-0.019l0.025-0.027l0.04,0.043c0.006,0.007,0.005,0.016-0.001,0.023
						l-0.088,0.094c-0.006,0.006-0.016,0.007-0.022,0.001L238,171.065L238,171.065L238,171.065z"/>
					<path fill="#FFFF00" stroke="#000000" stroke-width="0.0146" d="M238.146,171.023l0.135,0.13l-0.086,0.091l-0.124-0.142
						L238.146,171.023"/>
					<path id="cp1_4_" fill="#FFFF00" stroke="#000000" stroke-width="0.0146" d="M238.102,171.198l0.073,0.071l-0.082,0.088
						l-0.068-0.076L238.102,171.198L238.102,171.198L238.102,171.198z"/>
					<g>
						<path id="cp1_5_" fill="#FFFF00" stroke="#000000" stroke-width="0.0146" d="M238.313,170.972l0.073,0.071l-0.082,0.088
							l-0.068-0.076L238.313,170.972L238.313,170.972L238.313,170.972z"/>
					</g>
					<path id="cp2_4_" fill="#FFFF00" stroke="#000000" stroke-width="0.0146" d="M237.958,171.244l0.024-0.025l0.018,0.018
						l0.018-0.019l-0.018-0.019l0.025-0.026l0.018,0.019l0.018-0.019l-0.018-0.019l0.025-0.026l0.04,0.043
						c0.006,0.007,0.005,0.016,0,0.022l-0.086,0.092c-0.006,0.006-0.016,0.007-0.022,0.001L237.958,171.244L237.958,171.244
						L237.958,171.244z"/>
					<g>
						<path id="cp2_5_" fill="#FFFF00" stroke="#000000" stroke-width="0.0146" d="M238.17,171.018l0.024-0.025l0.018,0.018
							l0.018-0.019l-0.018-0.019l0.025-0.026l0.018,0.019l0.018-0.019l-0.018-0.019l0.025-0.026l0.04,0.043
							c0.006,0.007,0.005,0.016,0,0.022l-0.086,0.092c-0.006,0.006-0.016,0.007-0.022,0.001L238.17,171.018L238.17,171.018
							L238.17,171.018z"/>
					</g>
					<path d="M238.142,171.115c-0.013-0.013,0.005-0.032,0.017-0.018l0.031,0.032l-0.017,0.018L238.142,171.115"/>
					<path id="cp3_4_" d="M238.08,171.276c-0.012-0.013,0.004-0.031,0.017-0.018l0.024,0.025l-0.016,0.018L238.08,171.276"/>
					<g transform="matrix(0.70460892,-0.70959585,0.70959585,0.70460892,-35.341459,275.10898)">
						<path id="cp3_5_" d="M266.962,123.563c-0.012-0.013,0.004-0.031,0.017-0.018l0.024,0.025l-0.016,0.018L266.962,123.563"/>
					</g>
				</g>
			</g>
			<g>
				<g id="castle_3_">
					<path fill="#FFFF00" d="M239.129,168.65c0.004-0.166,0.115-0.205,0.116-0.205c0.001-0.001,0.12,0.042,0.119,0.207
						L239.129,168.65"/>
					<path fill="#FFFF00" stroke="#000000" stroke-width="0.0146" d="M239.033,168.448l-0.019,0.19l0.117,0
						c0.001-0.157,0.113-0.184,0.115-0.183c0.003,0,0.113,0.035,0.116,0.183h0.118l-0.021-0.192L239.033,168.448L239.033,168.448
						L239.033,168.448z"/>
					<path fill="#FFFF00" stroke="#000000" stroke-width="0.0146" d="M239.006,168.639h0.48c0.01,0,0.018,0.011,0.018,0.024
						c0,0.013-0.008,0.023-0.018,0.023h-0.48c-0.01,0-0.018-0.011-0.018-0.023C238.988,168.65,238.996,168.639,239.006,168.639z"/>
					<path fill="#FFFF00" stroke="#000000" stroke-width="0.0146" d="M239.181,168.638c0.001-0.099,0.064-0.128,0.064-0.127
						c0,0,0.066,0.029,0.067,0.127H239.181"/>
					<path fill="#FFFF00" stroke="#000000" stroke-width="0.0146" d="M239.016,168.369h0.46c0.01,0,0.018,0.01,0.018,0.021
						c0,0.012-0.008,0.021-0.018,0.021h-0.46c-0.01,0-0.018-0.009-0.018-0.021C238.999,168.378,239.007,168.369,239.016,168.369z"/>
					<path fill="#FFFF00" stroke="#000000" stroke-width="0.0146" d="M239.026,168.411h0.44c0.009,0,0.017,0.009,0.017,0.021
						s-0.008,0.021-0.017,0.021h-0.44c-0.009,0-0.017-0.009-0.017-0.021C239.009,168.421,239.017,168.411,239.026,168.411z"/>
					<path fill="#FFFF00" stroke="#000000" stroke-width="0.0146" d="M239.168,168.094l0.035,0v0.026h0.025v-0.027l0.036,0v0.027
						h0.025v-0.027h0.036l0,0.06c0,0.009-0.007,0.016-0.016,0.016h-0.125c-0.008,0-0.016-0.007-0.016-0.016V168.094L239.168,168.094
						L239.168,168.094z"/>
					<path fill="#FFFF00" stroke="#000000" stroke-width="0.0146" d="M239.299,168.174l0.008,0.194l-0.122-0.001l0.008-0.194
						L239.299,168.174"/>
					<path id="cp1_6_" fill="#FFFF00" stroke="#000000" stroke-width="0.0146" d="M239.15,168.264l0.004,0.104l-0.117,0l0.003-0.104
						H239.15L239.15,168.264L239.15,168.264z"/>
					<g>
						<path id="cp1_7_" fill="#FFFF00" stroke="#000000" stroke-width="0.0146" d="M239.451,168.264l0.004,0.104l-0.117,0
							l0.003-0.104H239.451L239.451,168.264L239.451,168.264z"/>
					</g>
					<path id="cp2_6_" fill="#FFFF00" stroke="#000000" stroke-width="0.0146" d="M239.019,168.189l0.034,0v0.026h0.025v-0.027
						l0.035,0v0.027h0.025v-0.027l0.035,0l0,0.06c0,0.009-0.007,0.016-0.015,0.016h-0.122c-0.008,0-0.016-0.007-0.016-0.016V168.189
						L239.019,168.189L239.019,168.189z"/>
					<g>
						<path id="cp2_7_" fill="#FFFF00" stroke="#000000" stroke-width="0.0146" d="M239.319,168.189l0.034,0v0.026h0.025v-0.027
							l0.035,0v0.027h0.025v-0.027l0.035,0l0,0.06c0,0.009-0.007,0.016-0.015,0.016h-0.122c-0.008,0-0.016-0.007-0.016-0.016
							V168.189L239.319,168.189L239.319,168.189z"/>
					</g>
					<path d="M239.234,168.236c-0.001-0.019,0.025-0.019,0.025,0v0.046h-0.025V168.236"/>
					<path id="cp3_6_" d="M239.083,168.302c0-0.018,0.024-0.019,0.023,0v0.036h-0.023L239.083,168.302"/>
					<g>
						<path id="cp3_7_" d="M239.385,168.302c0-0.018,0.024-0.019,0.023,0v0.036h-0.023L239.385,168.302"/>
					</g>
				</g>
				<g>
					<g>
						<g id="castle_4_">
							<path fill="#FFFF00" d="M240.65,168.65c-0.004-0.166-0.115-0.205-0.116-0.205c-0.001-0.001-0.12,0.042-0.119,0.207
								L240.65,168.65"/>
							<path fill="#FFFF00" stroke="#000000" stroke-width="0.0146" d="M240.746,168.448l0.019,0.19l-0.117,0
								c-0.001-0.157-0.113-0.184-0.115-0.183c-0.003,0-0.113,0.035-0.116,0.183h-0.118l0.021-0.192L240.746,168.448
								L240.746,168.448L240.746,168.448z"/>
							<path fill="#FFFF00" stroke="#000000" stroke-width="0.0146" d="M240.773,168.639h-0.48c-0.01,0-0.018,0.011-0.018,0.024
								c0,0.013,0.008,0.023,0.018,0.023h0.48c0.01,0,0.018-0.011,0.018-0.023C240.792,168.65,240.783,168.639,240.773,168.639z"/>
							<path fill="#FFFF00" stroke="#000000" stroke-width="0.0146" d="M240.599,168.638c-0.001-0.099-0.064-0.128-0.064-0.127
								c0,0-0.066,0.029-0.067,0.127H240.599"/>
							<path fill="#FFFF00" stroke="#000000" stroke-width="0.0146" d="M240.763,168.369h-0.46c-0.01,0-0.018,0.01-0.018,0.021
								c0,0.012,0.008,0.021,0.018,0.021h0.46c0.01,0,0.018-0.009,0.018-0.021C240.781,168.378,240.773,168.369,240.763,168.369z"/>
							<path fill="#FFFF00" stroke="#000000" stroke-width="0.0146" d="M240.754,168.411h-0.44c-0.009,0-0.017,0.009-0.017,0.021
								s0.008,0.021,0.017,0.021h0.44c0.009,0,0.017-0.009,0.017-0.021C240.77,168.421,240.763,168.411,240.754,168.411z"/>
							<path fill="#FFFF00" stroke="#000000" stroke-width="0.0146" d="M240.611,168.094l-0.035,0v0.026h-0.025v-0.027l-0.036,0
								v0.027h-0.025v-0.027h-0.036l0,0.06c0,0.009,0.007,0.016,0.016,0.016h0.125c0.008,0,0.016-0.007,0.016-0.016V168.094
								L240.611,168.094L240.611,168.094z"/>
							<path fill="#FFFF00" stroke="#000000" stroke-width="0.0146" d="M240.48,168.174l-0.008,0.194l0.122-0.001l-0.008-0.194
								L240.48,168.174"/>
							<path id="cp1_8_" fill="#FFFF00" stroke="#000000" stroke-width="0.0146" d="M240.629,168.264l-0.004,0.104l0.117,0
								l-0.003-0.104H240.629L240.629,168.264L240.629,168.264z"/>
							<g>
								<path id="cp1_9_" fill="#FFFF00" stroke="#000000" stroke-width="0.0146" d="M240.329,168.264l-0.004,0.104l0.117,0
									l-0.003-0.104H240.329L240.329,168.264L240.329,168.264z"/>
							</g>
							<path id="cp2_8_" fill="#FFFF00" stroke="#000000" stroke-width="0.0146" d="M240.761,168.189l-0.034,0v0.026h-0.025v-0.027
								l-0.035,0v0.027h-0.025v-0.027l-0.035,0l0,0.06c0,0.009,0.007,0.016,0.015,0.016h0.122c0.008,0,0.016-0.007,0.016-0.016
								V168.189L240.761,168.189L240.761,168.189z"/>
							<g>
								<path id="cp2_9_" fill="#FFFF00" stroke="#000000" stroke-width="0.0146" d="M240.46,168.189l-0.034,0v0.026h-0.025v-0.027
									l-0.035,0v0.027h-0.025v-0.027l-0.035,0l0,0.06c0,0.009,0.007,0.016,0.015,0.016h0.122c0.008,0,0.016-0.007,0.016-0.016
									V168.189L240.46,168.189L240.46,168.189z"/>
							</g>
							<path d="M240.545,168.236c0.001-0.019-0.025-0.019-0.025,0v0.046h0.025V168.236"/>
							<path id="cp3_8_" d="M240.696,168.302c0-0.018-0.024-0.019-0.023,0v0.036h0.023L240.696,168.302"/>
							<g>
								<path id="cp3_9_" d="M240.395,168.302c0-0.018-0.024-0.019-0.023,0v0.036h0.023L240.395,168.302"/>
							</g>
						</g>
						<g>
							<g id="castle_5_">
								<path fill="#FFFF00" d="M240.65,170.04c-0.004-0.166-0.115-0.205-0.116-0.205c-0.001-0.001-0.12,0.042-0.119,0.207
									L240.65,170.04"/>
								<path fill="#FFFF00" stroke="#000000" stroke-width="0.0146" d="M240.746,169.838l0.019,0.19l-0.117,0
									c-0.001-0.157-0.113-0.184-0.115-0.183c-0.003,0-0.113,0.035-0.116,0.183h-0.118l0.021-0.192L240.746,169.838
									L240.746,169.838L240.746,169.838z"/>
								<path fill="#FFFF00" stroke="#000000" stroke-width="0.0146" d="M240.773,170.029h-0.48c-0.01,0-0.018,0.011-0.018,0.024
									c0,0.013,0.008,0.023,0.018,0.023h0.48c0.01,0,0.018-0.011,0.018-0.023C240.792,170.039,240.783,170.029,240.773,170.029z"
									/>
								<path fill="#FFFF00" stroke="#000000" stroke-width="0.0146" d="M240.599,170.028c-0.001-0.099-0.064-0.127-0.064-0.127
									c0,0-0.066,0.029-0.067,0.127H240.599"/>
								<path fill="#FFFF00" stroke="#000000" stroke-width="0.0146" d="M240.763,169.758h-0.46c-0.01,0-0.018,0.01-0.018,0.021
									c0,0.012,0.008,0.021,0.018,0.021h0.46c0.01,0,0.018-0.009,0.018-0.021C240.781,169.768,240.773,169.758,240.763,169.758z"
									/>
								<path fill="#FFFF00" stroke="#000000" stroke-width="0.0146" d="M240.754,169.801h-0.44c-0.009,0-0.017,0.009-0.017,0.021
									c0,0.012,0.008,0.021,0.017,0.021h0.44c0.009,0,0.017-0.009,0.017-0.021C240.77,169.811,240.763,169.801,240.754,169.801z"
									/>
								<path fill="#FFFF00" stroke="#000000" stroke-width="0.0146" d="M240.611,169.483l-0.035,0v0.026h-0.025v-0.027l-0.036,0
									v0.027h-0.025v-0.027h-0.036l0,0.06c0,0.009,0.007,0.016,0.016,0.016h0.125c0.008,0,0.016-0.007,0.016-0.016V169.483
									L240.611,169.483L240.611,169.483z"/>
								<path fill="#FFFF00" stroke="#000000" stroke-width="0.0146" d="M240.48,169.564l-0.008,0.194l0.122,0l-0.008-0.194
									L240.48,169.564"/>
								<path id="cp1_10_" fill="#FFFF00" stroke="#000000" stroke-width="0.0146" d="M240.629,169.654l-0.004,0.104l0.117,0
									l-0.003-0.104H240.629L240.629,169.654L240.629,169.654z"/>
								<g>
									<path id="cp1_11_" fill="#FFFF00" stroke="#000000" stroke-width="0.0146" d="M240.329,169.654l-0.004,0.104l0.117,0
										l-0.003-0.104H240.329L240.329,169.654L240.329,169.654z"/>
								</g>
								<path id="cp2_10_" fill="#FFFF00" stroke="#000000" stroke-width="0.0146" d="M240.761,169.578l-0.034,0v0.026h-0.025
									v-0.027l-0.035,0v0.027h-0.025v-0.027l-0.035,0l0,0.06c0,0.009,0.007,0.016,0.015,0.016h0.122
									c0.008,0,0.016-0.007,0.016-0.016V169.578L240.761,169.578L240.761,169.578z"/>
								<g>
									<path id="cp2_11_" fill="#FFFF00" stroke="#000000" stroke-width="0.0146" d="M240.46,169.578l-0.034,0v0.026h-0.025
										v-0.027l-0.035,0v0.027h-0.025v-0.027l-0.035,0l0,0.06c0,0.009,0.007,0.016,0.015,0.016h0.122
										c0.008,0,0.016-0.007,0.016-0.016V169.578L240.46,169.578L240.46,169.578z"/>
								</g>
								<path d="M240.545,169.625c0.001-0.019-0.025-0.019-0.025,0v0.046h0.025V169.625"/>
								<path id="cp3_10_" d="M240.696,169.692c0-0.018-0.024-0.019-0.023,0v0.036h0.023L240.696,169.692"/>
								<g>
									<path id="cp3_11_" d="M240.395,169.692c0-0.018-0.024-0.019-0.023,0v0.036h0.023L240.395,169.692"/>
								</g>
							</g>
							<g id="castle3_1_">
								<g id="castle_6_">
									<path fill="#FFFF00" d="M240.139,171.486c0.108-0.12,0.056-0.231,0.056-0.232c0-0.001-0.113-0.06-0.223,0.056
										L240.139,171.486"/>
									<path fill="#FFFF00" stroke="#000000" stroke-width="0.0146" d="M240.342,171.416l-0.114,0.149l-0.083-0.088
										c0.105-0.112,0.044-0.214,0.041-0.216c-0.002-0.002-0.103-0.06-0.204,0.042l-0.083-0.088l0.144-0.119L240.342,171.416
										L240.342,171.416L240.342,171.416z"/>
									<path fill="#FFFF00" stroke="#000000" stroke-width="0.0146" d="M240.233,171.571l-0.338-0.361
										c-0.007-0.008-0.02-0.006-0.029,0.003c-0.009,0.009-0.01,0.023-0.003,0.03l0.338,0.361c0.007,0.008,0.02,0.006,0.029-0.003
										C240.239,171.592,240.24,171.578,240.233,171.571z"/>
									<path fill="#FFFF00" stroke="#000000" stroke-width="0.0146" d="M240.11,171.439c0.066-0.07,0.04-0.138,0.04-0.138
										c0,0-0.066-0.029-0.133,0.04L240.11,171.439"/>
									<path fill="#FFFF00" stroke="#000000" stroke-width="0.0146" d="M240.407,171.373l-0.324-0.346
										c-0.007-0.007-0.019-0.007-0.027,0.002c-0.008,0.008-0.009,0.021-0.002,0.028l0.324,0.346
										c0.007,0.007,0.019,0.007,0.027-0.002C240.413,171.393,240.414,171.38,240.407,171.373z"/>
									<path fill="#FFFF00" stroke="#000000" stroke-width="0.0146" d="M240.371,171.395l-0.31-0.331
										c-0.007-0.007-0.018-0.006-0.026,0.002c-0.008,0.008-0.009,0.021-0.002,0.028l0.31,0.331
										c0.007,0.007,0.018,0.006,0.026-0.002C240.377,171.415,240.378,171.402,240.371,171.395z"/>
									<path fill="#FFFF00" stroke="#000000" stroke-width="0.0146" d="M240.484,171.065l-0.025-0.026l-0.018,0.018l-0.018-0.019
										l0.018-0.019l-0.025-0.027l-0.018,0.019l-0.018-0.019l0.018-0.019l-0.025-0.027l-0.04,0.043
										c-0.006,0.007-0.005,0.016,0,0.023l0.088,0.094c0.006,0.006,0.016,0.007,0.022,0.001L240.484,171.065L240.484,171.065
										L240.484,171.065z"/>
									<path fill="#FFFF00" stroke="#000000" stroke-width="0.0146" d="M240.338,171.023l-0.135,0.13l0.086,0.091l0.124-0.142
										L240.338,171.023"/>
									<path id="cp1_12_" fill="#FFFF00" stroke="#000000" stroke-width="0.0146" d="M240.382,171.198l-0.073,0.071l0.082,0.088
										l0.068-0.076L240.382,171.198L240.382,171.198L240.382,171.198z"/>
									<g>
										<path id="cp1_13_" fill="#FFFF00" stroke="#000000" stroke-width="0.0146" d="M240.171,170.972l-0.073,0.071l0.082,0.088
											l0.068-0.076L240.171,170.972L240.171,170.972L240.171,170.972z"/>
									</g>
									<path id="cp2_12_" fill="#FFFF00" stroke="#000000" stroke-width="0.0146" d="M240.526,171.244l-0.024-0.025l-0.018,0.018
										l-0.018-0.019l0.018-0.019l-0.025-0.026l-0.018,0.019l-0.018-0.019l0.018-0.019l-0.025-0.026l-0.04,0.043
										c-0.006,0.007-0.005,0.016,0,0.022l0.086,0.092c0.006,0.006,0.016,0.007,0.022,0.001L240.526,171.244L240.526,171.244
										L240.526,171.244z"/>
									<g>
										<path id="cp2_13_" fill="#FFFF00" stroke="#000000" stroke-width="0.0146" d="M240.314,171.018l-0.024-0.025l-0.018,0.018
											l-0.018-0.019l0.018-0.019l-0.025-0.026l-0.018,0.019l-0.018-0.019l0.018-0.019l-0.025-0.026l-0.04,0.043
											c-0.006,0.007-0.005,0.016,0,0.022l0.086,0.092c0.006,0.006,0.016,0.007,0.022,0.001L240.314,171.018L240.314,171.018
											L240.314,171.018z"/>
									</g>
									<path d="M240.342,171.115c0.013-0.013-0.005-0.032-0.017-0.018l-0.031,0.032l0.017,0.018L240.342,171.115"/>
									<path id="cp3_12_" d="M240.404,171.276c0.012-0.013-0.004-0.031-0.017-0.018l-0.024,0.025l0.016,0.018L240.404,171.276"/>
									<g transform="matrix(-1,0,0,1,479.79195,0)">
										<path id="cp3_13_" d="M242.334,171.049c0.012-0.013-0.004-0.031-0.017-0.018l-0.024,0.025l0.016,0.018L242.334,171.049"/>
									</g>
								</g>
							</g>
							<g id="quina">
								<path fill="#003399" d="M239.036,170.089L239.036,170.089c0,0.066,0.024,0.127,0.063,0.171
									c0.039,0.044,0.092,0.071,0.15,0.071c0.059,0,0.112-0.027,0.15-0.071c0.038-0.044,0.062-0.104,0.062-0.171v-0.323l-0.425,0
									L239.036,170.089"/>
								<ellipse fill="#FFFFFF" cx="239.134" cy="169.889" rx="0.045" ry="0.045"/>
								<ellipse fill="#FFFFFF" cx="239.369" cy="169.89" rx="0.045" ry="0.045"/>
								<ellipse fill="#FFFFFF" cx="239.251" cy="170.009" rx="0.045" ry="0.045"/>
								<ellipse fill="#FFFFFF" cx="239.134" cy="170.135" rx="0.045" ry="0.045"/>
								<ellipse fill="#FFFFFF" cx="239.369" cy="170.134" rx="0.045" ry="0.045"/>
							</g>
							<g>
								<g id="quina_1_">
									<path fill="#003399" d="M239.036,169.309L239.036,169.309c0,0.066,0.024,0.127,0.063,0.171
										c0.039,0.044,0.092,0.071,0.15,0.071c0.059,0,0.112-0.027,0.15-0.071c0.038-0.044,0.062-0.104,0.062-0.171v-0.323l-0.425,0
										L239.036,169.309"/>
									<ellipse fill="#FFFFFF" cx="239.134" cy="169.109" rx="0.045" ry="0.045"/>
									<ellipse fill="#FFFFFF" cx="239.369" cy="169.109" rx="0.045" ry="0.045"/>
									<ellipse fill="#FFFFFF" cx="239.251" cy="169.229" rx="0.045" ry="0.045"/>
									<ellipse fill="#FFFFFF" cx="239.134" cy="169.354" rx="0.045" ry="0.045"/>
									<ellipse fill="#FFFFFF" cx="239.369" cy="169.354" rx="0.045" ry="0.045"/>
								</g>
							</g>
							<g>
								<g id="quina_2_">
									<path fill="#003399" d="M238.447,170.089L238.447,170.089c0,0.066,0.024,0.127,0.063,0.171
										c0.039,0.044,0.092,0.071,0.15,0.071c0.059,0,0.112-0.027,0.15-0.071c0.038-0.044,0.062-0.104,0.062-0.171v-0.323l-0.425,0
										L238.447,170.089"/>
									<ellipse fill="#FFFFFF" cx="238.544" cy="169.889" rx="0.045" ry="0.045"/>
									<ellipse fill="#FFFFFF" cx="238.78" cy="169.89" rx="0.045" ry="0.045"/>
									<ellipse fill="#FFFFFF" cx="238.662" cy="170.009" rx="0.045" ry="0.045"/>
									<ellipse fill="#FFFFFF" cx="238.544" cy="170.135" rx="0.045" ry="0.045"/>
									<ellipse fill="#FFFFFF" cx="238.78" cy="170.134" rx="0.045" ry="0.045"/>
								</g>
							</g>
							<g>
								<g id="quina_3_">
									<path fill="#003399" d="M239.624,170.089L239.624,170.089c0,0.066,0.024,0.127,0.063,0.171
										c0.039,0.044,0.092,0.071,0.15,0.071c0.059,0,0.112-0.027,0.15-0.071c0.038-0.044,0.062-0.104,0.062-0.171v-0.323l-0.425,0
										L239.624,170.089"/>
									<ellipse fill="#FFFFFF" cx="239.722" cy="169.889" rx="0.045" ry="0.045"/>
									<ellipse fill="#FFFFFF" cx="239.957" cy="169.89" rx="0.045" ry="0.045"/>
									<ellipse fill="#FFFFFF" cx="239.839" cy="170.009" rx="0.045" ry="0.045"/>
									<ellipse fill="#FFFFFF" cx="239.722" cy="170.135" rx="0.045" ry="0.045"/>
									<ellipse fill="#FFFFFF" cx="239.957" cy="170.134" rx="0.045" ry="0.045"/>
								</g>
							</g>
							<g>
								<g id="quina_4_">
									<path fill="#003399" d="M239.036,170.863L239.036,170.863c0,0.066,0.024,0.127,0.063,0.171
										c0.039,0.044,0.092,0.071,0.15,0.071c0.059,0,0.112-0.027,0.15-0.071c0.038-0.044,0.062-0.104,0.062-0.171v-0.323l-0.425,0
										L239.036,170.863"/>
									<ellipse fill="#FFFFFF" cx="239.134" cy="170.663" rx="0.045" ry="0.045"/>
									<ellipse fill="#FFFFFF" cx="239.369" cy="170.663" rx="0.045" ry="0.045"/>
									<ellipse fill="#FFFFFF" cx="239.251" cy="170.783" rx="0.045" ry="0.045"/>
									<ellipse fill="#FFFFFF" cx="239.134" cy="170.908" rx="0.045" ry="0.045"/>
									<ellipse fill="#FFFFFF" cx="239.369" cy="170.908" rx="0.045" ry="0.045"/>
								</g>
							</g>
						</g>
					</g>
				</g>
			</g>
		</g>
	</g>
</g>
</svg>
