<?xml version="1.0" encoding="utf-8"?>
<!-- Generator: Adobe Illustrator 17.0.0, SVG Export Plug-In . SVG Version: 6.00 Build 0)  -->
<!DOCTYPE svg PUBLIC "-//W3C//DTD SVG 1.1//EN" "http://www.w3.org/Graphics/SVG/1.1/DTD/svg11.dtd">
<svg version="1.1" id="Слой_1" xmlns="http://www.w3.org/2000/svg" xmlns:xlink="http://www.w3.org/1999/xlink" x="0px" y="0px"
	 width="17px" height="12px" viewBox="232.445 164.078 17 12" enable-background="new 232.445 164.078 17 12" xml:space="preserve">
<g>
	<g>
		<rect x="232.445" y="164.078" fill="#FFFFFF" width="17" height="4"/>
		<path fill="#EC1C24" d="M240.945,166.079"/>
	</g>
	<g>
		<rect x="232.445" y="168.079" fill="#0071BB" width="17" height="4"/>
		<path fill="#FFFFFF" d="M240.945,170.079"/>
	</g>
	<g>
		<rect x="232.445" y="172.079" fill="#EC1C24" width="17" height="4"/>
		<path fill="#0066B2" d="M240.945,174.079"/>
	</g>
</g>
<path fill="#FFFFFF" stroke="#000000" stroke-width="0.2014" d="M235.907,168.623"/>
<path fill="#0071BB" d="M237.068,166.565v3.229c-0.177,0.743-1.354,0.907-1.354,0.907c-1.58,0.105-1.677-1.113-1.677-1.113v-3.023
	C234.037,166.565,235.649,166.025,237.068,166.565z"/>
<path fill="#FFFFFF" stroke="#0071BB" stroke-width="0.077" d="M234.053,169.008l0.677-0.988l0.379,0.513
	c0,0,0.517-1.129,0.485-1.134c-0.032-0.005,0.54,1.152,0.54,1.152l0.388-0.511l0.546,0.853v0.936c0,0-0.403,1.011-1.806,0.858
	c0,0-1.177-0.104-1.209-1.179C234.028,168.667,234.053,169.008,234.053,169.008z"/>
<g>
	<path fill="#0071BB" d="M234.276,169.371c0,0,0.368,0.085,0.674-0.124c0.22-0.15,0.532-0.327,1.072,0.013
		c0.46,0.289,0.796,0.051,0.796,0.051l0.002-0.18c0,0-0.337,0.221-0.796-0.068c-0.541-0.34-0.853-0.163-1.072-0.013
		c-0.306,0.21-0.674,0.124-0.674,0.124L234.276,169.371z"/>
</g>
<g>
	<path fill="#0071BB" d="M234.276,169.889c0,0,0.368,0.085,0.674-0.124c0.22-0.15,0.532-0.327,1.072,0.013
		c0.46,0.289,0.796,0.068,0.796,0.068l0.002-0.147c0,0-0.337,0.221-0.796-0.068c-0.541-0.34-0.853-0.163-1.072-0.013
		c-0.306,0.21-0.674,0.124-0.674,0.124L234.276,169.889z"/>
</g>
<path fill="none" stroke="#EC1C24" stroke-width="0.1209" d="M237.068,166.565v3.229c-0.177,0.743-1.354,0.907-1.354,0.907
	c-1.58,0.105-1.677-1.113-1.677-1.113v-3.023C234.037,166.565,235.649,166.025,237.068,166.565z"/>
<g>
	<polygon fill="#FFCB25" points="235.193,166.798 235.259,166.661 235.127,166.661 235.076,166.555 235.025,166.661 
		234.893,166.661 234.959,166.798 234.893,166.935 235.025,166.935 235.076,167.041 235.127,166.935 235.259,166.935 	"/>
	<polygon fill="#FFCB25" points="236.201,166.798 236.267,166.661 236.135,166.661 236.084,166.555 236.033,166.661 
		235.901,166.661 235.967,166.798 235.901,166.935 236.033,166.935 236.084,167.041 236.135,166.935 236.267,166.935 	"/>
	<polygon fill="#FFCB25" points="235.685,167.243 235.735,167.138 235.634,167.138 235.595,167.057 235.556,167.138 
		235.455,167.138 235.505,167.243 235.455,167.348 235.556,167.348 235.595,167.429 235.634,167.348 235.735,167.348 	"/>
</g>
</svg>
