<?xml version="1.0" encoding="utf-8"?>
<!-- Generator: Adobe Illustrator 17.0.0, SVG Export Plug-In . SVG Version: 6.00 Build 0)  -->
<!DOCTYPE svg PUBLIC "-//W3C//DTD SVG 1.1//EN" "http://www.w3.org/Graphics/SVG/1.1/DTD/svg11.dtd">
<svg version="1.1" id="Слой_1" xmlns="http://www.w3.org/2000/svg" xmlns:xlink="http://www.w3.org/1999/xlink" x="0px" y="0px"
	 width="17px" height="12px" viewBox="232.445 164.078 17 12" enable-background="new 232.445 164.078 17 12" xml:space="preserve">
<title>Flag of Slovakia</title>
<rect x="232.445" y="164.078" fill="#EE1C25" width="17" height="12"/>
<rect x="232.445" y="164.078" fill="#0B4EA2" width="17" height="8"/>
<rect x="232.445" y="164.078" fill="#FFFFFF" width="17" height="4"/>
<g>
	<path fill="#FFFFFF" d="M238.78,173.349c-1.077-0.518-2.618-1.546-2.618-3.581c0-2.034,0.097-2.959,0.097-2.959h2.521h2.521
		c0,0,0.097,0.925,0.097,2.959C241.398,171.802,239.857,172.83,238.78,173.349z"/>
	<path fill="#EE1C25" d="M238.78,173.078c-0.988-0.475-2.402-1.419-2.402-3.285s0.089-2.715,0.089-2.715h2.313h2.313
		c0,0,0.089,0.849,0.089,2.715S239.768,172.603,238.78,173.078L238.78,173.078z"/>
	<path fill="#FFFFFF" d="M238.991,169.304c0.268,0.004,0.79,0.015,1.255-0.141c0,0-0.012,0.166-0.012,0.36
		c0,0.194,0.012,0.36,0.012,0.36c-0.426-0.142-0.953-0.145-1.255-0.142v1.031h-0.423v-1.031c-0.302-0.004-0.828-0.001-1.255,0.142
		c0,0,0.012-0.166,0.012-0.36c0-0.193-0.012-0.36-0.012-0.36c0.465,0.155,0.987,0.145,1.255,0.141v-0.647
		c-0.244-0.002-0.595,0.009-0.993,0.142c0,0,0.012-0.166,0.012-0.36c0-0.193-0.012-0.36-0.012-0.36
		c0.397,0.133,0.748,0.144,0.992,0.142c-0.013-0.41-0.132-0.927-0.132-0.927s0.246,0.019,0.345,0.019
		c0.098,0,0.345-0.019,0.345-0.019s-0.12,0.517-0.132,0.927c0.244,0.002,0.595-0.01,0.992-0.142c0,0-0.012,0.166-0.012,0.36
		c0,0.194,0.012,0.36,0.012,0.36c-0.397-0.133-0.749-0.144-0.993-0.142V169.304L238.991,169.304z"/>
	<path fill="#0B4EA2" d="M238.779,170.66c-0.498,0-0.764,0.689-0.764,0.689s-0.148-0.327-0.554-0.327
		c-0.275,0-0.477,0.244-0.606,0.47c0.5,0.794,1.297,1.284,1.924,1.586c0.627-0.301,1.425-0.791,1.925-1.586
		c-0.129-0.226-0.331-0.47-0.606-0.47c-0.406,0-0.555,0.327-0.555,0.327S239.277,170.66,238.779,170.66L238.779,170.66z"/>
</g>
</svg>
