<?xml version="1.0" encoding="utf-8"?>
<!-- Generator: Adobe Illustrator 17.0.0, SVG Export Plug-In . SVG Version: 6.00 Build 0)  -->
<!DOCTYPE svg PUBLIC "-//W3C//DTD SVG 1.1//EN" "http://www.w3.org/Graphics/SVG/1.1/DTD/svg11.dtd">
<svg version="1.1" id="Слой_1" xmlns="http://www.w3.org/2000/svg" xmlns:xlink="http://www.w3.org/1999/xlink" x="0px" y="0px"
	 width="17px" height="12px" viewBox="232.445 164.078 17 12" enable-background="new 232.445 164.078 17 12" xml:space="preserve">
<rect x="232.445" y="164.078" fill="#006600" width="17" height="12"/>
<rect x="232.445" y="164.078" fill="#FFFFFF" width="17" height="8.571"/>
<rect x="232.445" y="164.078" fill="#CC0000" width="17" height="3.429"/>
<g>
	<path fill="#F8C300" d="M240.605,169.965c0.042-0.073,0.135-0.097,0.208-0.055c0.045,0.026,0.074,0.074,0.075,0.127v0.608h0.114
		v-0.608c0.003-0.084,0.073-0.15,0.156-0.147c0.052,0.002,0.1,0.03,0.127,0.076c0.062-0.188-0.039-0.391-0.227-0.453
		c-0.188-0.062-0.39,0.04-0.453,0.228C240.581,169.813,240.581,169.892,240.605,169.965"/>
	<path fill="#FFFFFF" d="M240.686,169.807c0.102-0.021,0.206,0.026,0.259,0.116c0.052-0.09,0.156-0.137,0.259-0.116
		c-0.02-0.143-0.151-0.243-0.294-0.223C240.794,169.599,240.702,169.691,240.686,169.807"/>
	<path id="w" fill="#F8C300" d="M240.888,170.402c-0.023,0.254-0.247,0.442-0.501,0.419c-0.103-0.009-0.199-0.053-0.274-0.123
		c-0.098,0.246-0.377,0.367-0.623,0.268c-0.036-0.014-0.071-0.033-0.102-0.056c0.044,0.443,0.707,0.352,0.757-0.078
		c0.208,0.366,0.666,0.261,0.8-0.187L240.888,170.402z"/>
	<g>
		<path id="w_1_" fill="#F8C300" d="M241.002,170.402c0.023,0.254,0.247,0.442,0.501,0.419c0.103-0.009,0.199-0.053,0.274-0.123
			c0.098,0.246,0.377,0.367,0.623,0.268c0.036-0.014,0.071-0.033,0.102-0.056c-0.044,0.443-0.707,0.352-0.757-0.078
			c-0.208,0.366-0.666,0.261-0.8-0.187L241.002,170.402z"/>
	</g>
	<path id="r" fill="#F8C300" d="M240.445,171.189c-0.093,0.2-0.277,0.234-0.439,0.073c0,0,0.065-0.046,0.135-0.059
		c-0.013-0.056,0.014-0.133,0.051-0.174c0.04,0.027,0.095,0.081,0.109,0.144C240.398,171.16,240.445,171.189,240.445,171.189
		L240.445,171.189z"/>
	<g>
		<path id="r_1_" fill="#F8C300" d="M241.169,171.166c-0.124,0.182-0.312,0.186-0.445,0c0,0,0.072-0.035,0.142-0.036
			c-0.004-0.057,0.035-0.129,0.079-0.163c0.035,0.033,0.08,0.096,0.084,0.16C241.127,171.131,241.169,171.166,241.169,171.166
			L241.169,171.166z"/>
	</g>
	<g>
		<path id="r_2_" fill="#F8C300" d="M241.887,171.262c-0.152,0.16-0.338,0.133-0.439-0.072c0,0,0.076-0.023,0.146-0.012
			c0.005-0.057,0.056-0.121,0.105-0.148c0.029,0.038,0.064,0.107,0.057,0.172C241.851,171.22,241.887,171.262,241.887,171.262
			L241.887,171.262z"/>
	</g>
	<path fill="none" stroke="#F8C300" stroke-width="0.4591" d="M239.767,171.635c0.769-0.229,1.587-0.229,2.356,0"/>
	<g>
		<g transform="translate(0,-140)">
			<polygon id="s" fill="#F8C300" points="-459.055,-71.563 -458.877,-71.013 -459.344,-71.353 -458.766,-71.353 -459.233,-71.013 
							"/>
		</g>
		<g id="h">
			<g>
				<polygon id="s_1_" fill="#F8C300" points="-459.905,-211.335 -459.727,-210.785 -460.194,-211.125 -459.616,-211.125 
					-460.083,-210.785 				"/>
			</g>
			<g>
				<polygon id="s_2_" fill="#F8C300" points="-460.527,-210.712 -460.349,-210.162 -460.816,-210.502 -460.238,-210.502 
					-460.706,-210.162 				"/>
			</g>
			<g>
				<polygon id="s_3_" fill="#F8C300" points="-460.755,-209.861 -460.577,-209.311 -461.044,-209.651 -460.466,-209.651 
					-460.933,-209.311 				"/>
			</g>
		</g>
		<g transform="translate(700,380)">
			<g id="h_1_">
				<g>
					<polygon id="s_4_" fill="#F8C300" points="-458.205,-211.335 -458.383,-210.785 -457.916,-211.125 -458.494,-211.125 
						-458.027,-210.785 					"/>
				</g>
				<g>
					<polygon id="s_5_" fill="#F8C300" points="-457.583,-210.712 -457.761,-210.162 -457.294,-210.502 -457.871,-210.502 
						-457.404,-210.162 					"/>
				</g>
				<g transform="scale(-1,1)">
					<polygon id="s_6_" fill="#F8C300" points="-457.355,-209.861 -457.533,-209.311 -457.066,-209.651 -457.644,-209.651 
						-457.177,-209.311 					"/>
				</g>
			</g>
		</g>
	</g>
</g>
</svg>
