<?xml version="1.0" encoding="utf-8"?>
<!-- Generator: Adobe Illustrator 17.0.0, SVG Export Plug-In . SVG Version: 6.00 Build 0)  -->
<!DOCTYPE svg PUBLIC "-//W3C//DTD SVG 1.1//EN" "http://www.w3.org/Graphics/SVG/1.1/DTD/svg11.dtd">
<svg version="1.1" id="Слой_1" xmlns="http://www.w3.org/2000/svg" xmlns:xlink="http://www.w3.org/1999/xlink" x="0px" y="0px"
	 width="17px" height="12px" viewBox="232.445 164.078 17 12" enable-background="new 232.445 164.078 17 12" xml:space="preserve">
<g>
	<polygon fill="#FFFFFF" points="232.445,164.078 249.445,164.078 249.445,176.078 232.445,176.078 	"/>
	<path fill="#D73647" d="M249.445,176.078h-17v-0.932h17V176.078L249.445,176.078z M249.445,164.079v0.925h-10.253v-0.925
		C241.806,164.079,246.322,164.079,249.445,164.079L249.445,164.079z M249.445,165.921v0.917h-10.253v-0.917H249.445
		L249.445,165.921z M249.445,167.769v0.917h-10.253v-0.917H249.445L249.445,167.769z M249.445,169.617v0.917h-10.253v-0.917H249.445
		L249.445,169.617z M249.445,171.465v0.917h-17v-0.917H249.445L249.445,171.465z M249.445,173.299v0.932h-17v-0.932H249.445
		L249.445,173.299z"/>
	<polygon fill="#004990" points="241.495,170.534 241.495,164.078 232.445,164.078 232.445,170.534 	"/>
	<path fill="#FFFFFF" d="M233.182,164.403l-0.075,0.255h-0.271l0.225,0.165l-0.09,0.24l0.21-0.15l0.225,0.15l-0.09-0.24l0.225-0.165
		h-0.271L233.182,164.403L233.182,164.403z M234.7,164.403l-0.09,0.255h-0.256l0.21,0.165l-0.075,0.24l0.21-0.15l0.21,0.15
		l-0.075-0.24l0.211-0.165h-0.271L234.7,164.403L234.7,164.403z M236.203,164.403l-0.075,0.255h-0.271l0.226,0.165l-0.09,0.24
		l0.21-0.15l0.226,0.15l-0.09-0.24l0.21-0.165h-0.256L236.203,164.403L236.203,164.403z M237.722,164.403l-0.09,0.255h-0.256
		l0.21,0.165l-0.09,0.24l0.225-0.15l0.21,0.15l-0.09-0.24l0.225-0.165h-0.271L237.722,164.403L237.722,164.403z M239.225,164.403
		l-0.075,0.255h-0.271l0.21,0.165l-0.075,0.24l0.21-0.15l0.21,0.15l-0.075-0.24l0.21-0.165h-0.256L239.225,164.403L239.225,164.403z
		 M240.729,164.403l-0.075,0.255h-0.271l0.226,0.165l-0.09,0.24l0.21-0.15l0.225,0.15l-0.09-0.24l0.226-0.165h-0.271
		L240.729,164.403L240.729,164.403z M233.182,165.695l-0.075,0.24h-0.271l0.225,0.165l-0.09,0.24l0.21-0.15l0.225,0.15l-0.09-0.24
		l0.225-0.165h-0.271L233.182,165.695L233.182,165.695z M234.7,165.695l-0.09,0.24h-0.256l0.21,0.165l-0.075,0.24l0.21-0.15
		l0.21,0.15l-0.075-0.24l0.211-0.165h-0.271L234.7,165.695L234.7,165.695z M236.203,165.695l-0.075,0.24h-0.271l0.226,0.165
		l-0.09,0.24l0.21-0.15l0.226,0.15l-0.09-0.24l0.21-0.165h-0.256L236.203,165.695L236.203,165.695z M237.722,165.695l-0.09,0.24
		h-0.256l0.21,0.165l-0.09,0.24l0.225-0.15l0.21,0.15l-0.09-0.24l0.225-0.165h-0.271L237.722,165.695L237.722,165.695z
		 M239.225,165.695l-0.075,0.24h-0.271l0.21,0.165l-0.075,0.24l0.21-0.15l0.21,0.15l-0.075-0.24l0.21-0.165h-0.256L239.225,165.695
		L239.225,165.695z M240.729,165.695l-0.075,0.24h-0.271l0.226,0.165l-0.09,0.24l0.21-0.15l0.225,0.15l-0.09-0.24l0.226-0.165
		h-0.271L240.729,165.695L240.729,165.695z M233.182,166.972l-0.075,0.24h-0.271l0.225,0.165l-0.09,0.255l0.21-0.165l0.225,0.165
		l-0.09-0.255l0.225-0.165h-0.271L233.182,166.972L233.182,166.972z M234.7,166.972l-0.09,0.24h-0.256l0.21,0.165l-0.075,0.255
		l0.21-0.165l0.21,0.165l-0.075-0.255l0.211-0.165h-0.271L234.7,166.972L234.7,166.972z M236.203,166.972l-0.075,0.24h-0.271
		l0.226,0.165l-0.09,0.255l0.21-0.165l0.226,0.165l-0.09-0.255l0.21-0.165h-0.256L236.203,166.972L236.203,166.972z
		 M237.722,166.972l-0.09,0.24h-0.256l0.21,0.165l-0.09,0.255l0.225-0.165l0.21,0.165l-0.09-0.255l0.225-0.165h-0.271
		L237.722,166.972L237.722,166.972z M239.225,166.972l-0.075,0.24h-0.271l0.21,0.165l-0.075,0.255l0.21-0.165l0.21,0.165
		l-0.075-0.255l0.21-0.165h-0.256L239.225,166.972L239.225,166.972z M240.729,166.972l-0.075,0.24h-0.271l0.226,0.165l-0.09,0.255
		l0.21-0.165l0.225,0.165l-0.09-0.255l0.226-0.165h-0.271L240.729,166.972L240.729,166.972z M233.182,168.25l-0.075,0.24h-0.271
		l0.225,0.165l-0.09,0.255l0.21-0.165l0.225,0.165l-0.09-0.255l0.225-0.15h-0.271L233.182,168.25L233.182,168.25z M234.7,168.25
		l-0.09,0.24h-0.256l0.21,0.165l-0.075,0.255l0.21-0.165l0.21,0.165l-0.075-0.255l0.211-0.15h-0.271L234.7,168.25L234.7,168.25z
		 M236.203,168.25l-0.075,0.24h-0.271l0.226,0.165l-0.09,0.255l0.21-0.165l0.226,0.165l-0.09-0.255l0.21-0.15h-0.256L236.203,168.25
		L236.203,168.25z M237.722,168.25l-0.09,0.24h-0.256l0.21,0.165l-0.09,0.255l0.225-0.165l0.21,0.165l-0.09-0.255l0.225-0.15h-0.271
		L237.722,168.25L237.722,168.25z M239.225,168.25l-0.075,0.24h-0.271l0.21,0.165l-0.075,0.255l0.21-0.165l0.21,0.165l-0.075-0.255
		l0.21-0.15h-0.256L239.225,168.25L239.225,168.25z M240.729,168.25l-0.075,0.24h-0.271l0.226,0.165l-0.09,0.255l0.21-0.165
		l0.225,0.165l-0.09-0.255l0.226-0.15h-0.271L240.729,168.25L240.729,168.25z M233.182,169.527l-0.075,0.255h-0.271l0.225,0.15
		l-0.09,0.255l0.21-0.165l0.225,0.165l-0.09-0.255l0.225-0.15h-0.271L233.182,169.527L233.182,169.527z M234.7,169.527l-0.09,0.255
		h-0.256l0.21,0.15l-0.075,0.255l0.21-0.165l0.21,0.165l-0.075-0.255l0.211-0.15h-0.271L234.7,169.527L234.7,169.527z
		 M236.203,169.527l-0.075,0.255h-0.271l0.226,0.15l-0.09,0.255l0.21-0.165l0.226,0.165l-0.09-0.255l0.21-0.15h-0.256
		L236.203,169.527L236.203,169.527z M237.722,169.527l-0.09,0.255h-0.256l0.21,0.15l-0.09,0.255l0.225-0.165l0.21,0.165l-0.09-0.255
		l0.225-0.15h-0.271L237.722,169.527L237.722,169.527z M239.225,169.527l-0.075,0.255h-0.271l0.21,0.15l-0.075,0.255l0.21-0.165
		l0.21,0.165l-0.075-0.255l0.21-0.15h-0.256L239.225,169.527L239.225,169.527z M240.729,169.527l-0.075,0.255h-0.271l0.226,0.15
		l-0.09,0.255l0.21-0.165l0.225,0.165l-0.09-0.255l0.226-0.15h-0.271L240.729,169.527L240.729,169.527z M233.948,168.896l-0.09,0.24
		h-0.256l0.21,0.165l-0.09,0.24l0.225-0.15l0.21,0.15l-0.09-0.24l0.225-0.165h-0.271L233.948,168.896L233.948,168.896z
		 M235.452,168.896l-0.075,0.24h-0.271l0.21,0.165l-0.075,0.24l0.21-0.15l0.21,0.15l-0.075-0.24l0.21-0.165h-0.256L235.452,168.896
		L235.452,168.896z M236.955,168.896l-0.075,0.24h-0.271l0.225,0.165l-0.09,0.24l0.21-0.15l0.226,0.15l-0.09-0.24l0.225-0.165
		h-0.271L236.955,168.896L236.955,168.896z M238.474,168.896l-0.09,0.24h-0.256l0.21,0.165l-0.075,0.24l0.21-0.15l0.21,0.15
		l-0.075-0.24l0.21-0.165h-0.271L238.474,168.896L238.474,168.896z M239.977,168.896l-0.075,0.24h-0.271l0.225,0.165l-0.09,0.24
		l0.21-0.15l0.225,0.15l-0.09-0.24l0.21-0.165h-0.256L239.977,168.896L239.977,168.896z M233.948,167.604l-0.09,0.255h-0.256
		l0.21,0.15l-0.09,0.255l0.225-0.15l0.21,0.15l-0.09-0.255l0.225-0.15h-0.271L233.948,167.604L233.948,167.604z M235.452,167.604
		l-0.075,0.255h-0.271l0.21,0.15l-0.075,0.255l0.21-0.15l0.21,0.15l-0.075-0.255l0.21-0.15h-0.256L235.452,167.604L235.452,167.604z
		 M236.955,167.604l-0.075,0.255h-0.271l0.225,0.15l-0.09,0.255l0.21-0.15l0.226,0.15l-0.09-0.255l0.225-0.15h-0.271
		L236.955,167.604L236.955,167.604z M238.474,167.604l-0.09,0.255h-0.256l0.21,0.15l-0.075,0.255l0.21-0.15l0.21,0.15l-0.075-0.255
		l0.21-0.15h-0.271L238.474,167.604L238.474,167.604z M239.977,167.604l-0.075,0.255h-0.271l0.225,0.15l-0.09,0.255l0.21-0.15
		l0.225,0.15l-0.09-0.255l0.21-0.15h-0.256L239.977,167.604L239.977,167.604z M233.948,166.326l-0.09,0.255h-0.256l0.21,0.15
		l-0.09,0.255l0.225-0.15l0.21,0.15l-0.09-0.255l0.225-0.15h-0.271L233.948,166.326L233.948,166.326z M235.452,166.326l-0.075,0.255
		h-0.271l0.21,0.15l-0.075,0.255l0.21-0.15l0.21,0.15l-0.075-0.255l0.21-0.15h-0.256L235.452,166.326L235.452,166.326z
		 M236.955,166.326l-0.075,0.255h-0.271l0.225,0.15l-0.09,0.255l0.21-0.15l0.226,0.15l-0.09-0.255l0.225-0.15h-0.271
		L236.955,166.326L236.955,166.326z M238.474,166.326l-0.09,0.255h-0.256l0.21,0.15l-0.075,0.255l0.21-0.15l0.21,0.15l-0.075-0.255
		l0.21-0.15h-0.271L238.474,166.326L238.474,166.326z M239.977,166.326l-0.075,0.255h-0.271l0.225,0.15l-0.09,0.255l0.21-0.15
		l0.225,0.15l-0.09-0.255l0.21-0.15h-0.256L239.977,166.326L239.977,166.326z M233.948,165.049l-0.09,0.255h-0.256l0.21,0.15
		l-0.09,0.255l0.225-0.165l0.21,0.165l-0.09-0.255l0.225-0.15h-0.271L233.948,165.049L233.948,165.049z M235.452,165.049
		l-0.075,0.255h-0.271l0.21,0.15l-0.075,0.255l0.21-0.165l0.21,0.165l-0.075-0.255l0.21-0.15h-0.256L235.452,165.049
		L235.452,165.049z M236.955,165.049l-0.075,0.255h-0.271l0.225,0.15l-0.09,0.255l0.21-0.165l0.226,0.165l-0.09-0.255l0.225-0.15
		h-0.271L236.955,165.049L236.955,165.049z M238.474,165.049l-0.09,0.255h-0.256l0.21,0.15l-0.075,0.255l0.21-0.165l0.21,0.165
		l-0.075-0.255l0.21-0.15h-0.271L238.474,165.049L238.474,165.049z M239.977,165.049l-0.075,0.255h-0.271l0.225,0.15l-0.09,0.255
		l0.21-0.165l0.225,0.165l-0.09-0.255l0.21-0.15h-0.256L239.977,165.049L239.977,165.049z"/>
</g>
</svg>
