<?xml version="1.0" encoding="utf-8"?>
<!-- Generator: Adobe Illustrator 17.0.0, SVG Export Plug-In . SVG Version: 6.00 Build 0)  -->
<!DOCTYPE svg PUBLIC "-//W3C//DTD SVG 1.1//EN" "http://www.w3.org/Graphics/SVG/1.1/DTD/svg11.dtd">
<svg version="1.1" id="Слой_1" xmlns="http://www.w3.org/2000/svg" xmlns:xlink="http://www.w3.org/1999/xlink" x="0px" y="0px"
	 width="17px" height="12px" viewBox="232.445 164.078 17 12" enable-background="new 232.445 164.078 17 12" xml:space="preserve">
<rect x="232.445" y="167.919" fill="#F05C2A" stroke="#000000" stroke-width="0.0175" width="17" height="4.321"/>
<rect x="232.445" y="164.078" fill="#0093C1" stroke="#000000" stroke-width="0.0175" width="17" height="3.841"/>
<rect x="232.445" y="168.159" fill="#FFFFFF" width="17" height="3.841"/>
<rect x="232.445" y="172.24" fill="#2FB357" stroke="#000000" stroke-width="0.0175" width="17" height="3.838"/>
<g>
	<path fill="#FFFFFF" d="M234.737,165.998c0,0.624,0.51,1.129,1.14,1.129c0.09,0,0.179-0.011,0.262-0.031
		c-0.251,0.208-0.572,0.332-0.925,0.332c-0.797,0-1.444-0.641-1.444-1.431c0-0.79,0.647-1.431,1.444-1.431
		c0.353,0,0.674,0.124,0.925,0.332c-0.084-0.019-0.173-0.031-0.262-0.031C235.247,164.868,234.737,165.374,234.737,165.998z"/>
</g>
<g>
	<polygon fill="#FFFFFF" points="240.743,166.888 240.675,167.097 240.451,167.097 240.633,167.227 240.563,167.436 
		240.743,167.306 240.923,167.436 240.854,167.225 241.034,167.098 240.812,167.098 	"/>
	<polygon fill="#FFFFFF" points="239.771,166.888 239.839,167.098 240.062,167.098 239.881,167.225 239.95,167.436 239.771,167.306 
		239.591,167.436 239.661,167.227 239.479,167.097 239.703,167.097 	"/>
	<polygon fill="#FFFFFF" points="238.798,166.888 238.867,167.098 239.09,167.098 238.909,167.225 238.978,167.436 238.798,167.306 
		238.618,167.436 238.688,167.227 238.507,167.097 238.73,167.097 	"/>
	<polygon fill="#FFFFFF" points="237.826,166.888 237.895,167.098 238.117,167.098 237.937,167.225 238.005,167.436 
		237.826,167.306 237.646,167.436 237.716,167.227 237.534,167.097 237.758,167.097 	"/>
	<polygon fill="#FFFFFF" points="236.853,166.888 236.785,167.097 236.562,167.097 236.743,167.227 236.674,167.436 
		236.853,167.306 237.033,167.436 236.964,167.225 237.145,167.098 236.922,167.098 	"/>
	<polygon fill="#FFFFFF" points="240.743,164.557 240.675,164.767 240.451,164.767 240.633,164.897 240.563,165.106 
		240.743,164.976 240.923,165.106 240.854,164.895 241.034,164.767 240.812,164.767 	"/>
	<polygon fill="#FFFFFF" points="239.771,164.557 239.839,164.767 240.062,164.767 239.881,164.895 239.95,165.106 239.771,164.976 
		239.591,165.106 239.661,164.897 239.479,164.767 239.703,164.767 	"/>
	<polygon fill="#FFFFFF" points="238.798,164.557 238.867,164.767 239.09,164.767 238.909,164.895 238.978,165.106 238.798,164.976 
		238.618,165.106 238.688,164.897 238.507,164.767 238.73,164.767 	"/>
	<polygon fill="#FFFFFF" points="240.743,165.723 240.675,165.932 240.451,165.932 240.633,166.062 240.563,166.271 
		240.743,166.141 240.923,166.271 240.854,166.06 241.034,165.933 240.812,165.933 	"/>
	<polygon fill="#FFFFFF" points="239.771,165.723 239.839,165.933 240.062,165.933 239.881,166.06 239.95,166.271 239.771,166.141 
		239.591,166.271 239.661,166.062 239.479,165.932 239.703,165.932 	"/>
	<polygon fill="#FFFFFF" points="238.798,165.723 238.867,165.933 239.09,165.933 238.909,166.06 238.978,166.271 238.798,166.141 
		238.618,166.271 238.688,166.062 238.507,165.932 238.73,165.932 	"/>
	<polygon fill="#FFFFFF" points="237.826,165.723 237.895,165.933 238.117,165.933 237.937,166.06 238.005,166.271 237.826,166.141 
		237.646,166.271 237.716,166.062 237.534,165.932 237.758,165.932 	"/>
</g>
</svg>
